<?xml version="1.0" encoding="UTF-8"?>
<!DOCTYPE svg PUBLIC "-//W3C//DTD SVG 1.1//EN" "http://www.w3.org/Graphics/SVG/1.1/DTD/svg11.dtd">
<!-- Creator: CorelDRAW X5 -->
<svg xmlns="http://www.w3.org/2000/svg" xml:space="preserve" width="210mm" height="101.009mm" style="shape-rendering:geometricPrecision; text-rendering:geometricPrecision; image-rendering:optimizeQuality; fill-rule:evenodd; clip-rule:evenodd"
viewBox="0 0 21000 10101"
 xmlns:xlink="http://www.w3.org/1999/xlink"
 xmlns:dc="http://purl.org/dc/elements/1.1/"
 xmlns:cc="http://creativecommons.org/ns#"
 xmlns:rdf="http://www.w3.org/1999/02/22-rdf-syntax-ns#"
 xmlns:svg="http://www.w3.org/2000/svg"
 xmlns:sodipodi="http://sodipodi.sourceforge.net/DTD/sodipodi-0.dtd"
 xmlns:inkscape="http://www.inkscape.org/namespaces/inkscape"
 sodipodi:docname="55555555555555555555555555555555555555555.svg"
 inkscape:version="0.92.4 (5da689c313, 2019-01-14)">
 <defs>
  <style type="text/css">
   <![CDATA[
    .fil0 {fill:black}
    .fil12 {fill:#070A93}
    .fil13 {fill:#070C90}
    .fil14 {fill:#1124D4}
    .fil11 {fill:#1124DA}
    .fil19 {fill:#134B28}
    .fil18 {fill:#134D28}
    .fil23 {fill:#232323}
    .fil20 {fill:#237C1A}
    .fil17 {fill:#237E18}
    .fil34 {fill:#2DA728}
    .fil33 {fill:#2DA82A}
    .fil46 {fill:#34A7BF}
    .fil2 {fill:#363B3B}
    .fil36 {fill:#3D9146}
    .fil39 {fill:#3F914B}
    .fil37 {fill:#448E4D}
    .fil6 {fill:#49646E}
    .fil27 {fill:#4B646E}
    .fil45 {fill:#52FDD6}
    .fil47 {fill:#54F9D6}
    .fil35 {fill:#60EB03}
    .fil32 {fill:#60EF00}
    .fil40 {fill:#6ED13A}
    .fil43 {fill:#6EDB2D}
    .fil38 {fill:#72D63B}
    .fil41 {fill:#74D641}
    .fil5 {fill:#750A38}
    .fil4 {fill:#770A38}
    .fil42 {fill:#77D34B}
    .fil7 {fill:#97C6DB}
    .fil28 {fill:#97C6DD}
    .fil30 {fill:#9CC4CF}
    .fil31 {fill:#9E2D9E}
    .fil26 {fill:#A528B1}
    .fil25 {fill:#A728B3}
    .fil50 {fill:#AE3F01}
    .fil49 {fill:#B14100}
    .fil8 {fill:#BC1803}
    .fil3 {fill:#BF1601}
    .fil29 {fill:#E452BC}
    .fil24 {fill:#E652BD}
    .fil51 {fill:#E67E01}
    .fil48 {fill:#E97E00}
    .fil44 {fill:#F9FDFB}
    .fil21 {fill:#F9FDFD}
    .fil9 {fill:#FBFDFB}
    .fil15 {fill:#FBFDFD}
    .fil10 {fill:#000001;fill-rule:nonzero}
    .fil16 {fill:#000100;fill-rule:nonzero}
    .fil1 {fill:#010000;fill-rule:nonzero}
    .fil22 {fill:#010001;fill-rule:nonzero}
   ]]>
  </style>
 </defs>
 <g id="Layer_x0020_1">
  <metadata id="CorelCorpID_0Corel-Layer"/>
  <sodipodi:namedview pagecolor="#ffffff" bordercolor="#666666" borderopacity="1" objecttolerance="10" gridtolerance="10" guidetolerance="10" inkscape:pageopacity="0" inkscape:pageshadow="2" inkscape:window-width="1366" inkscape:window-height="705" id="namedview32" showgrid="false" inkscape:showpageshadow="false" units="px" inkscape:zoom="1" inkscape:cx="94.586394" inkscape:cy="12.364252" inkscape:window-x="-8" inkscape:window-y="-8" inkscape:window-maximized="1" inkscape:current-layer="svg30">
   <inkscape:grid type="xygrid" id="grid884"/>
  </sodipodi:namedview>
  <path id="path13" class="fil0" d="M6542 175c9,-80 76,-128 135,-174 61,56 154,97 169,187 236,1590 398,3190 595,4786 -78,19 -198,67 -252,-17 -50,-203 -68,-413 -91,-621 -118,-1161 -247,-2320 -396,-3477 -76,62 -55,171 -76,257 -197,1144 -363,2294 -489,3448 -16,148 -33,299 -86,440 -70,-13 -164,22 -217,-36 -51,-128 -72,-266 -95,-401 -105,-668 -213,-1335 -319,-2003 -71,-474 -204,-934 -294,-1404 -12,-66 -32,-130 -55,-192 -202,1228 -383,2459 -588,3686 -20,109 -5,230 -57,332 -79,39 -172,10 -252,-12 260,-1578 516,-3156 739,-4740 6,-90 75,-225 182,-169 104,136 171,301 180,473 51,633 273,1233 365,1859 112,570 173,1149 283,1719 51,-141 50,-292 71,-439 153,-1171 333,-2339 546,-3501z" inkscape:connector-curvature="0"/>
  <path id="path15" class="fil0" d="M11010 176c0,-86 77,-130 138,-176 75,53 129,133 112,229 -45,521 -12,1045 6,1566 19,938 18,1878 -47,2815 -12,116 -20,233 -44,348 -58,67 -195,62 -258,12 -67,-161 -94,-339 -155,-504 -294,-1139 -497,-2300 -822,-3432 -36,-125 -62,-255 -134,-365 -27,925 -4,1851 -7,2776 8,509 -10,1020 47,1527 -91,25 -224,69 -294,-14 -8,-1456 -7,-2913 -18,-4369 4,-149 -17,-310 55,-448 46,-88 162,-76 244,-69 82,14 100,111 129,175 441,1258 653,2578 984,3865 12,11 36,33 48,44 12,-415 33,-829 33,-1244 29,-912 -107,-1825 -17,-2736l0 0z" inkscape:connector-curvature="0"/>
  <path id="path17" class="fil0" d="M11987 309c86,-132 208,-265 375,-280 162,-14 340,-24 486,61 100,55 125,208 35,285 -155,21 -310,-91 -464,-29 -235,93 -351,340 -417,568 -242,869 -207,1782 -157,2673 27,320 64,657 242,933 88,171 310,138 466,104 162,-56 216,-246 258,-394 86,-405 90,-821 85,-1233 -14,-96 62,-209 168,-190 206,5 417,-19 621,19 132,55 56,250 -61,278 -149,37 -307,11 -459,21 17,385 5,775 -86,1150 -57,210 -132,434 -304,579 -131,71 -269,178 -427,140 -196,-21 -388,-117 -483,-296 -222,-359 -272,-791 -298,-1204 -24,-613 -34,-1227 13,-1839 38,-469 139,-947 404,-1343l0 0z" inkscape:connector-curvature="0"/>
  <path id="path19" class="fil0" d="M15997 38c119,-74 210,80 194,187 -26,1122 82,2242 229,3354 55,339 104,702 317,983 98,138 302,186 445,90 204,-140 286,-389 335,-620 259,-1250 191,-2533 235,-3800 -1,-82 53,-180 149,-165 112,-20 118,128 118,204 -51,1011 -4,2027 -126,3034 -61,533 -115,1116 -473,1544 -139,163 -374,173 -567,123 -227,-79 -386,-280 -476,-496 -122,-300 -186,-621 -221,-942 -157,-1096 -231,-2204 -234,-3311 3,-66 17,-146 76,-186l0 0z" inkscape:connector-curvature="0"/>
  <path id="path21" class="fil0" d="M18785 137c136,-158 357,-114 541,-112 227,3 445,113 604,272 80,81 76,229 -30,285 -75,25 -126,-34 -176,-78 -188,-191 -491,-209 -739,-160 -371,356 -552,956 -326,1439 75,173 238,279 398,365 355,193 715,414 942,758 377,531 331,1328 -142,1787 -224,217 -553,370 -868,285 -138,-40 -297,-62 -387,-186 -313,-350 -345,-850 -340,-1297 13,-155 -33,-352 121,-452 78,51 139,127 134,226 17,419 -51,896 223,1252 131,193 398,201 603,146 484,-148 746,-726 620,-1201 -77,-320 -314,-568 -562,-769 -245,-199 -566,-281 -794,-504 -210,-225 -302,-541 -303,-845 -5,-445 172,-890 479,-1212l0 0z" inkscape:connector-curvature="0"/>
  <path id="path23" class="fil0" d="M1278 635c126,-246 292,-506 567,-600 325,-42 652,63 944,198 297,142 491,426 591,731 113,30 250,35 331,132 78,96 140,205 185,320 150,424 240,868 262,1317 6,172 2,357 -90,508 -75,121 -203,192 -328,250 44,475 34,955 93,1429l-21 36c-366,53 -746,-30 -1110,43 -63,-31 -147,-58 -148,-142 -17,-308 3,-625 -68,-927 -71,-196 -322,-153 -477,-101 -171,64 -111,279 -123,419 -24,235 4,473 -38,705 -289,71 -601,-17 -894,47 -90,-58 -173,-144 -168,-260 -54,-820 -47,-1645 49,-2462 46,-570 201,-1131 447,-1646m334 -111c-296,444 -432,972 -515,1494 -132,893 -144,1800 -84,2700 199,1 398,1 597,0 28,-333 -36,-679 73,-1002 113,-194 372,-189 569,-213 138,8 344,-49 423,103 151,351 82,740 121,1110 256,-4 511,-1 766,-3 -60,-1086 -41,-2187 -292,-3253 -73,-287 -125,-607 -348,-823 -229,-208 -539,-298 -837,-350 -196,-43 -370,83 -473,238m1842 708c173,646 224,1316 276,1980 195,-73 234,-297 211,-480 -48,-455 -105,-920 -302,-1339 -34,-80 -109,-127 -185,-162z" inkscape:connector-curvature="0"/>
  <path id="path25" class="fil0" d="M8128 67c98,-64 222,-45 327,-12 156,53 322,128 400,284 294,522 365,1134 365,1724 3,851 -27,1724 -319,2533 -57,174 -179,330 -351,400 -230,32 -473,-109 -558,-326 -123,-289 -188,-599 -241,-907 -107,-741 -95,-1493 -62,-2239 21,-419 83,-844 249,-1232 42,-89 99,-176 187,-225m71 297c-190,451 -232,945 -246,1429 -28,876 -36,1774 229,2619 39,109 98,264 239,257 138,7 222,-129 264,-242 71,-204 117,-416 152,-628 122,-780 155,-1576 74,-2362 -35,-344 -142,-679 -323,-974 -54,-153 -264,-177 -389,-98z" inkscape:connector-curvature="0"/>
  <path id="path27" class="fil0" d="M1608 936c382,-86 821,-140 1179,55 141,290 185,618 186,938 -16,193 -250,238 -405,266 -342,37 -717,88 -1032,-84 -118,-64 -252,-164 -241,-314 22,-247 52,-500 151,-730 26,-71 95,-109 163,-132m344 151c-96,15 -197,29 -283,77 -120,153 -169,354 -169,546 -5,104 64,192 152,237 296,115 616,79 919,21 95,-28 241,-84 197,-212 -52,-192 -48,-411 -165,-578 -180,-144 -437,-94 -651,-91z" inkscape:connector-curvature="0"/>
  <path class="fil1" d="M0 8823c0,-144 0,-288 0,-432 14,-151 19,-303 16,-454 -4,-224 87,-346 301,-380 20,-3 39,-12 59,-12 127,-4 129,0 149,-147 23,-169 76,-329 167,-468 96,-147 234,-255 424,-255 181,0 366,-26 542,11 281,59 514,198 628,482 12,30 27,57 53,77 123,93 192,218 215,369 0,69 0,138 0,207 -15,79 -42,151 -91,218 -43,59 -31,136 -16,201 60,259 14,513 -26,768 -23,150 -51,299 -70,449 -12,98 -35,192 -92,275 -50,85 -127,119 -223,117 -60,-1 -120,0 -180,0 -174,0 -218,-30 -285,-190 -30,-72 -43,-147 -43,-224 0,-36 -7,-74 -53,-72 -46,2 -35,45 -36,73 -3,79 5,159 -18,237 -32,177 -173,306 -355,328 -150,18 -292,-16 -425,-81 -71,-34 -104,-104 -113,-183 -2,-106 -21,-210 -24,-316 -2,-61 -31,-99 -97,-90 -211,27 -366,-139 -391,-357 -6,-50 0,-102 -17,-151z"/>
  <path class="fil2" d="M1591 9651c47,127 127,196 272,175 59,-8 120,-3 180,-1 87,3 156,-26 199,-105 116,20 240,22 314,139 0,17 0,35 0,52 -22,56 -70,79 -122,98 -174,62 -355,74 -538,83 -33,2 -68,-10 -100,9 -271,0 -541,0 -812,0 -113,-18 -228,-10 -341,-27 -113,-18 -227,-35 -332,-85 -45,-21 -88,-46 -88,-106 1,-59 44,-87 91,-102 77,-25 149,-79 237,-45 14,110 82,162 184,198 207,73 395,68 576,-72 70,-55 71,-125 87,-195 61,-37 127,-24 192,-16z"/>
  <path class="fil3" d="M843 7061c102,-128 219,-224 399,-199 68,9 138,8 206,7 194,-3 359,63 492,205 15,16 44,29 33,54 -10,23 -40,20 -62,19 -152,-2 -304,-13 -455,17 -65,13 -131,19 -194,39 -105,33 -176,111 -186,216 -20,200 -21,400 89,585 48,80 116,124 193,162 183,92 374,68 564,28 81,-17 164,-33 241,-62 81,-30 88,7 82,70 -6,120 -15,238 -46,356 -64,245 -169,326 -416,365 -213,33 -413,-19 -614,-55 -116,-21 -177,-134 -222,-236 -83,-191 -123,-392 -149,-599 -23,-175 -18,-350 -30,-524 -11,-157 50,-299 76,-448z"/>
  <path class="fil4" d="M843 7061c7,81 -9,160 -36,235 -9,25 -12,50 -13,76 -12,261 0,523 40,780 27,174 62,352 151,506 61,106 135,209 295,205 120,-3 238,65 364,46 98,-15 199,-6 295,-42 105,-40 169,-113 204,-215 44,-128 70,-259 84,-393 2,-20 -2,-41 17,-55 47,375 9,743 -94,1105 -20,70 -5,143 -6,215 -3,121 -20,139 -136,151 -34,3 -68,10 -102,11 -132,4 -183,-42 -177,-176 4,-94 4,-193 129,-226 52,-14 96,-57 151,-115 -106,14 -190,19 -275,19 -101,0 -200,-11 -299,-30 -40,-8 -80,-11 -120,-1 -41,11 -68,32 -74,82 -12,106 -19,211 -16,317 5,149 -84,241 -235,251 -80,5 -153,-19 -224,-51 -28,-13 -34,-33 -37,-61 -72,-559 -76,-1121 -70,-1684 3,-244 33,-484 94,-719 21,-79 60,-153 91,-229z"/>
  <path class="fil5" d="M481 7958c1,293 1,586 4,879 1,60 11,120 14,180 6,114 -56,153 -162,103 -83,-39 -121,-95 -136,-196 -47,-311 -6,-618 10,-926 0,-8 8,-15 12,-22 43,3 82,-13 123,-24 46,-12 93,-26 137,7z"/>
  <path class="fil6" d="M2384 7631c29,111 -22,229 -144,289 -210,102 -431,159 -667,105 -116,-27 -209,-98 -284,-186 -94,-110 -65,-376 44,-463 38,19 44,58 54,93 63,211 152,278 373,277 146,-1 291,-21 435,-38 71,-8 126,-52 189,-77z"/>
  <path class="fil7" d="M2384 7631c-42,78 -122,95 -197,104 -156,19 -313,35 -471,33 -185,-2 -293,-83 -343,-261 -12,-44 -27,-88 -40,-131 173,-36 345,-87 524,-74 131,10 260,42 373,113 79,50 140,118 155,216z"/>
  <path class="fil8" d="M481 7958c-67,-1 -131,10 -193,34 -22,9 -56,34 -66,-17 4,-28 7,-57 12,-85 23,-124 116,-178 236,-140 32,10 28,32 26,54 -4,51 -9,102 -14,153z"/>
  <path class="fil9" d="M2032 7580c-85,-9 -195,-23 -306,-33 -58,-5 -70,-43 -70,-89 0,-54 34,-86 82,-93 133,-21 260,13 387,47 27,7 53,23 71,47 17,23 37,47 24,78 -14,31 -40,47 -76,44 -29,-2 -57,0 -112,0z"/>
  <path class="fil10" d="M3134 8823c0,-144 0,-288 0,-432 14,-151 19,-303 16,-454 -4,-224 87,-346 301,-380 20,-3 39,-12 59,-12 127,-4 129,0 149,-147 23,-169 76,-329 167,-468 96,-147 234,-255 424,-255 181,0 366,-26 542,11 281,59 514,198 628,482 12,30 27,57 53,77 123,93 192,218 215,369 0,69 0,138 0,207 -15,79 -42,151 -91,218 -43,59 -31,136 -16,201 60,259 14,513 -26,768 -23,150 -51,299 -70,449 -12,98 -35,192 -92,275 -50,85 -127,119 -223,117 -60,-1 -120,0 -180,0 -174,0 -218,-30 -285,-190 -30,-72 -43,-147 -43,-224 0,-36 -7,-74 -53,-72 -46,2 -35,45 -36,73 -3,79 5,159 -18,237 -31,171 -150,290 -330,323 -162,30 -315,-7 -458,-81 -66,-34 -98,-102 -106,-178 -2,-106 -21,-211 -24,-316 -2,-61 -31,-99 -97,-90 -211,27 -366,-139 -391,-357 -6,-50 0,-102 -17,-151z"/>
  <path class="fil2" d="M4725 9651c46,127 128,196 271,175 59,-8 120,-3 180,-1 87,2 156,-26 199,-105 116,20 240,22 314,139 0,17 0,35 0,52 -22,56 -70,79 -122,98 -174,62 -355,74 -538,83 -33,2 -68,-10 -100,9 -271,0 -541,0 -812,0 -113,-18 -228,-10 -341,-27 -113,-18 -227,-35 -332,-85 -45,-21 -88,-46 -88,-106 1,-59 44,-87 91,-102 77,-25 149,-79 237,-45 14,110 83,162 184,198 208,75 395,67 576,-72 71,-54 71,-125 87,-195 61,-37 127,-24 192,-16z"/>
  <path class="fil11" d="M4082 6957c75,-77 166,-106 272,-98 89,7 178,9 267,12 182,5 333,75 457,207 13,14 38,27 31,48 -9,26 -38,22 -60,22 -167,-3 -333,-13 -498,22 -56,12 -115,17 -168,38 -95,37 -163,110 -173,209 -20,203 -22,406 92,593 49,79 118,121 196,159 185,91 375,64 565,24 76,-16 154,-28 225,-56 74,-28 102,-17 90,65 -12,102 -5,204 -31,305 -82,315 -192,405 -515,428 -187,13 -364,-39 -544,-70 -103,-18 -150,-122 -193,-207 -95,-189 -136,-392 -163,-602 -24,-192 -22,-383 -31,-575 -7,-145 45,-276 76,-412 11,-49 65,-78 104,-112z"/>
  <path class="fil12" d="M4082 6957c-139,129 -137,307 -153,474 -22,244 0,489 38,729 37,233 91,466 262,649 20,21 38,33 64,35 179,17 351,88 534,64 84,-11 169,-10 252,-44 98,-41 158,-112 194,-205 50,-129 73,-264 87,-402 2,-20 -2,-41 17,-55 29,264 21,524 -23,787 -31,187 -110,369 -81,567 9,61 -26,106 -98,118 -72,12 -143,11 -215,8 -90,-4 -77,-88 -97,-142 -20,-53 16,-107 14,-161 -2,-75 72,-62 109,-91 42,-33 97,-49 129,-101 -46,-36 -90,-1 -133,-1 -141,0 -281,1 -420,-30 -126,-28 -167,6 -191,130 -17,88 -21,175 -15,264 10,151 -77,243 -230,255 -58,4 -114,-6 -169,-25 -67,-22 -89,-64 -102,-138 -31,-181 -13,-367 -58,-546 -6,-25 -6,-51 -6,-77 0,-334 6,-668 -2,-1001 -6,-257 36,-508 106,-751 32,-111 45,-254 186,-308z"/>
  <path class="fil13" d="M3615 7960c1,256 1,511 2,767 0,97 3,195 15,292 13,113 -28,143 -139,111 -102,-30 -146,-89 -154,-198 -9,-126 -37,-250 -31,-376 9,-189 22,-378 34,-566 1,-10 10,-20 15,-30 53,29 105,-8 157,-4 33,3 67,-10 100,4z"/>
  <path class="fil6" d="M5518 7631c29,111 -22,230 -144,289 -207,100 -425,158 -658,107 -123,-27 -221,-100 -297,-195 -91,-113 -59,-369 48,-455 40,30 48,76 62,119 55,178 154,248 341,252 123,2 245,-19 368,-22 101,-3 194,-44 281,-94z"/>
  <path class="fil7" d="M5518 7631c-42,78 -122,94 -197,105 -173,24 -348,37 -523,32 -126,-4 -239,-96 -282,-227 -18,-54 -33,-109 -50,-164 173,-36 345,-88 524,-74 134,10 265,42 380,118 76,50 133,117 148,211z"/>
  <path class="fil14" d="M3615 7960c-71,33 -153,6 -225,42 -36,18 -25,-25 -33,-42 4,-22 9,-45 12,-67 21,-124 117,-180 234,-140 32,11 27,33 25,55 -4,51 -9,102 -14,154z"/>
  <path class="fil15" d="M5229 7581c-124,-12 -246,-23 -368,-36 -39,-4 -64,-26 -69,-65 -6,-43 8,-80 51,-99 51,-23 106,-30 160,-21 84,14 169,31 251,55 52,15 104,42 91,114 -13,76 -74,43 -115,52z"/>
  <path class="fil16" d="M6201 8823c0,-144 0,-288 0,-432 14,-151 19,-303 16,-454 -4,-224 87,-346 301,-380 20,-3 39,-12 59,-12 128,-4 129,0 149,-147 23,-169 76,-329 167,-468 96,-147 234,-255 424,-255 181,0 366,-26 542,11 281,59 514,198 628,482 12,30 27,57 53,77 123,93 192,218 215,369 0,69 0,138 0,207 -15,79 -42,151 -91,218 -43,59 -31,136 -16,201 60,259 14,513 -26,768 -23,150 -51,299 -70,449 -12,98 -35,192 -92,275 -50,85 -127,119 -223,117 -60,-1 -120,0 -180,0 -174,0 -218,-30 -285,-190 -30,-72 -43,-147 -43,-224 0,-36 -7,-74 -53,-72 -46,2 -35,45 -36,73 -3,79 5,159 -18,237 -31,171 -150,290 -330,323 -162,30 -315,-7 -458,-81 -66,-34 -98,-102 -106,-178 -2,-106 -21,-211 -24,-316 -2,-48 -17,-95 -80,-90 -122,11 -228,-23 -310,-114 -83,-92 -94,-212 -107,-329 -2,-22 7,-46 -9,-66z"/>
  <path class="fil2" d="M7793 9651c46,127 127,196 272,175 59,-8 120,-3 180,-1 87,3 156,-26 199,-105 116,20 240,22 314,139 0,17 0,35 0,52 -22,56 -70,79 -122,98 -174,62 -355,74 -537,83 -28,1 -57,-9 -83,9 -276,0 -553,0 -829,0 -113,-18 -228,-10 -341,-27 -113,-18 -227,-35 -332,-85 -45,-21 -88,-46 -88,-106 1,-59 44,-87 91,-102 77,-25 149,-79 237,-45 15,108 80,161 182,198 209,76 398,67 580,-73 70,-54 70,-124 86,-194 61,-37 127,-24 192,-16z"/>
  <path class="fil17" d="M7045 7060c80,-136 240,-213 390,-196 80,9 161,7 241,7 217,0 383,97 531,277 -65,0 -115,2 -165,0 -187,-9 -372,4 -554,51 -129,33 -212,132 -216,265 -6,181 -10,359 86,526 89,156 234,204 391,229 206,32 403,-29 600,-76 98,-24 97,-30 96,77 4,150 -30,294 -75,436 -48,148 -157,227 -299,256 -161,33 -324,44 -486,-5 -33,-10 -68,-19 -102,-17 -177,8 -261,-110 -330,-244 -93,-181 -137,-377 -149,-579 -6,-95 -34,-186 -35,-282 -1,-244 -9,-488 76,-723z"/>
  <path class="fil18" d="M7045 7060c11,56 -6,109 -17,161 -54,265 -40,528 -5,794 16,119 35,237 57,354 32,171 114,315 223,447 20,24 45,27 69,29 170,13 333,82 508,64 102,-10 203,-15 299,-63 83,-42 136,-102 164,-189 44,-131 76,-264 87,-401 1,-13 10,-25 16,-38 32,177 17,355 12,532 -8,270 -130,522 -116,795 5,98 -27,122 -123,124 -43,1 -86,0 -129,0 -125,0 -147,-14 -158,-134 -6,-61 10,-125 16,-187 3,-27 29,-24 46,-32 72,-35 139,-77 198,-140 -84,13 -167,7 -249,10 -104,3 -206,-7 -307,-30 -36,-8 -75,-7 -111,-2 -45,7 -73,29 -81,84 -15,103 -15,206 -15,309 1,171 -134,286 -306,258 -28,-5 -56,-13 -83,-20 -77,-21 -111,-60 -114,-150 -5,-174 -28,-348 -54,-521 -13,-89 -9,-178 -10,-266 -3,-233 -9,-466 1,-699 12,-282 6,-567 85,-843 24,-86 70,-162 100,-244z"/>
  <path class="fil19" d="M6682 7976c1,265 0,529 3,794 1,100 10,200 17,300 4,50 -17,63 -65,65 -151,4 -227,-71 -244,-262 -23,-249 -22,-498 12,-746 7,-50 -14,-104 18,-151 57,1 112,-24 169,-21 31,2 63,-2 89,21z"/>
  <path class="fil6" d="M8585 7631c30,110 -24,232 -144,289 -205,98 -419,154 -650,108 -247,-48 -410,-290 -347,-522 14,-53 36,-103 89,-131 41,21 45,64 56,102 59,199 153,269 362,269 149,0 296,-21 444,-38 71,-8 126,-52 189,-77z"/>
  <path class="fil7" d="M8585 7631c-42,78 -122,95 -197,104 -156,19 -313,30 -471,35 -184,6 -312,-119 -344,-263 -10,-45 -26,-88 -40,-131 173,-35 345,-87 524,-74 134,10 265,43 380,118 76,50 133,116 148,211z"/>
  <path class="fil20" d="M6682 7976c-73,3 -148,-7 -218,26 -27,13 -36,-3 -40,-26 2,-26 2,-52 6,-77 21,-132 115,-187 243,-147 32,10 29,33 27,54 -4,57 -11,113 -17,170z"/>
  <path class="fil21" d="M8291 7582c-122,-12 -246,-25 -371,-37 -54,-5 -62,-45 -62,-87 -1,-54 34,-88 81,-94 141,-18 278,14 411,59 49,16 73,56 62,109 -15,74 -77,39 -121,50z"/>
  <path class="fil22" d="M14920 7613c0,69 0,138 0,207 -15,79 -42,151 -91,218 -43,59 -31,136 -16,201 60,259 14,513 -26,768 -23,150 -51,299 -70,449 -12,98 -35,192 -92,275 -50,85 -127,119 -223,117 -60,-1 -120,0 -180,0 -174,0 -218,-30 -285,-190 -30,-72 -43,-147 -43,-224 0,-36 -7,-74 -53,-72 -46,2 -35,45 -36,73 -3,79 5,159 -18,237 -31,171 -151,290 -330,324 -162,30 -315,-7 -458,-81 -66,-34 -98,-103 -105,-179 -3,-106 -20,-211 -24,-317 -2,-50 -22,-84 -83,-89 -287,-25 -397,-137 -421,-428 -21,-264 -7,-527 6,-791 3,-63 1,-126 3,-189 5,-187 81,-329 285,-360 34,-5 67,-22 101,-20 92,7 118,-45 127,-124 14,-130 62,-249 106,-371 54,-153 164,-245 294,-323 38,-23 79,-33 123,-33 141,-5 281,11 421,-9 52,0 104,0 155,0 239,37 447,140 581,341 85,127 169,253 268,369 53,62 66,144 83,222z"/>
  <path class="fil2" d="M14920 9909c-109,97 -249,111 -382,136 -318,58 -640,59 -963,55 -278,-4 -552,-42 -822,-105 -3,-1 -7,0 -8,-1 -45,-37 -133,-25 -137,-107 -4,-87 80,-79 131,-104 56,-27 117,-38 177,-49 14,110 83,161 184,198 208,76 395,66 576,-72 71,-54 72,-125 87,-195 61,-37 127,-24 192,-16 46,127 128,195 271,175 59,-8 120,-3 180,-1 87,2 156,-26 199,-105 116,20 240,22 314,139 0,17 0,35 0,52z"/>
  <path class="fil23" d="M13399 6697c3,-5 3,-11 1,-17 144,0 288,0 432,0 -64,36 -134,12 -201,16 -77,4 -155,1 -232,0z"/>
  <path class="fil24" d="M13208 7058c94,-118 201,-214 366,-197 167,18 338,-20 501,53 112,50 208,116 286,223 -54,10 -101,14 -149,10 -196,-17 -389,4 -579,54 -104,27 -175,102 -189,203 -27,194 -24,388 70,571 85,166 237,219 401,244 203,31 399,-30 593,-79 105,-26 103,-33 99,78 6,145 -27,283 -69,421 -51,166 -167,249 -331,275 -154,24 -308,36 -461,-13 -32,-10 -68,-17 -102,-16 -185,6 -269,-120 -336,-262 -125,-265 -155,-553 -172,-839 -11,-176 -24,-356 20,-532 18,-65 45,-127 50,-196z"/>
  <path class="fil25" d="M13177 7250c-48,300 -17,600 21,897 23,180 68,362 159,521 56,99 126,194 276,192 139,-1 276,61 421,47 109,-10 216,-21 314,-73 69,-37 112,-98 136,-171 44,-133 83,-267 90,-409 1,-13 10,-26 15,-38 32,237 22,472 -10,710 -27,201 -114,391 -90,601 12,106 -29,136 -134,146 -37,4 -75,2 -112,2 -127,0 -177,-52 -171,-182 2,-48 15,-96 19,-145 3,-28 25,-26 41,-36 53,-30 105,-60 156,-91 17,-10 30,-25 52,-43 -51,-20 -94,1 -136,2 -147,2 -293,1 -438,-30 -120,-25 -161,11 -185,130 -22,112 -13,223 -8,335 2,46 -13,75 -47,103 -119,95 -280,108 -412,34 -26,-15 -35,-31 -38,-60 -76,-568 -83,-1140 -65,-1711 4,-134 -26,-271 25,-402 5,-13 12,-26 18,-38 31,-80 23,-169 53,-250 9,-24 6,-64 52,-43z"/>
  <path class="fil26" d="M12846 7958c1,270 0,540 3,809 1,100 11,201 19,301 4,44 -9,60 -56,62 -151,7 -219,-56 -244,-207 -51,-307 -12,-613 6,-919 1,-11 8,-21 13,-31 60,-5 118,-23 178,-28 28,-2 57,-12 81,12z"/>
  <path class="fil27" d="M14748 7629c30,111 -22,230 -144,289 -207,100 -425,158 -658,107 -123,-27 -221,-100 -297,-195 -91,-114 -59,-370 48,-456 38,19 44,58 54,93 63,211 152,278 373,277 146,-1 291,-21 435,-38 71,-8 126,-52 189,-77z"/>
  <path class="fil28" d="M14748 7629c-42,78 -122,95 -197,104 -156,19 -313,35 -471,33 -185,-2 -293,-83 -343,-261 -12,-44 -27,-88 -40,-131 104,-26 210,-47 317,-57 30,-10 54,-4 68,28 6,32 -17,53 -30,78 -29,55 -10,94 47,102 133,18 267,34 403,32 59,-1 64,-49 83,-85 17,-18 35,-31 59,-13 62,41 91,102 105,172z"/>
  <path class="fil29" d="M12846 7958c-71,12 -145,6 -212,38 -29,14 -41,5 -47,-23 2,-23 4,-45 7,-68 25,-144 97,-190 241,-160 36,8 27,31 26,51 -4,54 -10,108 -15,162z"/>
  <path class="fil30" d="M14075 7355c-11,-28 -33,-37 -60,-39 230,-44 442,-8 629,141 -18,6 -37,12 -55,18 -128,-56 -259,-101 -401,-100 -38,0 -81,19 -113,-20z"/>
  <path class="fil31" d="M13177 7250c-64,46 -59,120 -69,186 -6,39 0,80 -37,107 7,-173 59,-333 136,-486 6,67 2,132 -31,193z"/>
  <path class="fil15" d="M14075 7355c121,3 241,2 361,36 61,17 107,48 153,84 11,72 -15,109 -93,103 -127,-10 -256,-9 -382,-26 -119,-16 -136,-83 -55,-177 6,-6 10,-14 15,-21z"/>
  <path class="fil16" d="M18040 7614c0,69 0,138 0,207 -15,79 -42,151 -91,218 -43,59 -31,136 -16,201 60,259 14,513 -26,768 -23,150 -51,299 -70,449 -12,98 -35,192 -92,275 -50,85 -127,119 -223,117 -60,-1 -120,0 -180,0 -174,0 -218,-30 -285,-190 -30,-72 -43,-147 -43,-224 0,-36 -7,-74 -53,-72 -46,2 -35,45 -36,73 -3,79 5,159 -18,237 -31,171 -150,290 -330,323 -162,30 -315,-7 -457,-80 -66,-34 -98,-102 -106,-178 -1,-106 -21,-211 -24,-318 -2,-49 -18,-95 -80,-89 -119,11 -223,-22 -305,-109 -83,-89 -106,-205 -117,-318 -26,-263 -9,-527 4,-791 3,-63 2,-126 3,-190 4,-185 79,-330 285,-361 23,-3 45,-11 67,-16 144,-28 146,-27 167,-170 24,-165 77,-324 169,-458 97,-140 232,-248 421,-245 181,3 365,-26 542,12 281,60 513,198 628,482 12,30 27,57 53,77 122,94 192,218 214,369z"/>
  <path class="fil2" d="M16469 10101c-70,-32 -146,-22 -219,-33 -157,-25 -316,-41 -463,-108 -29,-13 -61,-25 -62,-71 -1,-50 33,-64 65,-78 79,-34 162,-59 247,-73 14,110 83,161 184,198 208,75 395,67 576,-72 71,-54 71,-125 88,-195 61,-37 127,-24 192,-16 46,127 128,195 271,175 59,-8 120,-3 180,-1 87,2 156,-26 199,-105 116,20 240,22 314,139 0,17 0,35 0,52 -22,56 -70,79 -122,98 -174,62 -355,74 -538,83 -33,2 -68,-10 -100,9 -271,0 -541,0 -812,0z"/>
  <path class="fil32" d="M16988 7151c-55,12 -110,26 -166,34 -113,15 -193,75 -249,171 -32,42 -32,89 -23,138 6,136 2,271 48,406 71,206 229,281 418,321 112,24 222,1 332,-15 53,9 102,-10 151,-25 46,-12 91,-24 137,-35 25,0 48,-17 75,-11 14,28 5,57 8,85 22,150 -21,290 -65,430 -47,150 -152,235 -302,263 -162,31 -325,38 -487,-6 -36,-10 -73,-22 -110,-20 -155,9 -238,-89 -301,-207 -98,-185 -147,-385 -168,-594 -14,-137 -27,-274 -42,-411 -19,-179 2,-350 61,-517 12,-33 10,-68 21,-100 90,-110 190,-210 346,-195 175,16 356,-25 525,56 95,46 195,84 240,191 -22,59 -73,16 -108,30 -115,7 -230,-14 -344,11z"/>
  <path class="fil33" d="M16328 7058c9,114 -38,219 -54,329 -27,187 2,371 21,555 15,150 30,301 73,447 42,144 91,282 194,397 27,31 52,59 96,63 176,14 346,82 526,62 82,-9 163,-17 243,-45 102,-35 164,-105 197,-201 50,-144 88,-290 91,-444 3,-9 8,-10 14,-2 31,240 19,478 -13,719 -27,203 -111,397 -90,609 10,100 -28,123 -130,127 -40,1 -80,1 -121,1 -132,0 -137,-4 -162,-132 -19,-95 33,-204 116,-253 45,-26 88,-54 129,-86 41,-32 2,-29 -18,-33 -130,11 -259,11 -389,0 -37,-2 -75,0 -111,-7 -171,-30 -187,-21 -228,143 -21,84 -12,169 -7,253 4,78 -17,138 -78,184 -114,79 -264,82 -381,9 -18,-11 -29,-23 -32,-47 -63,-528 -87,-1057 -68,-1588 5,-137 -13,-276 10,-411 33,-190 43,-387 141,-562 16,-28 7,-64 31,-88z"/>
  <path class="fil34" d="M15966 7958c-9,269 -11,538 2,807 4,83 12,166 16,249 6,118 -56,157 -166,105 -80,-38 -127,-89 -131,-190 -7,-180 -47,-358 -13,-539 25,-86 -6,-176 16,-262 3,-51 -10,-104 15,-153 87,-3 172,-37 261,-18z"/>
  <path class="fil27" d="M17869 7631c29,111 -22,230 -145,289 -207,100 -425,158 -658,107 -123,-27 -221,-100 -297,-195 -91,-114 -59,-369 48,-456 38,19 44,58 54,93 63,211 152,276 373,278 112,1 222,-19 334,-23 104,-4 200,-42 291,-93z"/>
  <path class="fil7" d="M17869 7631c-42,78 -122,95 -197,104 -156,20 -313,34 -471,33 -185,-1 -293,-83 -343,-261 -12,-44 -27,-88 -41,-131 173,-35 345,-87 524,-74 132,10 259,42 373,113 79,50 139,118 155,216z"/>
  <path class="fil35" d="M15966 7958c-73,33 -158,8 -232,44 -5,2 -19,-17 -29,-26 4,-31 5,-62 12,-93 25,-114 132,-171 244,-134 30,10 21,31 20,48 -4,54 -10,108 -15,161z"/>
  <path class="fil36" d="M16627 9744c78,-73 67,-168 68,-262 1,-58 -20,-120 17,-175 0,97 -5,194 1,290 5,73 -19,120 -86,147z"/>
  <path class="fil37" d="M17051 9170c130,0 259,0 389,0 -130,24 -259,27 -389,0z"/>
  <path class="fil38" d="M16988 7151c75,-42 155,-13 233,-20 37,-4 74,1 112,1 5,3 7,6 5,9 -2,3 -4,4 -6,4 -115,2 -230,3 -344,5z"/>
  <path class="fil39" d="M15691 8128c-7,87 22,177 -16,262 2,-88 -9,-176 16,-262z"/>
  <path class="fil40" d="M17729 8219c-5,1 -9,1 -14,2 10,-61 -16,-86 -77,-76 94,-47 94,-47 91,73z"/>
  <path class="fil41" d="M17501 8180c-47,30 -95,51 -151,25 50,-8 101,-17 151,-25z"/>
  <path class="fil42" d="M17332 7146c0,-5 0,-9 0,-14 36,-8 78,14 107,-22 14,0 30,0 35,17 7,24 -14,19 -25,20 -39,3 -78,11 -117,0z"/>
  <path class="fil43" d="M16551 7493c-16,-50 -34,-100 23,-138 -8,46 -15,92 -23,138z"/>
  <path class="fil44" d="M17537 7580c-97,14 -189,-32 -287,-22 -54,5 -117,-18 -118,-86 -1,-66 45,-102 115,-110 121,-14 236,16 351,43 33,8 62,29 86,54 25,26 32,52 17,86 -14,33 -40,36 -70,35 -32,-1 -63,0 -95,0z"/>
  <path class="fil16" d="M10730 6680c52,0 104,0 155,0 240,35 447,139 583,340 85,125 178,242 261,366 136,203 149,423 4,636 -47,69 -39,146 -23,217 61,269 9,530 -31,794 -21,136 -49,271 -63,408 -11,104 -35,204 -95,292 -51,85 -128,116 -224,114 -60,-1 -120,0 -180,0 -172,0 -216,-30 -283,-190 -30,-72 -43,-147 -43,-224 0,-36 -7,-74 -53,-72 -46,2 -35,45 -36,73 -3,79 5,159 -18,237 -6,209 -184,286 -330,321 -160,39 -315,-5 -457,-79 -66,-34 -98,-102 -106,-178 -2,-106 -21,-211 -24,-316 -2,-48 -17,-95 -80,-90 -122,11 -228,-23 -310,-114 -83,-92 -94,-212 -107,-329 -2,-22 7,-46 -9,-66 0,-144 0,-288 0,-432 13,-151 17,-302 17,-454 1,-241 62,-341 300,-374 163,-22 212,-94 226,-241 14,-150 78,-292 162,-414 79,-115 193,-204 345,-218 140,-5 279,11 419,-9z"/>
  <path class="fil23" d="M10297 6696c3,-5 3,-11 1,-17 144,0 288,0 432,0 -64,36 -134,12 -201,16 -77,4 -155,1 -232,0z"/>
  <path class="fil45" d="M10106 7058c92,-116 195,-211 358,-196 173,16 350,-22 518,55 110,50 201,118 288,230 -63,0 -110,3 -157,-1 -196,-16 -390,5 -579,54 -107,28 -179,106 -192,210 -24,194 -23,389 76,570 102,185 277,231 465,243 179,11 354,-38 525,-84 104,-28 103,-33 99,77 4,145 -26,283 -69,420 -54,172 -177,247 -346,280 -228,44 -445,-17 -665,-51 -106,-16 -156,-118 -198,-202 -95,-188 -138,-392 -166,-602 -24,-181 -29,-360 -31,-541 -1,-124 6,-246 56,-363 13,-31 11,-68 19,-101z"/>
  <path class="fil46" d="M10106 7058c4,49 0,96 -12,145 -63,267 -44,533 -11,802 17,142 43,282 76,420 36,150 109,281 211,397 16,18 36,18 54,20 173,15 340,83 516,65 96,-10 192,-13 285,-53 90,-39 145,-102 175,-189 45,-130 82,-262 90,-401 1,-17 0,-35 16,-47 31,231 22,461 -7,693 -26,207 -115,402 -92,618 12,113 -25,137 -142,146 -34,3 -69,3 -103,3 -134,0 -168,-28 -173,-162 -2,-56 13,-114 19,-170 3,-29 29,-23 45,-30 80,-37 150,-84 201,-143 -168,12 -330,23 -490,-6 -288,-52 -257,6 -279,240 -4,45 0,92 2,138 5,152 -66,238 -217,257 -48,6 -97,3 -145,-10 -84,-22 -125,-56 -139,-158 -74,-546 -63,-1094 -64,-1642 0,-244 39,-479 93,-713 18,-76 60,-147 91,-220z"/>
  <path class="fil2" d="M11504 9718c58,43 133,37 194,69 15,8 32,11 47,18 33,17 71,38 70,78 -1,39 -37,61 -71,77 -100,48 -208,65 -316,85 -336,61 -676,58 -1015,52 -261,-5 -518,-41 -770,-108 -51,-13 -134,-22 -138,-103 -4,-87 80,-79 131,-104 56,-27 117,-38 177,-49 16,103 73,159 174,195 166,59 324,77 487,-5 109,-55 188,-127 186,-260 61,-37 127,-24 192,-16 46,127 128,195 271,175 59,-8 120,-3 180,-1 87,2 156,-26 199,-105z"/>
  <path class="fil46" d="M9743 7958c-6,293 -9,586 5,879 3,57 9,114 13,172 8,118 -44,159 -153,114 -78,-33 -131,-79 -144,-181 -41,-314 -14,-625 7,-937 1,-11 8,-21 12,-31 86,-8 172,-36 260,-15z"/>
  <path class="fil6" d="M11646 7629c30,110 -22,229 -144,289 -207,101 -425,156 -658,107 -242,-51 -400,-292 -338,-520 14,-53 36,-103 89,-131 38,19 44,58 54,93 63,211 152,276 373,278 112,1 222,-19 334,-23 104,-4 200,-41 291,-93z"/>
  <path class="fil7" d="M11646 7629c-42,78 -122,95 -197,104 -156,20 -313,34 -471,33 -185,-1 -293,-83 -343,-261 -12,-44 -27,-88 -40,-131 173,-36 345,-87 524,-74 132,10 259,42 373,113 79,50 140,118 155,216z"/>
  <path class="fil47" d="M9743 7958c-76,32 -163,0 -238,45 -13,8 -16,-18 -22,-30 2,-20 3,-40 6,-60 25,-153 93,-198 244,-168 31,6 27,24 25,42 -5,57 -11,114 -16,171z"/>
  <path class="fil44" d="M11306 7578c-94,18 -183,-33 -279,-22 -54,6 -117,-18 -118,-85 -1,-66 44,-102 115,-110 121,-14 236,16 351,43 36,8 67,32 92,60 22,25 24,50 11,79 -12,28 -32,37 -61,36 -37,-1 -75,0 -112,0z"/>
  <path class="fil1" d="M21000 7613c0,69 0,138 0,207 -15,79 -42,151 -91,218 -43,59 -31,136 -16,201 60,259 14,513 -26,768 -23,150 -51,299 -70,449 -12,98 -35,192 -92,275 -50,85 -127,119 -223,117 -60,-1 -120,0 -180,0 -174,0 -218,-30 -285,-190 -30,-72 -43,-147 -43,-224 0,-36 -7,-74 -53,-72 -46,2 -35,45 -36,73 -3,79 5,159 -18,237 -31,171 -151,290 -330,324 -162,30 -315,-7 -458,-81 -66,-34 -98,-103 -105,-179 -3,-106 -20,-211 -24,-317 -2,-50 -22,-84 -83,-89 -287,-25 -397,-137 -421,-428 -21,-264 -7,-527 6,-791 3,-63 1,-126 3,-189 5,-187 81,-329 285,-360 34,-5 67,-22 101,-20 92,7 119,-45 127,-124 14,-133 64,-255 109,-379 55,-153 168,-242 298,-320 35,-21 75,-29 116,-29 141,-5 281,11 421,-9 52,0 104,0 155,0 239,37 447,140 581,341 85,127 169,253 268,369 53,62 66,144 83,222z"/>
  <path class="fil2" d="M21000 9909c-109,97 -249,112 -382,136 -318,58 -640,59 -963,55 -278,-3 -552,-42 -822,-105 -3,-1 -7,0 -8,-1 -45,-37 -133,-25 -137,-107 -4,-87 80,-79 131,-104 56,-27 117,-38 177,-49 15,108 80,161 182,198 209,76 398,67 580,-73 70,-54 69,-125 86,-194 61,-37 127,-24 192,-16 46,127 128,195 272,175 59,-8 120,-3 180,-1 87,2 156,-26 199,-105 116,20 240,22 314,139 0,17 0,35 0,52z"/>
  <path class="fil23" d="M19479 6697c3,-5 3,-11 1,-17 144,0 288,0 432,0 -64,36 -134,12 -201,16 -77,4 -155,1 -232,0z"/>
  <path class="fil48" d="M19288 7058c94,-118 201,-216 366,-198 167,19 339,-19 502,53 112,50 207,117 285,221 -104,26 -201,7 -297,7 -148,-1 -292,25 -433,60 -103,26 -174,103 -187,205 -25,195 -23,388 73,571 85,163 235,214 395,240 203,33 399,-30 594,-77 106,-26 105,-33 102,76 3,141 -26,277 -66,412 -48,162 -156,250 -316,281 -150,29 -301,41 -452,-4 -38,-12 -80,-19 -119,-18 -195,4 -282,-126 -352,-277 -82,-179 -111,-372 -141,-565 -27,-175 -27,-348 -30,-523 -2,-124 6,-246 56,-363 13,-31 11,-68 19,-101z"/>
  <path class="fil49" d="M19288 7058c5,49 0,96 -12,145 -62,266 -46,533 -10,802 19,139 42,276 74,413 36,154 113,284 212,404 16,19 36,18 54,20 181,18 357,84 542,66 85,-9 169,-20 251,-51 98,-37 155,-105 186,-200 43,-130 81,-263 88,-401 1,-13 10,-26 15,-38 31,243 20,484 -14,728 -27,198 -114,386 -87,593 10,80 -32,137 -126,136 -37,-1 -74,5 -112,6 -134,1 -195,-75 -177,-210 12,-88 29,-161 130,-191 49,-15 90,-58 146,-96 -62,-23 -108,2 -154,2 -144,0 -287,-1 -429,-31 -122,-26 -161,10 -184,131 -17,89 -16,176 -13,265 6,153 -84,248 -240,254 -34,1 -69,-2 -102,-9 -138,-29 -136,-38 -157,-176 -81,-534 -65,-1071 -66,-1608 0,-249 36,-490 95,-730 19,-76 59,-147 89,-221z"/>
  <path class="fil50" d="M18926 7958c1,293 1,586 4,878 1,77 10,154 17,232 4,43 -9,60 -56,63 -148,8 -218,-59 -243,-209 -51,-307 -11,-612 5,-918 1,-10 8,-21 13,-31 86,-8 172,-36 260,-15z"/>
  <path class="fil27" d="M20829 7629c29,111 -22,230 -145,289 -207,100 -425,158 -658,107 -123,-27 -221,-100 -297,-195 -91,-114 -59,-369 48,-456 38,19 44,58 54,93 63,211 152,276 373,278 120,1 239,-19 360,-22 96,-3 180,-50 264,-93z"/>
  <path class="fil7" d="M20829 7629c-57,92 -156,104 -248,114 -139,15 -280,19 -420,22 -184,3 -294,-83 -344,-260 -12,-44 -27,-88 -40,-131 105,-27 211,-46 319,-58 46,-4 38,32 43,58 -1,23 -11,44 -17,66 -11,45 7,77 51,83 144,19 288,42 435,29 18,-2 32,-13 44,-25 29,-17 5,-87 69,-68 64,40 96,100 109,172z"/>
  <path class="fil51" d="M18926 7958c-76,33 -163,0 -238,45 -13,8 -17,-18 -22,-30 3,-23 4,-45 8,-68 24,-144 96,-190 240,-159 35,8 29,30 27,51 -4,54 -10,107 -15,161z"/>
  <path class="fil30" d="M20119 7388c-2,-26 7,-56 -24,-72 228,-42 440,-10 624,142 -53,7 -11,70 -49,86 -33,-77 -92,-112 -174,-134 -126,-34 -250,-35 -377,-21z"/>
  <path class="fil15" d="M20119 7388c110,-54 225,-36 335,-10 47,11 100,8 144,41 43,32 83,61 72,123 -19,16 -32,38 -63,36 -137,-9 -276,-9 -412,-25 -110,-13 -126,-61 -75,-166z"/>
 </g>
</svg>
