<?xml version="1.0" encoding="utf-8"?>
<!-- Generator: Adobe Illustrator 24.3.0, SVG Export Plug-In . SVG Version: 6.00 Build 0)  -->
<svg version="1.1" id="Layer_1" xmlns="http://www.w3.org/2000/svg" xmlns:xlink="http://www.w3.org/1999/xlink" x="0px" y="0px"
	 viewBox="0 0 1124.47 665.61" style="enable-background:new 0 0 1124.47 665.61;" xml:space="preserve">
<style type="text/css">
	.st0{fill:#0A0B0D;}
	.st1{fill:#162020;}
	.st2{fill:#E4E5E5;}
	.st3{fill:#7898EE;}
	.st4{fill:#2A5B68;}
	.st5{fill:#97E2E5;}
	.st6{fill:#68FC03;}
	.st7{fill:#2EE904;}
	.st8{fill:#68FDCA;}
	.st9{fill:#3ED4C3;}
	.st10{fill:#ED5F02;}
	.st11{fill:#A71603;}
	.st12{fill:#560131;}
	.st13{fill:#169A03;}
	.st14{fill:#0A28FA;}
	.st15{fill:#010BB0;}
	.st16{fill:#D32FFC;}
	.st17{fill:#8511F8;}
	.st18{fill:#F7FEFD;}
</style>
<g>
	<path class="st0" d="M62.06,503.4c-0.26-3.34-0.51-6.68-0.78-10.02c-0.18-2.18-0.83-2.79-3.04-2.7c-6.6,0.29-10.95-3.77-12.21-9.56
		c-0.57-2.64-0.94-5.37-0.94-8.06c0-7.1,0.23-14.2,0.4-21.3c0.07-2.79,0.04-5.6,0.39-8.36c0.64-4.97,3.25-7.62,8.17-8.75
		c1.4-0.32,2.81-0.58,4.21-0.9c2.68-0.61,3.05-1.07,3.56-3.77c0.42-2.27,0.82-4.56,1.42-6.78c1.07-3.97,2.87-7.61,5.5-10.79
		c3.23-3.9,7.25-6.11,12.46-6.03c3.59,0.05,7.18-0.23,10.78-0.23c5.03-0.01,9.8,1.22,14.31,3.43c5.13,2.51,8.94,6.36,11.2,11.65
		c0.67,1.57,1.6,2.86,2.91,4c4.02,3.49,5.91,7.92,6.02,13.28c0.09,4.13-0.59,7.91-3.06,11.3c-1.12,1.55-1.06,3.38-0.64,5.08
		c1.93,7.8,0.95,15.54-0.25,23.29c-0.91,5.83-1.69,11.69-2.77,17.48c-0.46,2.47-1.55,4.82-2.35,7.23c-0.65,0.42-1.42,0.72-1.91,1.27
		c-1.38,1.56-3.06,2.13-5.08,2.09c-2.38-0.05-4.77-0.17-7.14,0.03c-3.24,0.28-5.21-1.32-6.74-3.9c-0.43-0.72-1.12-1.28-1.68-1.91
		c-0.33-2.18-0.66-4.36-1.01-6.54c-0.09-0.54-0.1-1.18-0.41-1.58c-0.28-0.37-0.94-0.7-1.36-0.63c-0.38,0.06-0.81,0.64-0.96,1.07
		c-0.17,0.5-0.03,1.1-0.07,1.65c-0.12,1.97-0.26,3.94-0.39,5.91c-0.36,0.95-0.66,1.92-1.09,2.83c-0.64,1.35-1.11,2.93-2.14,3.91
		c-3.05,2.93-6.97,4.23-11.09,4.21c-3.07-0.02-6.13-0.83-9-2.09c-1.92-0.84-3.3-2.17-4.14-4.09
		C62.85,504.53,62.42,503.98,62.06,503.4z M87.5,429.06c-0.31,0.23-0.7,0.39-0.91,0.69c-1.91,2.73-2.56,5.8-2.15,9.07
		c0.27,2.1,1.19,3.89,2.7,5.46c3.45,3.59,7.66,5.26,12.58,5.46c5.99,0.25,11.5-1.45,16.73-4.13c1.3-0.66,2.49-1.78,3.35-2.97
		c1.13-1.54,1.82-3.37,0.91-5.36c0.09-2.83-1.44-4.82-3.49-6.47c-2.21-1.78-4.78-2.85-7.5-3.6c-7.48-2.08-14.71-0.43-21.91,1.5
		C87.69,428.76,87.6,428.95,87.5,429.06z M60.34,447.34c0.28-2.17,0.56-4.35,0.83-6.44c-4.26-1.86-7.48-0.38-8.42,3.74
		c-0.3,1.31-0.36,2.66-0.54,4c-0.14,0.44-0.37,0.88-0.4,1.33c-0.3,4.86-0.65,9.71-0.81,14.58c-0.17,4.87-0.04,9.75,1.08,14.52
		c0.91,3.9,3.41,5.56,7.38,5.17c1.46-0.14,1.8-0.45,1.74-1.98c-0.07-1.75-0.35-3.5-0.38-5.25c-0.17-8.61-0.28-17.23-0.41-25.84
		C60.39,449.88,60.36,448.61,60.34,447.34z M71.85,419.43c-0.89,2.03-2.1,3.98-2.61,6.1c-0.95,3.94-1.74,7.96-2.16,11.99
		c-0.5,4.75-0.63,9.54-0.75,14.32c-0.32,12.61-0.09,25.21,0.82,37.78c0.27,3.73,0.81,7.45,1.23,11.17c0.25,2.25,1.56,3.55,3.67,4.22
		c2.44,0.77,4.89,0.77,7.3,0c2.57-0.81,4.2-2.56,4.56-5.3c0.14-1.02,0.08-2.06,0.14-3.09c0.16-2.78,0.15-5.59,0.56-8.33
		c0.47-3.21,1.65-3.89,4.79-3.39c5.53,0.88,11.08,1.36,16.69,0.81c0.57-0.06,1.16-0.01,1.73-0.01c0.09,0.2,0.19,0.41,0.28,0.61
		c-0.52,0.37-1.02,0.76-1.55,1.09c-1.89,1.17-3.79,2.31-6.03,3.67c-0.13,1.96-0.44,4.26-0.4,6.55c0.04,2.3,1.28,3.5,3.55,3.78
		c1.34,0.16,2.71,0.13,4.06,0.11c4.62-0.05,6.04-1.62,5.58-6.18c-0.02-0.16-0.04-0.32-0.07-0.47c-0.3-2-0.04-3.92,0.48-5.89
		c2.59-9.85,3.98-19.85,3.09-30.07c-0.06-0.7-0.29-1.39-0.44-2.09c-0.02-1.4-0.04-2.79-0.07-4.55c-2.27,0.54-4.2,0.96-6.1,1.47
		c-4.96,1.34-9.97,2.15-15.14,1.74c-8.2-0.64-13.04-4.63-15.17-12.58c-1.05-3.92-1.1-7.88-0.56-11.87c0.7-5.11,2.49-6.98,7.56-8.2
		c5.48-1.32,11.03-1.66,16.64-1.42c1.55,0.07,3.11-0.03,4.67-0.04c-0.02-0.46,0.03-0.66-0.04-0.75c-3.47-4.25-7.87-7.09-13.33-7.71
		c-4.27-0.48-8.61-0.61-12.91-0.46C77.22,412.6,74.04,415.42,71.85,419.43z"/>
	<path class="st0" d="M338.28,503.36c-0.28-3.42-0.53-6.84-0.85-10.25c-0.18-1.92-0.86-2.58-2.79-2.44
		c-6.73,0.46-11.52-3.89-12.63-10.51c-1.17-6.97-1.02-13.99-0.68-21.01c0.2-4.22,0.28-8.45,0.5-12.68c0.09-1.66,0.24-3.35,0.67-4.95
		c0.94-3.53,3.31-5.75,6.85-6.65c1.93-0.49,3.88-0.93,5.83-1.31c1.63-0.32,2.43-1.28,2.73-2.89c0.53-2.82,1.06-5.64,1.83-8.4
		c1.06-3.81,2.93-7.24,5.53-10.24c3.13-3.62,6.99-5.68,11.91-5.65c3.75,0.02,7.5-0.25,11.25-0.22c5.11,0.03,9.94,1.33,14.48,3.65
		c4.87,2.49,8.48,6.2,10.68,11.21c0.75,1.72,1.76,3.12,3.19,4.38c3.84,3.4,5.7,7.69,5.82,12.88c0.1,4.29-0.56,8.22-3.14,11.76
		c-1,1.37-0.99,3.07-0.59,4.62c1.8,6.96,1.26,13.94,0.21,20.91c-1.05,6.94-2.07,13.88-3.3,20.79c-0.37,2.07-1.4,4.02-2.13,6.02
		c-0.44,0.32-1.02,0.55-1.3,0.97c-1.49,2.21-3.62,2.93-6.16,2.9c-2.31-0.03-4.62-0.06-6.93,0.01c-2.71,0.09-4.75-0.93-6.2-3.25
		c-0.57-0.92-1.41-1.68-2.12-2.51c-0.34-2.36-0.7-4.71-1-7.07c-0.12-0.98-0.46-1.77-1.55-1.75c-1.23,0.02-1.21,1-1.24,1.91
		c-0.06,2.31-0.16,4.62-0.24,6.93c-1.4,0.77-1.18,2.32-1.72,3.51c-0.48,1.06-0.89,2.24-1.67,3.05c-2.16,2.25-4.99,3.53-8.02,3.87
		c-4.22,0.48-8.41,0.1-12.32-1.88c-1.91-0.97-3.41-2.25-3.97-4.44C339.1,504.16,338.6,503.79,338.28,503.36z M396.86,435.8
		c-0.68-2.42-2.13-4.36-4.27-5.56c-2.14-1.2-4.4-2.29-6.74-2.98c-7.45-2.21-14.69-0.44-21.89,1.49c-0.12,0.03-0.2,0.23-0.3,0.35
		c-0.21,0.09-0.51,0.12-0.63,0.28c-2.91,3.81-3.76,11.1,0.44,15.13c3.39,3.25,7.31,4.92,11.95,5.23c6.09,0.42,11.63-1.44,17.03-3.91
		c2.26-1.03,3.89-2.77,4.56-5.23c0.26-0.96,0.67-2-0.29-2.86c0.09-0.46,0.18-0.92,0.27-1.39
		C396.95,436.17,396.91,435.98,396.86,435.8z M328.58,447.71c-0.17,0.93-0.42,1.85-0.48,2.78c-0.2,3.18-0.07,6.4-0.54,9.54
		c-0.91,6.09,0.01,12.11,0.43,18.14c0.24,3.39,2.63,5.68,5.95,6.27c1.66,0.3,2.86-0.42,3.22-2.05c0.17-0.77,0.18-1.59,0.14-2.38
		c-0.09-1.83-0.36-3.66-0.38-5.49c-0.1-8.29-0.13-16.59-0.2-24.88c-0.01-0.63-0.13-1.25-0.2-1.88c0.24-1.87,0.47-3.75,0.74-5.62
		c0.17-1.22-0.48-1.71-1.55-1.93c-2.85-0.59-5.64,0.93-6.54,3.77C328.77,445.17,328.75,446.47,328.58,447.71z M392.56,456.4
		c-0.2-1.4,0.66-3.03-0.8-4.21c-1.41,0.47-2.73,1.05-4.11,1.33c-3.43,0.71-6.89,1.31-10.35,1.89c-4.03,0.68-7.93,0.13-11.74-1.33
		c-4.66-1.78-7.73-5-9.03-9.8c-1.22-4.51-1.39-9.11-0.98-13.75c0.34-3.83,2.6-6.21,5.96-7.33c2.84-0.94,5.89-1.46,8.89-1.69
		c3.65-0.28,7.34-0.05,11.01-0.08c0.97-0.01,2.03,0.24,3.28-0.79c-0.58-0.39-1.17-0.6-1.47-1.02c-2.96-4.25-7.37-6.08-12.19-6.76
		c-3.85-0.54-7.8-0.26-11.7-0.5c-5.35-0.34-8.5,2.94-11.39,6.69c-0.17,0.21-0.08,0.62-0.12,0.93c-3.87,7.14-4.96,15.01-5.26,22.88
		c-0.4,10.36-0.34,20.75,0,31.11c0.3,9.16,1.29,18.29,1.92,27.45c0.11,1.57,0.88,2.47,2.24,3.06c3.81,1.66,7.41,1.32,10.96-0.85
		c1.83-1.12,2.71-2.56,2.63-4.71c-0.09-2.47-0.11-4.95-0.01-7.42c0.06-1.34,0.29-2.7,0.69-3.98c0.74-2.38,1.84-2.94,4.35-2.65
		c5.71,0.65,11.41,1.5,17.18,0.72c0.54-0.07,1.11,0.12,1.66,0.18c0.04,0.17,0.07,0.35,0.11,0.52c-1.38,0.92-2.73,1.88-4.13,2.77
		c-3.69,2.35-5.01,6.72-3.24,10.68c0.41,0.9,1.05,1.51,1.97,1.52c2.71,0.03,5.42,0.07,8.11-0.18c1.75-0.16,2.6-1.27,2.38-2.99
		c-0.55-4.3,0.26-8.45,1.29-12.54c2.14-8.52,2.73-17.16,2.31-25.89C392.94,458.58,392.71,457.49,392.56,456.4z"/>
	<path class="st0" d="M476.87,502.91c-0.24-3.34-0.43-6.69-0.73-10.02c-0.21-2.25-0.84-2.82-3.05-2.7
		c-6.21,0.33-11.2-3.5-12.12-10.09c-0.45-3.22-0.84-6.49-0.83-9.74c0.04-8.45,0.3-16.9,0.51-25.36c0.03-1.19,0.17-2.39,0.37-3.57
		c0.57-3.38,2.44-5.66,5.79-6.6c1.3-0.36,2.64-0.62,3.97-0.87c4.22-0.76,6.04-2.55,6.44-6.77c0.49-5.15,2.37-9.73,5.29-13.92
		c3.34-4.79,7.91-7.22,13.79-7.16c4.47,0.04,8.95-0.11,13.41,0.04c7.92,0.26,14.59,3.3,19.5,9.6c3.23,4.15,6.17,8.53,9.19,12.84
		c1.52,2.17,2.57,4.58,3.09,7.2c0.87,4.38-0.1,8.43-2.5,12.1c-1.4,2.14-1.96,4.33-1.37,6.8c1.73,7.31,0.96,14.58-0.18,21.87
		c-0.94,5.99-1.86,11.97-2.73,17.97c-0.43,2.95-1.37,5.71-2.75,8.34c-0.54,0.29-1.18,0.48-1.62,0.89c-1.53,1.44-3.28,2.11-5.4,2.03
		c-2.54-0.1-5.09-0.03-7.63-0.01c-2.73,0.02-4.67-1.18-5.94-3.61c-0.42-0.81-1.11-1.47-1.68-2.21c-0.38-2.27-0.79-4.53-1.12-6.8
		c-0.14-1-0.26-2.01-1.54-1.99c-1.26,0.02-1.15,1.06-1.18,1.94c-0.1,2.3-0.2,4.61-0.31,6.91c-0.33,0.59-0.74,1.15-0.99,1.77
		c-0.43,1.1-0.52,2.42-1.18,3.34c-2.3,3.21-5.67,4.9-9.47,5.38c-3.65,0.46-7.28-0.03-10.78-1.38c-2.7-1.03-4.68-2.6-5.45-5.48
		C477.59,503.35,477.15,503.15,476.87,502.91z M502.41,428.62c-1-0.15-1.51,0.54-1.79,1.27c-0.53,1.4-1.14,2.84-1.29,4.31
		c-0.78,7.37,4.68,13.28,11.39,14.58c7.6,1.46,14.58-0.42,21.21-3.92c3.1-1.63,4.3-4.68,3.51-7.82c0.05-0.31,0.19-0.63,0.15-0.92
		c-0.45-3.15-2.36-5.26-4.98-6.84c-3.91-2.35-8.19-3.37-12.72-3.51c-5.07-0.15-9.92,1.16-14.79,2.29
		C502.84,428.11,502.64,428.42,502.41,428.62z M466.93,448.25c-0.77,7.52-1.33,15.06-0.93,22.63c0.13,2.38,0.4,4.76,0.65,7.13
		c0.27,2.53,1.71,4.2,3.98,5.25c3.76,1.74,5.43,0.65,5.26-3.48c-0.13-3.1-0.45-6.2-0.49-9.3c-0.09-6.85-0.05-13.7-0.07-20.55
		c0-0.87-0.08-1.74-0.12-2.61c0.25-2.34,0.5-4.68,0.74-6.93c-4.67-1.78-7.43-0.34-8.39,4.13C467.3,445.74,467.14,447,466.93,448.25z
		 M486.25,419.98c-0.72,1.58-1.7,3.1-2.11,4.75c-1.68,6.74-2.95,13.59-3,20.55c-0.12,15-0.34,30,0.94,44.97
		c0.27,3.18,0.61,6.35,1.04,9.51c0.41,3,1.74,4.36,4.69,4.97c2.14,0.44,4.28,0.41,6.39-0.25c2.83-0.89,4.34-2.86,4.65-5.75
		c0.1-0.95,0.01-1.91,0.05-2.87c0.13-2.71,0.2-5.42,0.45-8.11c0.23-2.55,1.38-3.48,3.95-3.46c0.56,0,1.12,0.08,1.66,0.17
		c5.21,0.91,10.45,1.29,15.73,0.75c0.65-0.07,1.31-0.01,2.37-0.01c-2.24,2.56-4.71,3.8-7.25,4.85c-0.79,2.68-1.05,5.46-0.72,7.62
		c0.33,2.16,1.26,3.15,3.43,3.27c1.91,0.11,3.84,0.1,5.74-0.05c3.21-0.25,4.06-1.21,3.83-4.45c-0.27-3.71,0.17-7.35,1.12-10.9
		c1.44-5.42,2.35-10.93,2.5-16.52c0.1-3.72-0.21-7.46-0.33-11.19c-0.02-0.31-0.03-0.62-0.05-0.93c-0.01-0.16-0.02-0.32-0.03-0.48
		c-0.16-1.46,0.43-3.01-0.59-4.59c-1.92,0.47-3.84,0.91-5.75,1.43c-4.8,1.3-9.65,2.07-14.65,1.73c-8.73-0.59-14-5.12-15.8-13.63
		c-0.79-3.72-0.7-7.46-0.31-11.19c0.46-4.41,2.56-6.68,6.89-7.76c5.61-1.4,11.3-1.93,17.08-1.57c1.69,0.1,3.39,0.02,5.59,0.02
		c-4.04-4.77-8.4-7.95-14.2-8.5c-3.88-0.36-7.8-0.35-11.71-0.45C492.82,411.78,487.99,415.17,486.25,419.98z"/>
	<path class="st0" d="M477.49,374.55c-0.25-3.34-0.47-6.68-0.75-10.02c-0.16-1.95-0.85-2.61-2.84-2.89
		c-1.34-0.19-2.7-0.32-4.01-0.63c-4.55-1.07-7.5-3.89-8.39-8.48c-0.57-2.96-0.94-6.01-0.95-9.02c-0.02-6.62,0.23-13.24,0.41-19.86
		c0.08-3.1,0.03-6.24,0.44-9.3c0.66-4.91,3.24-7.53,8.01-8.61c1.39-0.32,2.81-0.57,4.22-0.71c2.21-0.22,3.3-0.96,3.54-3.13
		c0.48-4.33,2-8.35,3.43-12.41c1.81-5.16,5.61-8.44,10.28-10.81c1.29-0.65,2.91-0.87,4.39-0.9c5.35-0.1,10.72-0.32,16.04,0.03
		c7.78,0.5,14.25,3.79,18.95,10.19c3.07,4.18,6.13,8.36,9.12,12.59c0.68,0.96,1.17,2.09,1.56,3.2c1.17,3.31,1.17,6.79,0.73,10.17
		c-0.27,2.06-1.18,4.17-2.29,5.96c-1.23,1.99-1.72,3.97-1.19,6.14c1.88,7.71,0.96,15.37-0.23,23.05
		c-0.92,5.91-1.71,11.84-2.79,17.72c-0.46,2.47-1.54,4.83-2.33,7.23c-0.59,0.36-1.29,0.62-1.76,1.1c-1.61,1.65-3.49,2.38-5.8,2.27
		c-2.15-0.11-4.31-0.1-6.46,0c-3.14,0.14-5.31-1.24-6.86-3.89c-0.42-0.72-1.13-1.28-1.7-1.91c-0.36-2.41-0.71-4.83-1.07-7.24
		c-0.14-0.95-0.54-1.73-1.64-1.64c-1.06,0.09-1.05,0.95-1.08,1.78c-0.09,2.37-0.23,4.74-0.35,7.1c-1.31,0.53-1.21,1.87-1.37,2.86
		c-0.34,2.1-1.6,3.5-3.17,4.59c-6.36,4.42-12.97,4.01-19.66,0.78c-1.64-0.79-2.76-2.11-3.44-3.82
		C478.27,375.48,477.83,375.04,477.49,374.55z M536.16,308.42c0.19-2.27-0.84-4.03-2.48-5.43c-4.42-3.75-9.51-6.01-15.37-5.55
		c-4.76,0.37-9.47,1.29-14.2,2.02c-0.41,0.06-0.76,0.5-1.14,0.76c-0.22,0.08-0.51,0.1-0.64,0.26c-2.84,3.24-3.8,10.66-0.05,14.58
		c3.64,3.8,7.98,5.67,13.18,5.81c5.9,0.17,11.36-1.48,16.51-4.16c1.29-0.67,2.51-1.78,3.34-2.99
		C536.35,312.19,537.26,310.4,536.16,308.42z M467.79,319.35c-0.18,0.6-0.48,1.2-0.51,1.8c-0.34,7.78-1.32,15.56-0.55,23.36
		c0.2,1.97,0.46,3.96,0.93,5.88c0.87,3.55,2.96,5.05,6.56,4.98c2.12-0.04,2.64-0.65,2.42-2.8c-0.14-1.34-0.35-2.69-0.37-4.04
		c-0.15-8.2-0.25-16.41-0.36-24.61c-0.03-1.83-0.07-3.66-0.1-5.49c0.2-1.74,0.4-3.47,0.61-5.21c0.13-1.11-0.49-1.55-1.48-1.78
		c-3.28-0.74-5.75,0.65-6.58,3.89C468.02,316.64,467.97,318.02,467.79,319.35z M487.16,291.44c-0.74,1.47-1.74,2.87-2.17,4.43
		c-1.94,6.93-3.17,14.03-3.28,21.21c-0.25,16.1-0.42,32.22,1.32,48.27c0.27,2.53,0.7,5.05,1.12,7.56c0.29,1.75,1.25,2.95,3.12,3.12
		c2.13,0.19,4.29,0.5,6.41,0.38c2.28-0.13,4.16-1.38,4.99-3.57c0.52-1.37,0.61-2.92,0.74-4.41c0.27-2.93,0.2-5.91,0.73-8.79
		c0.62-3.4,2.12-4.12,5.49-3.56c5.27,0.87,10.57,1.52,15.93,0.77c0.64-0.09,1.32,0.08,2.16,0.14c-1.48,1.82-2.18,2.38-4.34,3.23
		c-1.77,0.7-2.96,1.9-3.36,3.75c-0.25,1.16-0.44,2.36-0.46,3.54c-0.04,3.29,1.68,5.06,4.92,5.16c1.35,0.04,2.71,0,4.07-0.06
		c3.13-0.16,4.04-1.2,4.04-4.33c0-2.14-0.04-4.32,0.3-6.43c1.01-6.28,2.97-12.39,3.26-18.82c0.24-5.34,0.61-10.67-0.35-15.97
		c-0.03-1.07-0.06-2.14-0.1-3.45c-1.19,0.19-2.04,0.29-2.88,0.48c-3.42,0.76-6.81,1.69-10.26,2.3c-4.37,0.78-8.73,0.55-13.01-0.78
		c-4.4-1.37-7.41-4.17-9.15-8.45c-2.04-5.03-2.24-10.22-1.53-15.51c0.58-4.34,2.35-6.37,6.55-7.46c4.97-1.29,10-1.97,15.15-1.68
		c1.75,0.1,3.51,0.09,5.26,0.05c0.57-0.01,1.14-0.28,2-0.5c-3.67-4.51-7.99-7.4-13.45-8c-4.35-0.48-8.76-0.52-13.14-0.5
		C493.02,283.57,488.16,287.53,487.16,291.44z"/>
	<path class="st0" d="M61.74,374.46c-0.28-3.26-0.54-6.52-0.86-9.77c-0.18-1.81-1.09-2.77-2.82-2.47
		c-6.03,1.03-11.72-3.63-12.56-11.25c-0.84-7.63-0.71-15.29-0.27-22.94c0.18-3.19,0.15-6.38,0.23-9.57
		c0.03-1.12-0.01-2.24,0.13-3.35c0.6-4.75,2.99-7.5,7.64-8.7c1.61-0.42,3.27-0.67,4.93-0.83c2.39-0.23,2.7-0.54,3.21-2.99
		c0.7-3.35,1.33-6.73,2.36-9.99c1.21-3.83,3.24-7.28,6.14-10.14c2.72-2.68,5.93-4.27,9.81-4.38c4.07-0.11,8.14-0.29,12.21-0.3
		c5.03,0,9.79,1.29,14.28,3.53c4.96,2.48,8.67,6.23,10.87,11.34c0.78,1.81,1.91,3.22,3.37,4.54c3.69,3.3,5.47,7.48,5.65,12.48
		c0.15,4.37-0.5,8.4-3.13,12c-0.95,1.3-1.01,2.91-0.62,4.39c2.11,8.03,1.06,16-0.19,23.99c-0.93,5.91-1.83,11.82-2.78,17.73
		c-0.35,2.21-0.88,4.38-2.21,6.25c-0.68,0.54-1.41,1.02-2.01,1.63c-1.54,1.57-3.33,2.35-5.57,2.25c-2.31-0.1-4.63-0.05-6.94-0.01
		c-3.24,0.05-5.41-1.46-6.75-4.37c-0.32-0.69-0.9-1.26-1.36-1.88c-0.36-2.01-0.79-4.01-1.04-6.03c-0.21-1.65-0.71-2.55-1.69-2.36
		c-1.3,0.25-1.1,1.33-1.12,2.27c-0.07,2.21-0.15,4.42-0.22,6.64c-0.43,0.71-0.91,1.4-1.29,2.14c-0.74,1.47-1.05,3.39-2.19,4.38
		c-2.65,2.31-5.79,3.83-9.47,4.02c-3.49,0.19-6.8-0.45-10.01-1.74c-2.29-0.92-4.17-2.23-4.79-4.84
		C62.51,375.52,62.05,375.01,61.74,374.46z M120.44,307.98c-0.04-0.19-0.08-0.37-0.12-0.56c-0.71-2.59-2.39-4.42-4.6-5.84
		c-3.78-2.43-7.98-3.45-12.4-3.69c-5.31-0.29-10.38,1.08-15.48,2.29c-0.27,0.06-0.48,0.36-0.72,0.55c-0.54,0.54-1.27,0.99-1.59,1.64
		c-1.64,3.36-1.77,6.89-0.79,10.45c0.22,0.81,0.71,1.61,1.26,2.26c3.49,4.12,7.99,6.08,13.38,6.3c6.07,0.24,11.61-1.55,16.95-4.17
		c2.17-1.07,3.62-2.86,4.2-5.23c0.22-0.88,0.56-1.86-0.37-2.62C120.26,308.9,120.35,308.44,120.44,307.98z M60.14,318.81
		c0.19-1.5,0.44-2.99,0.56-4.5c0.11-1.52-0.3-2.01-1.74-2.37c-2.59-0.66-5.39,0.66-6.16,3.21c-0.49,1.64-0.46,3.44-0.66,5.16
		c-0.15,0.36-0.41,0.7-0.44,1.07c-0.33,3.55-0.84,7.1-0.86,10.66c-0.04,5.56,0.17,11.12,0.44,16.67c0.18,3.81,2.54,6.49,6.08,7.32
		c1.6,0.38,2.66-0.13,3.06-1.75c0.28-1.13,0.32-2.35,0.29-3.53c-0.04-1.74-0.35-3.47-0.36-5.21c-0.05-7.48-0.02-14.96-0.04-22.45
		C60.29,321.67,60.2,320.24,60.14,318.81z M115.96,327.56c-0.03-1.08-0.06-2.15-0.1-3.49c-1.17,0.15-2.02,0.2-2.85,0.39
		c-1.16,0.27-2.29,0.71-3.45,0.97c-5.29,1.15-10.56,2.63-16.05,1.63c-7.93-1.44-12.42-5.41-14.06-13.01
		c-0.78-3.62-0.77-7.25-0.49-10.93c0.36-4.75,2.34-7.45,6.92-8.49c4.12-0.93,8.27-1.73,12.54-1.58c2.31,0.08,4.63,0.08,6.94,0.02
		c0.64-0.02,1.26-0.42,1.89-0.65c-0.31-0.6-0.49-1.34-0.94-1.79c-2.92-2.93-6.24-5.38-10.46-5.82c-4.82-0.5-9.69-0.78-14.54-0.77
		c-3.95,0.01-8.75,3.94-9.94,7.56c-0.11,0.11-0.26,0.21-0.33,0.34c-3.18,6.48-4.24,13.51-4.87,20.55
		c-0.54,5.94-0.49,11.93-0.52,17.9c-0.02,4.45,0.23,8.91,0.38,13.36c0.13,3.82,0.22,7.64,0.49,11.45
		c0.41,5.86,1.01,11.71,1.42,17.58c0.12,1.67,0.87,2.55,2.31,3.25c2.59,1.26,5.33,1.17,7.98,0.75c2.56-0.4,4.56-2,5.09-4.75
		c0.31-1.63,0.34-3.31,0.45-4.97c0.18-2.62,0.29-5.24,0.51-7.85c0.12-1.4,0.89-2.15,2.35-2.59c2.15-0.64,4.09,0.23,6.13,0.36
		c3.47,0.22,6.9,1.15,10.44,0.42c1.47-0.3,3.06-0.05,4.9-0.05c-1.29,1.77-2.66,2.76-4.35,3.39c-1.42,0.53-3.01,1.12-3.36,2.78
		c-0.41,1.93-0.72,3.93-0.64,5.89c0.06,1.6,0.86,3.39,2.71,3.5c2.75,0.16,5.54-0.1,8.3-0.34c0.57-0.05,1.4-0.71,1.56-1.26
		c0.38-1.27,0.75-2.71,0.53-3.96c-0.42-2.36-0.13-4.57,0.45-6.83c1.72-6.71,3.24-13.46,3.15-20.45c-0.01-0.47,0.11-0.95,0.18-1.42
		c0.57-3.67-0.33-7.26-0.54-10.89L115.96,327.56z"/>
	<path class="st0" d="M334.53,374.53c-0.23-3.18-0.43-6.37-0.72-9.54c-0.21-2.29-0.84-2.76-3.28-2.71
		c-6.15,0.12-10.58-3.34-11.77-9.37c-0.51-2.57-0.92-5.2-0.95-7.8c-0.07-5.26,0.15-10.52,0.25-15.78c0.07-3.59,0.11-7.18,0.23-10.77
		c0.05-1.59,0.11-3.2,0.41-4.75c0.65-3.38,2.57-5.86,5.9-6.92c2.03-0.65,4.16-1.05,6.28-1.31c2.51-0.3,2.79-0.41,3.31-2.88
		c0.58-2.81,1.01-5.66,1.79-8.41c1.12-3.95,2.97-7.56,5.67-10.7c3.01-3.5,6.76-5.5,11.46-5.58c3.75-0.06,7.5-0.23,11.25-0.26
		c4.87-0.04,9.49,1.12,13.88,3.16c5.43,2.51,9.43,6.49,11.8,12c0.68,1.58,1.62,2.84,2.93,3.98c3.87,3.37,5.98,7.63,5.85,12.83
		c-0.05,2.22-0.06,4.48-0.53,6.63c-0.37,1.66-1.33,3.22-2.2,4.73c-0.83,1.44-1.4,2.93-0.98,4.55c2.24,8.67,1.02,17.27-0.37,25.87
		c-0.91,5.67-1.69,11.36-2.74,17c-0.35,1.91-1.34,3.7-2.04,5.55c-0.47,0.43-0.97,0.82-1.39,1.29c-1.64,1.83-3.63,2.7-6.13,2.57
		c-2.46-0.13-4.93-0.04-7.4-0.02c-2.74,0.02-4.68-1.18-5.95-3.62c-0.42-0.81-1.11-1.47-1.68-2.21c-0.39-2.16-0.78-4.33-1.15-6.49
		c-0.07-0.39-0.03-0.79-0.12-1.17c-0.18-0.81-0.8-1.31-1.53-1.09c-0.44,0.13-0.93,0.82-0.99,1.32c-0.16,1.24-0.12,2.52-0.11,3.78
		c0.01,1.3,0.08,2.6,0.12,3.91c-1.15,0.32-1.57,1.16-1.81,2.26c-0.23,1.07-0.42,2.29-1.07,3.08c-2.42,2.97-5.77,4.5-9.48,4.96
		c-3.16,0.39-6.37,0.12-9.41-0.97c-3.07-1.11-5.86-2.58-6.54-6.25C335.23,375.06,334.79,374.81,334.53,374.53z M393.37,308.38
		c-0.45-2.97-2.17-5.07-4.6-6.67c-2.63-1.74-5.54-2.75-8.62-3.36c-6.79-1.34-13.28,0.3-19.78,1.92c-1.68,0.32-2.26,1.73-2.71,3.04
		c-1.55,4.57-0.82,8.81,2.24,12.57c3.1,3.8,7.32,5.21,12.04,5.45c5.46,0.28,10.56-1.12,15.52-3.3
		C392.18,315.96,393.79,313.49,393.37,308.38z M324.84,318.48c-0.14,0.84-0.34,1.68-0.4,2.53c-0.1,1.27-0.04,2.55-0.15,3.81
		c-0.24,2.76-0.75,5.51-0.77,8.27c-0.03,4.36,0.2,8.73,0.46,13.08c0.11,1.8,0.41,3.63,0.9,5.36c0.81,2.85,2.9,4.28,5.85,4.3
		c2.6,0.03,2.85-0.17,2.79-2.87c-0.11-4.92-0.37-9.84-0.45-14.76c-0.09-6.29-0.06-12.58-0.09-18.87c0.19-1.73,0.45-3.46,0.53-5.2
		c0.08-1.67-0.36-2.09-2.01-2.32c-3.27-0.47-5.33,0.87-6.23,4.1C325.04,316.74,324.98,317.62,324.84,318.48z M388.95,325.76
		c-0.69-1.67-0.81-1.77-2.37-1.41c-2.72,0.61-5.43,1.25-8.14,1.92c-3.36,0.83-6.78,1.08-10.21,0.79c-3.1-0.26-6.17-0.89-8.92-2.46
		c-4.22-2.41-6.22-6.4-6.98-10.91c-0.57-3.35-0.55-6.81-0.57-10.23c-0.02-4.55,2.54-7.71,6.9-8.87c3.87-1.03,7.8-1.6,11.81-1.57
		c2.95,0.02,5.9,0.04,8.85,0.02c0.49,0,0.97-0.18,1.88-0.37c-1.35-1.35-2.34-2.49-3.47-3.46c-3.02-2.61-6.45-4.45-10.5-4.73
		c-3.73-0.26-7.48-0.32-11.23-0.49c-2.56-0.11-4.94,0.54-7.04,1.92c-2.28,1.49-4.47,3.14-4.63,6.25c-1.74,1.76-2.4,4.07-3.04,6.32
		c-2.04,7.26-2.2,14.78-2.42,22.22c-0.31,10.45-0.08,20.91-0.08,31.37c0,0.72-0.03,1.45,0.08,2.15c0.85,5.81,1.65,11.63,1.86,17.51
		c0.09,2.58,1.16,3.94,3.65,4.72c0.98,0.31,2.02,0.4,3.04,0.57c3.67,0.62,6.69-0.83,8.21-4.13c0.51-1.12,0.77-2.41,0.87-3.65
		c0.25-3.09,0.28-6.19,0.53-9.28c0.2-2.38,1.56-3.56,3.93-3.62c0.71-0.02,1.42,0.11,2.14,0.18c2.45,0.25,4.89,0.62,7.34,0.74
		c2.71,0.13,5.43,0.02,8.15,0.04c0.5,0,1,0.11,1.66,0.19c-1.17,1.95-2.88,3.06-4.57,3.69c-2.49,0.93-2.95,2.6-2.85,4.84
		c0.04,0.96-0.02,1.92,0.01,2.87c0.07,2.69,1.19,4,3.91,4.14c1.89,0.09,3.82-0.07,5.7-0.35c2.7-0.41,3.27-1.21,3.32-3.97
		c0.03-1.83-0.18-3.71,0.12-5.5c0.68-3.99,1.67-7.93,2.41-11.92c0.41-2.18,0.59-4.4,0.83-6.61c0.1-0.95,0.11-1.91,0.14-2.86
		c0.11-3.5,0.26-7,0.27-10.5c0-0.74-0.49-1.49-0.75-2.23c0.05-0.7,0.11-1.4,0.16-2.09C388.94,326.58,388.94,326.17,388.95,325.76z"
		/>
	<path class="st0" d="M200.78,374.52c-0.24-3.18-0.43-6.37-0.74-9.54c-0.22-2.27-1.07-2.95-3.3-2.77c-5,0.41-8.45-1.88-10.62-6.19
		c-0.77-1.54-1.3-3.29-1.52-5c-0.85-6.5-0.66-13.04-0.52-19.58c0.09-4.46,0.27-8.93,0.45-13.39c0.05-1.35,0.14-2.71,0.37-4.04
		c0.65-3.83,2.93-6.34,6.61-7.42c1.89-0.56,3.89-0.82,5.86-1.05c2.21-0.26,2.55-0.46,3.01-2.63c0.6-2.88,1.06-5.81,1.85-8.64
		c1.07-3.88,2.91-7.42,5.51-10.52c3.03-3.6,6.82-5.68,11.61-5.76c3.83-0.06,7.66-0.24,11.49-0.25c5.03-0.01,9.79,1.25,14.29,3.46
		c5.13,2.52,8.9,6.43,11.16,11.69c0.68,1.59,1.62,2.84,2.93,3.98c3.87,3.37,5.98,7.63,5.84,12.82c-0.06,2.29-0.23,4.6-0.56,6.87
		c-0.16,1.07-0.62,2.22-1.3,3.05c-2.29,2.8-2.07,5.79-1.31,9.05c1.22,5.2,0.88,10.48,0.12,15.71c-1.15,7.97-2.37,15.93-3.73,23.86
		c-0.34,1.99-1.37,3.86-2.08,5.79c-0.43,0.35-0.97,0.62-1.27,1.05c-1.49,2.1-3.61,2.77-6.03,2.78c-2.47,0.01-4.95-0.06-7.42,0.02
		c-2.88,0.1-4.86-1.11-6.14-3.67c-0.41-0.81-1.13-1.46-1.71-2.19c-0.34-1.47-0.75-2.92-1-4.4c-0.18-1.01-0.12-2.06-0.22-3.08
		c-0.09-0.83-0.64-1.3-1.44-1.3c-0.9,0.01-1.2,0.67-1.2,1.46c-0.03,2.53-0.04,5.06-0.06,7.59c-0.99,0.4-1.39,1.2-1.58,2.2
		c-0.15,0.77-0.34,1.55-0.67,2.26c-1.21,2.54-3.5,3.92-5.98,4.81c-5.5,1.96-10.94,1.58-16.1-1.2c-1.7-0.92-3.04-2.26-3.65-4.21
		C201.51,375.57,201.09,375.07,200.78,374.52z M226.21,300.74c-0.27,0.16-0.58,0.28-0.79,0.49c-2.4,2.5-3.11,10.21-0.71,13.29
		c3.37,4.31,7.74,6.43,13.1,6.81c5.72,0.4,11.02-1.15,16.17-3.42c3.56-1.57,6.56-4.12,5.64-9.56c-0.37-1.03-0.62-2.12-1.13-3.08
		c-0.99-1.89-2.65-3.14-4.46-4.18c-4.19-2.4-8.74-3.29-13.51-3.23c-4.65,0.05-9.12,1.24-13.59,2.32
		C226.66,300.25,226.45,300.55,226.21,300.74z M199.23,318.46c0.17-1.5,0.35-2.99,0.5-4.49c0.13-1.28-0.59-1.87-1.75-2.12
		c-2.62-0.56-5.04,0.61-5.94,3.16c-0.54,1.55-0.68,3.24-1.01,4.87c-0.12,0.29-0.33,0.56-0.35,0.86c-0.31,4.05-0.59,8.09-0.89,12.14
		c-0.44,5.91,0.18,11.77,0.95,17.61c0.4,3.03,2.7,5.13,5.79,5.42c2.56,0.25,3.34-0.43,3.25-3.06c-0.09-2.62-0.41-5.24-0.43-7.86
		C199.27,336.15,199.27,327.3,199.23,318.46z M254.52,324.16c-0.93,0.14-1.88,0.19-2.79,0.43c-5.81,1.48-11.63,3.09-17.69,2.53
		c-7.88-0.72-13.35-4.59-15.31-12.22c-1.19-4.63-1.06-9.33-0.41-14.02c0.37-2.69,2.06-4.46,4.42-5.56c1.21-0.57,2.56-0.87,3.87-1.21
		c5.09-1.3,10.28-1.24,15.48-1.15c1.04,0.02,2.08,0.07,3.11-0.01c0.41-0.03,1-0.32,1.11-0.64c0.12-0.33-0.13-0.93-0.41-1.24
		c-3.34-3.67-7.39-6.14-12.39-6.59c-4.05-0.37-8.13-0.42-12.2-0.59c-1.81-0.08-3.52,0.37-4.99,1.4c-1.56,1.09-2.99,2.36-4.48,3.56
		c-1.48,0.54-1.89,1.93-2.26,3.17c-2.56,8.58-4.67,17.23-4.61,26.28c0.08,11.33,0.03,22.67,0.05,34c0,0.87,0.08,1.75,0.18,2.62
		c0.29,2.53,0.63,5.05,0.9,7.58c0.33,3.17,0.56,6.35,0.91,9.51c0.27,2.5,1.6,4.17,4.18,4.53c1.73,0.24,3.51,0.53,5.21,0.34
		c1.35-0.15,2.77-0.79,3.92-1.57c1.91-1.32,2.46-3.38,2.52-5.67c0.08-3.18,0.13-6.39,0.63-9.52c0.54-3.42,2.05-4.17,5.43-3.66
		c2.75,0.42,5.54,0.71,8.31,0.85c2.47,0.12,4.95-0.06,7.42-0.08c0.67-0.01,1.46-0.32,2.01,0.89c-1.33,0.88-2.58,2.12-4.09,2.62
		c-2.44,0.82-3.33,2.44-3.47,4.77c-0.01,0.24-0.04,0.48-0.11,0.71c-0.61,1.99,0.32,3.77,0.83,5.58c0.14,0.5,0.86,1.14,1.36,1.18
		c2.93,0.26,5.91,0.57,8.77-0.4c1.43-0.49,2.12-1.69,1.89-3.22c-0.53-3.55,0.08-6.99,0.87-10.42c0.57-2.49,1.34-4.94,1.68-7.46
		c0.6-4.58,1.17-9.18,1.33-13.79c0.12-3.56-0.4-7.13-0.63-10.7c-0.02-0.8-0.05-1.6-0.07-2.4
		C254.84,324.45,254.68,324.31,254.52,324.16z"/>
	<path class="st0" d="M202.77,502.91c-0.23-3.26-0.44-6.52-0.72-9.78c-0.19-2.25-0.86-2.84-3.15-3.12c-0.87-0.11-1.75-0.19-2.6-0.37
		c-6.05-1.25-9.02-4.3-9.88-10.39c-0.38-2.68-0.61-5.4-0.6-8.1c0.03-6.06,0.26-12.12,0.4-18.17c0.06-2.47,0.04-4.95,0.16-7.42
		c0.07-1.42,0.21-2.88,0.56-4.25c0.93-3.61,3.22-6.01,6.88-6.92c1.77-0.44,3.58-0.73,5.39-0.97c1.86-0.24,2.7-0.82,3.17-2.69
		c0.25-1,0.21-2.08,0.51-3.06c1.17-3.8,2.08-7.74,3.74-11.32c2.37-5.13,6.43-8.64,12.1-9.97c0.76-0.18,1.57-0.24,2.35-0.25
		c4.79-0.02,9.58-0.14,14.37,0.02c8.47,0.28,15.39,3.68,20.4,10.65c2.89,4.01,5.78,8.02,8.72,11.99c1.48,2,2.17,4.28,2.39,6.67
		c0.21,2.29,0.18,4.63,0.02,6.93c-0.16,2.35-1.16,4.47-2.51,6.38c-1.07,1.53-1.52,3.21-1.07,4.98c2.21,8.76,0.89,17.43-0.51,26.11
		c-0.79,4.88-1.49,9.77-2.26,14.65c-0.41,2.6-0.86,5.2-2.44,7.42c-0.58,0.53-1.21,1.03-1.74,1.61c-1.37,1.51-3.12,2.16-5.08,2.21
		c-2.93,0.07-5.88,0.1-8.81-0.03c-0.96-0.04-2.07-0.45-2.78-1.06c-1.05-0.9-1.78-2.16-2.69-3.23c-0.45-0.53-0.99-0.98-1.49-1.46
		c-0.38-2.19-0.8-4.37-1.11-6.56c-0.23-1.64-0.59-2.32-1.55-2.24c-1.43,0.12-1.14,1.27-1.18,2.18c-0.11,2.22-0.21,4.45-0.31,6.67
		c-0.47,0.88-1.19,1.71-1.36,2.63c-0.41,2.3-1.67,3.88-3.55,5.09c-6.02,3.9-12.27,3.7-18.58,0.88c-2.16-0.96-3.87-2.47-4.4-4.98
		C203.5,503.36,203.04,503.15,202.77,502.91z M261.35,437.04c0.39-2.58-0.85-4.46-2.71-5.97c-4.29-3.5-9.21-5.59-14.77-5.21
		c-4.83,0.33-9.62,1.29-14.42,2.01c-0.41,0.06-0.76,0.49-1.14,0.75c-0.15,0.04-0.35,0.02-0.45,0.12c-2.91,2.87-3.82,9.88-1.45,13.16
		c2.53,3.51,5.84,6.02,10.26,6.88c7.59,1.47,14.54-0.47,21.17-3.93C260.93,443.23,262.12,440.19,261.35,437.04z M193.08,447.76
		c-0.13,0.28-0.37,0.55-0.38,0.84c-0.32,7.31-0.76,14.62-0.86,21.94c-0.04,2.75,0.51,5.55,1.12,8.25c0.79,3.51,3.01,5.03,6.58,4.96
		c2.12-0.04,2.51-0.45,2.39-2.57c-0.16-2.7-0.48-5.4-0.52-8.1c-0.11-7.88-0.1-15.76-0.15-23.64c-0.01-0.87-0.09-1.74-0.14-2.61
		c0.38-2.17,0.83-4.34,0.46-6.5c-4.33-1.56-6.76-0.43-7.99,3.72C193.24,445.23,193.24,446.52,193.08,447.76z M257.05,455.23
		c0-0.99,0-1.98,0-3.23c-1,0.12-1.7,0.14-2.37,0.3c-2.1,0.49-4.18,1.03-6.27,1.55c-4.13,1.02-8.29,1.56-12.56,1.17
		c-8.85-0.81-13.98-5.49-15.55-14.19c-0.63-3.49-0.6-6.99-0.2-10.49c0.53-4.67,2.45-6.75,7.02-7.91c5.46-1.39,10.99-1.88,16.61-1.56
		c1.19,0.07,2.39,0.07,3.59,0.02c0.49-0.02,0.97-0.26,1.66-0.46c-0.4-0.59-0.61-1.02-0.93-1.35c-3.56-3.79-7.8-6.37-13.07-6.76
		c-4.05-0.3-8.14-0.51-12.19-0.38c-4.72,0.16-7.89,2.94-10.12,6.93c-2.17,3.43-3.14,7.28-3.83,11.22c-0.25,1.41-0.33,2.87-0.79,4.21
		c-0.73,2.15-1.08,4.31-1.07,6.57c0.01,5.66-0.01,11.33-0.07,16.99c-0.12,11.1,0.09,22.18,1.11,33.24c0.31,3.33,0.77,6.66,1.1,9.99
		c0.14,1.44,0.9,2.29,2.18,2.86c2.68,1.19,5.44,1.35,8.19,0.54c4.41-1.29,5.39-2.89,5.35-7.43c-0.02-2.94,0.05-5.91,0.47-8.81
		c0.51-3.51,2.05-4.41,5.53-3.81c5.29,0.91,10.61,1.28,15.98,0.74c0.63-0.06,1.28,0.08,1.92,0.12c-0.5,0.88-1.03,1.36-1.62,1.72
		c-1.43,0.87-2.92,1.65-4.32,2.56c-0.55,0.36-1.23,0.92-1.33,1.49c-0.33,1.96-0.61,3.95-0.56,5.93c0.06,2.5,1.4,3.78,3.91,3.96
		c1.75,0.13,3.52,0.13,5.26,0c3.1-0.24,4.07-1.34,3.86-4.48c-0.24-3.63,0.11-7.2,1.07-10.67c1.48-5.34,2.25-10.77,2.59-16.28
		C257.89,464.76,257.95,459.97,257.05,455.23z"/>
	<path class="st0" d="M177.34,142.97c-0.75,4.8-1.51,9.61-2.26,14.41c-3.16,20.31-6.31,40.61-9.45,60.92
		c-0.5,3.23-0.93,6.47-1.35,9.71c-0.24,1.79-0.9,3.11-2.95,3.28c-2.55,0.21-3.93-0.94-3.64-3.52c0.58-5,1.31-9.98,2.09-14.96
		c3.7-23.39,7.45-46.77,11.16-70.16c0.92-5.78,1.71-11.58,2.61-17.36c0.19-1.2,0.38-2.5,0.99-3.5c0.48-0.79,1.6-1.6,2.46-1.62
		c0.87-0.02,2.24,0.71,2.56,1.47c1.31,3.1,2.65,6.26,3.33,9.54c1.4,6.78,2.29,13.66,3.55,20.47c3.45,18.72,6.98,37.43,10.57,56.62
		c0.58-3.94,1.1-7.56,1.64-11.16c3.63-23.95,7.25-47.9,10.91-71.85c0.2-1.33,0.49-2.71,1.05-3.92c1.11-2.4,3.49-2.96,5.3-1.05
		c1.13,1.19,2.07,2.96,2.27,4.57c2.91,22.68,5.71,45.38,8.46,68.08c1.32,10.94,2.48,21.91,3.72,32.87c0.08,0.68,0.12,1.36,0.2,2.03
		c0.17,1.58,0.15,3.08-1.86,3.46c-1.74,0.34-3.55-0.77-4.1-2.54c-0.24-0.77-0.34-1.6-0.43-2.41c-1.67-14.74-3.32-29.49-5.01-44.22
		c-1.61-14.06-3.28-28.12-4.93-42.18c-0.02-0.21-0.21-0.39-0.52-0.94c-0.37,1.12-0.79,1.95-0.92,2.83
		c-3.09,21.69-6.16,43.39-9.19,65.09c-0.92,6.61-1.69,13.23-2.6,19.84c-0.51,3.74-1.54,4.49-4.67,4c-1.82-0.28-2.52-1.38-2.82-2.99
		c-0.97-5.21-2-10.41-2.92-15.64c-3.93-22.38-7.83-44.76-11.76-67.14c-0.11-0.65-0.38-1.26-0.58-1.89
		C177.95,143.05,177.64,143.01,177.34,142.97z"/>
	<path class="st0" d="M148.13,197.89c0.62,9.15,1.24,18.38,1.87,27.6c0.03,0.4,0.19,0.8,0.22,1.2c0.28,2.97-0.29,3.64-3.29,3.62
		c-5.59-0.03-11.18-0.12-16.77-0.15c-1.35-0.01-2.72,0.08-4.05,0.27c-3.27,0.47-5.25-1.02-5.42-4.29
		c-0.26-5.16-0.44-10.33-0.71-15.49c-0.32-6.2-5.19-8.98-10.86-6.25c-1.83,0.89-2.32,2.37-2.34,4.34
		c-0.07,6.12-0.27,12.25-0.52,18.37c-0.13,3.15-0.47,3.43-3.65,3.48c-5.44,0.09-10.89,0.15-16.34,0.14c-2.69,0-4.54-2.02-4.59-5.15
		c-0.21-12.8-0.46-25.59-0.46-38.39c0-11.33,1.07-22.57,3.71-33.62c2.07-8.65,4.93-17,9.69-24.57c6.16-9.79,12.57-12.02,23.64-8.78
		c9.69,2.83,17.14,8.09,20.95,17.8c0.38,0.97,1.51,2.15,2.45,2.32c4.92,0.86,7.65,4.25,9.28,8.37c1.84,4.65,3.26,9.52,4.31,14.41
		c1.11,5.18,1.66,10.48,2.29,15.75c0.93,7.72-1.56,13.93-8.38,18.11C148.86,197.2,148.59,197.5,148.13,197.89z M143.24,223.93
		c0-3.56,0.09-6.65-0.01-9.72c-0.45-13.75-0.62-27.53-2.66-41.17c-1.41-9.41-3.07-18.79-4.92-28.13c-1.03-5.23-3.98-9.56-8.15-12.88
		c-5.16-4.11-11.25-6.04-17.72-6.7c-2.97-0.3-5.55,0.82-7.47,3.38c-3.6,4.81-6.69,9.91-8.65,15.58c-4,11.55-5.46,23.62-6.13,35.7
		c-0.74,13.32-0.56,26.69-0.78,40.04c-0.01,0.41-0.02,0.82,0,1.23c0.09,1.81,0.99,2.69,2.86,2.65c3.24-0.06,6.47-0.02,10.06-0.02
		c0.15-2.07,0.31-3.65,0.37-5.24c0.17-4.45,0.22-8.9,0.49-13.34c0.21-3.44,2.01-5.8,5.33-7.02c3.9-1.43,7.86-2.11,12.02-1.82
		c5.85,0.41,7.48,1.86,7.98,7.57c0.49,5.69,0.9,11.39,1.27,17.09c0.1,1.52,0.39,2.77,2.2,2.78
		C133.93,223.96,138.52,223.93,143.24,223.93z M147.86,190.38c3.39-2.52,4.16-5.34,4.1-8.33c-0.07-3.39-0.49-6.78-0.85-10.16
		c-0.79-7.34-2.36-14.49-5.72-21.14c-0.68-1.34-1.68-2.53-2.53-3.78c-0.33,0.15-0.66,0.29-0.99,0.44
		C145.96,161.16,146.34,175.43,147.86,190.38z"/>
	<path class="st0" d="M314.61,230.52c-1.29,0.21-2.22,0.34-3.13,0.52c-1.98,0.4-3.13-0.58-3.76-2.3c-0.42-1.15-0.74-2.33-1.03-3.52
		c-7.11-28.37-14.22-56.75-21.33-85.12c-0.28-1.13-0.68-2.23-1.03-3.34c-0.3,0.04-0.61,0.07-0.91,0.11
		c0.26,31.09,0.51,62.19,0.77,93.66c-1.25,0.19-2.56,0.63-3.83,0.53c-2.38-0.18-2.99-1-3-3.44c-0.08-33.51-0.15-67.02-0.2-100.53
		c0-1.22-0.02-2.49,0.33-3.64c1.16-3.87,5.86-4.9,8.4-1.76c1.07,1.32,1.65,3.1,2.2,4.75c7.02,21.5,11.82,43.58,16.96,65.57
		c1.21,5.17,2.34,10.35,3.54,15.52c0.13,0.58,0.46,1.11,1.39,1.59c0.13-1.12,0.37-2.25,0.38-3.37c0.07-15.39,0.24-30.79,0.12-46.18
		c-0.08-10.62-0.62-21.23-0.86-31.85c-0.04-1.89,0.13-3.83,0.54-5.67c0.37-1.65,1.35-3.04,3.44-2.75c1.79,0.25,2.97,1.68,2.9,3.82
		c-0.14,4.08-0.6,8.16-0.6,12.24c0.01,8.85,0.06,17.71,0.41,26.56c0.8,20.31,0.16,40.58-1.18,60.85
		C314.95,225.31,314.79,227.85,314.61,230.52z"/>
	<path class="st1" d="M61.74,374.46c0.31,0.55,0.77,1.07,0.91,1.66c0.62,2.61,2.5,3.92,4.79,4.84c3.21,1.29,6.52,1.93,10.01,1.74
		c3.67-0.2,6.82-1.72,9.47-4.02c1.14-0.99,1.45-2.91,2.19-4.38c0.37-0.74,0.85-1.43,1.29-2.14c1.34-0.35,2.83,0.48,4.08-0.52
		c0.46,0.62,1.04,1.19,1.36,1.88c1.33,2.91,3.5,4.42,6.75,4.37c2.31-0.04,4.63-0.09,6.94,0.01c2.24,0.09,4.03-0.68,5.57-2.25
		c0.6-0.61,1.34-1.09,2.01-1.63c0.29,1.06,1.23,0.83,1.96,0.96c2.07,0.37,4.05,0.91,5.64,2.38c1.86,1.72,1.83,3.85-0.33,5.16
		c-1.54,0.93-3.32,1.52-5.07,2.02c-4.71,1.33-9.58,1.68-14.44,1.79c-8.76,0.19-17.53,0.31-26.29,0.2c-4.85-0.06-9.7-0.54-14.53-1.03
		c-2.2-0.22-4.38-0.84-6.53-1.42c-1.22-0.33-2.38-0.89-3.52-1.46c-1.22-0.61-1.99-1.57-1.92-3.04c0.06-1.47,0.91-2.34,2.17-2.86
		C56.66,375.7,59.06,374.63,61.74,374.46z"/>
	<path class="st1" d="M334.53,374.53c0.26,0.28,0.7,0.53,0.76,0.85c0.68,3.67,3.47,5.14,6.54,6.25c3.04,1.1,6.25,1.36,9.41,0.97
		c3.71-0.46,7.06-1.99,9.48-4.96c0.65-0.8,0.85-2.02,1.07-3.08c0.24-1.11,0.66-1.95,1.81-2.27c1.26-0.08,2.52-0.16,3.78-0.24
		c0.57,0.73,1.26,1.4,1.68,2.21c1.27,2.43,3.21,3.64,5.95,3.62c2.47-0.02,4.94-0.11,7.4,0.02c2.51,0.13,4.49-0.73,6.13-2.57
		c0.42-0.47,0.93-0.86,1.39-1.29c0.33,1.02,1.27,0.81,2,0.94c2.15,0.38,4.2,0.96,5.8,2.57c1.54,1.56,1.52,3.37-0.2,4.72
		c-0.79,0.62-1.78,1.05-2.74,1.41c-3.77,1.41-7.72,1.98-11.7,2.31c-11.23,0.94-22.49,0.65-33.74,0.49
		c-5.72-0.08-11.51-0.3-17.09-1.89c-1.83-0.52-3.62-1.21-5.37-1.96c-1.24-0.53-2.06-1.49-2.03-2.97c0.03-1.59,0.99-2.49,2.33-3.01
		C329.6,375.72,331.9,374.57,334.53,374.53z"/>
	<path class="st1" d="M233.61,372.03c0.58,0.72,1.3,1.38,1.71,2.19c1.29,2.56,3.26,3.77,6.14,3.67c2.47-0.08,4.95-0.01,7.42-0.02
		c2.43-0.01,4.55-0.67,6.03-2.78c0.31-0.43,0.84-0.7,1.27-1.05c0.34,1.02,1.27,0.8,2.01,0.93c2.15,0.39,4.21,0.95,5.8,2.58
		c1.53,1.56,1.51,3.36-0.21,4.72c-0.79,0.63-1.78,1.05-2.74,1.41c-3.77,1.41-7.72,1.98-11.7,2.3c-11.23,0.91-22.49,0.67-33.74,0.49
		c-5.72-0.09-11.51-0.29-17.09-1.89c-1.83-0.52-3.62-1.22-5.37-1.97c-1.24-0.53-2.04-1.5-2.01-2.98c0.03-1.48,0.86-2.37,2.13-2.89
		c2.43-0.99,4.8-2.17,7.51-2.23c0.31,0.54,0.72,1.05,0.9,1.63c0.61,1.95,1.95,3.3,3.65,4.21c5.17,2.78,10.6,3.16,16.1,1.2
		c2.48-0.88,4.76-2.26,5.98-4.81c0.33-0.7,0.53-1.49,0.67-2.26c0.19-1,0.59-1.8,1.58-2.2C230.99,372.21,232.3,372.12,233.61,372.03z
		"/>
	<path class="st1" d="M370.93,500.5c0.71,0.83,1.55,1.59,2.12,2.51c1.45,2.33,3.49,3.34,6.2,3.25c2.31-0.08,4.62-0.04,6.93-0.01
		c2.54,0.04,4.67-0.68,6.16-2.9c0.29-0.42,0.86-0.65,1.3-0.97c0.18,0.99,1.05,0.77,1.69,0.96c1.59,0.49,3.25,0.84,4.72,1.57
		c1.33,0.66,2.61,1.66,2.46,3.49c-0.15,1.76-1.37,2.74-2.85,3.19c-2.88,0.89-5.79,1.84-8.77,2.25c-4.41,0.6-8.88,0.97-13.34,1.06
		c-7.98,0.16-15.99,0.44-23.94-0.08c-6.33-0.41-12.59-1.87-18.86-3c-1.46-0.26-2.84-1.03-4.23-1.61c-0.88-0.36-1.39-1.01-1.42-2.02
		c-0.03-1.12,0.53-1.86,1.49-2.22c2.01-0.76,4.06-1.42,6.09-2.11c0.52-0.18,1.06-0.34,1.58-0.51c0.32,0.42,0.81,0.8,0.93,1.27
		c0.56,2.19,2.06,3.47,3.97,4.44c3.9,1.98,8.1,2.36,12.32,1.88c3.02-0.35,5.85-1.62,8.02-3.87c0.78-0.81,1.19-1.99,1.67-3.05
		c0.54-1.19,0.32-2.74,1.72-3.51C368.25,500.51,369.59,500.51,370.93,500.5z"/>
	<path class="st1" d="M62.06,503.4c0.36,0.58,0.79,1.12,1.06,1.74c0.84,1.92,2.22,3.25,4.14,4.09c2.88,1.25,5.94,2.07,9,2.09
		c4.13,0.02,8.04-1.28,11.09-4.21c1.02-0.98,1.49-2.56,2.14-3.91c0.44-0.91,0.73-1.88,1.09-2.83c1.4,0.04,2.8,0.07,4.2,0.11
		c0.57,0.63,1.26,1.2,1.68,1.91c1.53,2.58,3.49,4.17,6.74,3.9c2.36-0.2,4.76-0.08,7.14-0.03c2.02,0.04,3.71-0.54,5.08-2.09
		c0.49-0.55,1.27-0.85,1.91-1.27c1.39,0.32,2.86,0.46,4.16,1c1.43,0.6,2.85,1.42,4.02,2.43c1.25,1.08,1.23,2.64,0.03,3.8
		c-0.83,0.8-1.91,1.44-3,1.85c-3.9,1.51-8,2.21-12.15,2.38c-7.08,0.29-14.17,0.42-21.26,0.58c-2.55,0.06-5.11,0.07-7.66,0
		c-7.5-0.21-14.91-1.21-22.21-2.93c-1.69-0.4-3.3-1.16-4.93-1.78c-0.9-0.34-1.42-1.04-1.45-2.01c-0.04-1.08,0.5-1.86,1.49-2.23
		c1.93-0.73,3.89-1.4,5.85-2.07C60.83,503.72,61.45,503.58,62.06,503.4z"/>
	<path class="st0" d="M271.03,168.97c0.28,16.34-2.24,32.3-6.2,48.05c-0.82,3.25-2.06,6.53-3.79,9.38c-3.14,5.17-7.76,6-12.94,2.84
		c-3.55-2.16-5.51-5.48-6.88-9.32c-2.81-7.89-4-16.08-4.74-24.36c-1.67-18.5-1.16-36.98,0.61-55.44c0.58-6.04,2.47-11.7,5.72-16.84
		c2.78-4.39,6.3-5.58,11.21-3.87c4.22,1.47,7.11,4.44,9.13,8.31c3.62,6.95,5.9,14.36,6.77,22.1
		C270.62,156.17,270.68,162.59,271.03,168.97z M264.24,168.21c-0.23-3.72-0.62-9.56-0.95-15.4c-0.48-8.6-3.21-16.49-7.42-23.94
		c-1.04-1.85-2.49-2.85-4.61-2.77c-2.09,0.08-3.64,1.03-4.42,3.04c-0.54,1.39-1.28,2.77-1.48,4.21c-0.74,5.1-1.37,10.23-1.89,15.36
		c-1.4,13.98-1.84,27.99-0.41,41.99c0.77,7.56,1.87,15.11,3.19,22.6c0.46,2.6,1.73,5.18,3.14,7.45c1.84,2.97,4.56,3.09,6.62,0.25
		c1.47-2.03,2.58-4.51,3.19-6.96C262.77,199.7,263.87,185.06,264.24,168.21z"/>
	<path class="st1" d="M477.49,374.55c0.34,0.49,0.78,0.94,0.99,1.48c0.68,1.71,1.8,3.03,3.44,3.82c6.68,3.23,13.3,3.64,19.66-0.78
		c1.57-1.09,2.83-2.49,3.17-4.59c0.16-0.99,0.05-2.33,1.37-2.86c1.38,0,2.76,0,4.14,0c0.58,0.63,1.28,1.19,1.7,1.91
		c1.55,2.65,3.72,4.03,6.86,3.89c2.15-0.1,4.31-0.11,6.46,0c2.31,0.12,4.19-0.62,5.8-2.27c0.47-0.48,1.17-0.74,1.76-1.1
		c1.48,0.33,3.03,0.46,4.41,1.03c1.36,0.56,2.7,1.38,3.77,2.38c1.37,1.28,1.12,2.43-0.43,3.53c-1.99,1.41-4.27,2.13-6.62,2.6
		c-7.21,1.42-14.47,2.45-21.82,2.42c-7.49-0.03-15-0.01-22.46-0.54c-5.3-0.37-10.54-1.57-15.79-2.51c-1.31-0.24-2.54-0.9-3.8-1.4
		c-1.07-0.43-1.63-1.22-1.6-2.4c0.02-1.2,0.62-1.94,1.73-2.29C472.64,376.08,475.06,375.32,477.49,374.55z"/>
	<path class="st1" d="M235.6,499.96c0.5,0.48,1.04,0.93,1.49,1.46c0.91,1.07,1.64,2.33,2.69,3.23c0.71,0.62,1.83,1.02,2.78,1.06
		c2.93,0.13,5.87,0.09,8.81,0.03c1.96-0.04,3.71-0.7,5.08-2.21c0.53-0.58,1.15-1.08,1.74-1.61c0.31,1.04,1.27,0.73,1.98,0.95
		c1.51,0.48,3.05,0.89,4.49,1.54c0.76,0.34,1.4,1.06,1.93,1.74c0.86,1.11,0.64,2.22-0.5,3.08c-1.95,1.48-4.23,2.22-6.58,2.69
		c-6.89,1.39-13.84,2.43-20.87,2.44c-7.89,0-15.8,0.01-23.66-0.51c-5.3-0.35-10.55-1.56-15.8-2.5c-1.31-0.23-2.55-0.89-3.8-1.41
		c-1.06-0.43-1.65-1.26-1.62-2.42c0.04-1.15,0.66-1.93,1.77-2.29c2.42-0.78,4.84-1.56,7.26-2.35c0.27,0.24,0.73,0.45,0.79,0.73
		c0.53,2.51,2.24,4.01,4.4,4.98c6.32,2.82,12.56,3.02,18.58-0.88c1.88-1.21,3.14-2.79,3.55-5.09c0.17-0.93,0.89-1.76,1.36-2.63
		C232.83,500,234.22,499.98,235.6,499.96z"/>
	<path class="st0" d="M466.35,155.08c-0.22,8.44-0.35,16.89-0.69,25.33c-0.43,10.77-1.85,21.44-4.44,31.91
		c-0.84,3.41-2.23,6.71-3.6,9.96c-4.06,9.65-18.09,11.04-23.92,2.72c-4.01-5.72-6.4-12.02-7.5-18.79
		c-1.06-6.58-1.75-13.23-2.39-19.86c-1.08-11.25-2.24-22.5-2.91-33.78c-0.56-9.51-0.47-19.06-0.66-28.59
		c-0.01-0.68,0.02-1.38,0.18-2.03c0.44-1.83,2-3.14,3.44-2.82c1.71,0.38,2.41,1.6,2.47,3.29c0.09,2.59,0.3,5.17,0.31,7.76
		c0.13,18.68,1.71,37.28,3.76,55.82c0.89,8.09,2.33,16.15,4,24.12c0.71,3.38,2.37,6.68,4.15,9.69c2.78,4.7,8.03,5.15,11.57,0.97
		c1.78-2.11,3.14-4.81,3.97-7.47c2.75-8.88,4.19-18.07,4.72-27.3c0.84-14.54,1.1-29.12,1.65-43.68c0.21-5.44,0.53-10.88,0.88-16.31
		c0.09-1.35,0.26-2.77,0.8-3.97c0.37-0.81,1.48-1.81,2.22-1.78c0.83,0.03,1.96,0.98,2.32,1.81c0.46,1.06,0.39,2.39,0.37,3.6
		c-0.19,9.8-0.42,19.61-0.65,29.41L466.35,155.08z"/>
	<path class="st1" d="M509.7,499.96c0.57,0.73,1.26,1.4,1.68,2.21c1.27,2.43,3.21,3.63,5.94,3.61c2.54-0.02,5.09-0.08,7.63,0.01
		c2.12,0.08,3.87-0.59,5.4-2.03c0.43-0.41,1.07-0.6,1.62-0.89c2.11,0.68,4.25,1.3,6.33,2.08c1.25,0.46,2.68,0.99,2.72,2.64
		c0.04,1.69-1.39,2.32-2.64,2.69c-3.43,1-6.88,2-10.38,2.64c-11.05,2.03-22.22,1.69-33.38,1.46c-8-0.17-15.84-1.56-23.56-3.62
		c-0.61-0.16-1.21-0.39-1.78-0.68c-1.03-0.52-1.47-1.45-1.45-2.55c0.03-1.16,0.67-1.92,1.78-2.28c2.42-0.78,4.83-1.56,7.25-2.34
		c0.27,0.24,0.71,0.44,0.79,0.73c0.78,2.88,2.75,4.45,5.45,5.48c3.51,1.34,7.13,1.84,10.78,1.38c3.8-0.48,7.17-2.17,9.47-5.38
		c0.66-0.92,0.75-2.23,1.18-3.34c0.24-0.62,0.65-1.18,0.99-1.77C506.93,500,508.31,499.98,509.7,499.96z"/>
	<path class="st0" d="M477.89,198.09c0.79,5.09,1.12,10.29,2.45,15.23c3.32,12.32,15.13,12.52,22.18,6.83
		c10.51-8.49,11.68-24.39,2.37-33.99c-5.26-5.42-11.12-9.86-18-13.18c-9.4-4.55-13.39-12.78-13.6-22.93
		c-0.15-7.18,1.34-14.08,4.73-20.46c1.08-2.03,2.44-3.93,3.9-5.71c3.34-4.07,7.64-5.95,12.98-5.38c4.65,0.5,9.23,1.3,12.99,4.29
		c1.44,1.14,2.72,2.68,3.61,4.29c1.06,1.93,0.43,3.35-1.28,4.58c-1.68,1.2-2.92,0.52-4.35-0.61c-2-1.57-4.03-3.53-6.37-4.16
		c-8.32-2.26-12.16-0.27-15.86,6.15c-3.46,6.01-5.17,12.56-3.67,19.61c1.26,5.96,4.54,10.41,9.93,13.25
		c6.06,3.19,11.71,6.96,16.64,11.71c5.49,5.29,10.23,11.22,10.8,19.13c0.92,12.54-2.37,23.49-13.53,30.85
		c-4.93,3.25-10.41,3.93-16.08,2.87c-4.67-0.88-8.1-3.72-10.6-7.69c-2.29-3.65-3.37-7.66-3.81-11.93
		c-0.68-6.49-1.82-12.96-0.69-19.51c0.56-3.26,1.54-4.47,3.37-4.3c1.7,0.16,2.74,1.96,2.7,4.86c-0.03,2.04-0.18,4.08-0.28,6.12
		C478.24,198.03,478.06,198.06,477.89,198.09z"/>
	<path class="st0" d="M359.53,189.37c-0.43,7.03-0.71,13.4-1.27,19.75c-0.26,2.96-0.78,5.97-1.73,8.78
		c-0.86,2.53-2.15,5.05-3.8,7.14c-7.17,9.09-19.76,7.67-24.46-2.96c-2.07-4.67-3.4-9.78-4.3-14.83
		c-2.41-13.49-1.77-27.14-1.25-40.74c0.28-7.46,0.97-14.94,2.04-22.33c0.98-6.76,3.34-13.18,7.25-18.91
		c3.9-5.71,12.29-8.05,18.55-5.2c1.93,0.88,3.03,2.28,2.96,4.43c-0.07,2.21-1.48,3.38-3.72,3.11c-1.07-0.13-2.13-0.45-3.19-0.68
		c-4.77-1.03-7.45,0.08-9.91,4.33c-4.09,7.07-6.26,14.78-6.96,22.86c-1.35,15.49-1.55,31-0.09,46.5c0.52,5.56,1.25,11.11,3.72,16.22
		c2.59,5.35,6.18,6.68,11.71,4.69c2.15-0.77,3.53-2.17,4.03-4.23c0.99-4.09,2.11-8.2,2.52-12.36c0.59-6.08,0.64-12.22,0.85-18.34
		c0.15-4.52,0.76-5.22,5.22-5.3c3.54-0.06,7.08-0.06,10.63-0.08c1.71-0.01,3.33,0.17,3.8,2.25c0.43,1.93-0.4,3.78-2.48,4.57
		c-1.75,0.67-3.65,1.02-5.52,1.27C362.66,189.53,361.15,189.37,359.53,189.37z"/>
	<path class="st2" d="M71.85,419.43c2.19-4.02,5.37-6.84,10.08-7.01c4.3-0.16,8.64-0.03,12.91,0.46c5.46,0.62,9.86,3.46,13.33,7.71
		c0.08,0.09,0.02,0.29,0.04,0.75c-1.55,0.02-3.11,0.11-4.67,0.04c-5.61-0.24-11.16,0.11-16.64,1.42c-5.07,1.22-6.86,3.09-7.56,8.2
		c-0.55,3.99-0.49,7.95,0.56,11.87c2.13,7.95,6.97,11.94,15.17,12.58c5.17,0.41,10.18-0.4,15.14-1.74c1.9-0.51,3.83-0.93,6.1-1.47
		c0.03,1.76,0.05,3.16,0.07,4.55c-0.32,1.14-0.68,2.26-0.95,3.41c-0.66,2.78-1.17,5.61-1.95,8.36c-0.99,3.49-3.18,6.17-6.65,7.32
		c-4.02,1.33-8.25,1.87-12.48,1.3c-3.94-0.53-7.83-1.4-11.76-1.99c-1.2-0.18-2.05-0.68-2.87-1.49c-3.04-3.02-4.76-6.78-5.84-10.81
		c-2.94-10.93-3.73-22.09-3.46-33.36c0.02-0.71,0.21-1.41,0.32-2.12C71.12,424.76,72.33,422.21,71.85,419.43z"/>
	<path class="st3" d="M71.85,419.43c0.48,2.78-0.73,5.33-1.12,7.98c-0.1,0.71-0.3,1.41-0.32,2.12c-0.28,11.27,0.52,22.44,3.46,33.36
		c1.08,4.03,2.8,7.79,5.84,10.81c0.82,0.81,1.67,1.31,2.87,1.49c3.93,0.59,7.82,1.46,11.76,1.99c4.23,0.57,8.46,0.03,12.48-1.3
		c3.47-1.15,5.66-3.83,6.65-7.32c0.78-2.75,1.29-5.57,1.95-8.36c0.27-1.14,0.63-2.27,0.95-3.41c0.15,0.69,0.38,1.38,0.44,2.08
		c0.89,10.22-0.5,20.21-3.09,30.07c-0.52,1.97-0.78,3.89-0.48,5.89c0.02,0.16,0.05,0.32,0.07,0.47c0.45,4.56-0.96,6.13-5.58,6.18
		c-1.35,0.01-2.72,0.05-4.06-0.11c-2.28-0.27-3.51-1.48-3.55-3.78c-0.04-2.29,0.27-4.58,0.4-6.55c2.25-1.36,4.15-2.51,6.03-3.67
		c0.54-0.33,1.04-0.72,1.55-1.09c-0.09-0.2-0.19-0.41-0.28-0.61c-0.58,0-1.16-0.05-1.73,0.01c-5.6,0.55-11.15,0.07-16.69-0.81
		c-3.14-0.5-4.32,0.19-4.79,3.39c-0.4,2.75-0.39,5.55-0.56,8.33c-0.06,1.03,0,2.07-0.14,3.09c-0.36,2.74-1.99,4.48-4.56,5.3
		c-2.41,0.76-4.85,0.77-7.3,0c-2.11-0.67-3.42-1.97-3.67-4.22c-0.42-3.72-0.96-7.44-1.23-11.17c-0.91-12.58-1.14-25.18-0.82-37.78
		c0.12-4.78,0.26-9.57,0.75-14.32c0.42-4.03,1.21-8.05,2.16-11.99C69.75,423.41,70.96,421.46,71.85,419.43z"/>
	<path class="st3" d="M75.96,378.36c0.02,1.16,0.05,2.31,0.07,3.47c0.12,7.82,0.22,15.64,0.37,23.46c0.03,1.59,0.29,3.17,0.35,4.76
		c0.05,1.38-0.25,1.66-1.58,1.79c-3.61,0.35-5.88-1.15-6.7-4.69c-1.01-4.33-1.13-8.76-0.98-13.18c0.15-4.41,0.47-8.82,0.74-13.23
		c0.02-0.41,0.24-0.8,0.36-1.2C71.04,379.14,73.5,378.75,75.96,378.36z"/>
	<path class="st4" d="M120.72,437.29c0.91,1.99,0.22,3.81-0.91,5.36c-0.86,1.18-2.06,2.3-3.35,2.97
		c-5.23,2.68-10.74,4.38-16.73,4.13c-4.92-0.2-9.13-1.87-12.58-5.46c-1.51-1.57-2.43-3.36-2.7-5.46c-0.41-3.27,0.23-6.34,2.15-9.07
		c0.21-0.3,0.6-0.46,0.91-0.69c0.47,1.35,0.97,2.7,1.42,4.06c1.8,5.52,5.03,8.06,10.81,7.91c5.02-0.12,10.03-0.62,15.04-1.02
		C117.05,439.83,119.11,439.01,120.72,437.29z"/>
	<path class="st5" d="M120.72,437.29c-1.61,1.72-3.67,2.54-5.95,2.72c-5.01,0.4-10.02,0.9-15.04,1.02
		c-5.78,0.14-9.01-2.39-10.81-7.91c-0.44-1.36-0.94-2.71-1.42-4.06c0.1-0.12,0.19-0.31,0.31-0.34c7.2-1.94,14.43-3.58,21.91-1.5
		c2.71,0.76,5.29,1.83,7.5,3.6C119.27,432.47,120.8,434.46,120.72,437.29z M110.17,435.48l0.02-0.19c1.04,0,2.07,0.01,3.11,0
		c1.13-0.02,2.01-0.43,2.44-1.55c0.41-1.08-0.02-1.95-0.85-2.5c-1.17-0.77-2.41-1.56-3.73-1.96c-1.81-0.54-3.72-0.91-5.61-1.01
		c-1.88-0.1-3.83-0.01-5.66,0.4c-1.79,0.4-2.48,1.91-2.19,3.7c0.22,1.34,1.12,1.93,3.04,2.07c1.5,0.11,3,0.28,4.49,0.45
		C106.87,435.07,108.52,435.28,110.17,435.48z"/>
	<path class="st2" d="M75.96,378.36c-2.46,0.39-4.92,0.79-7.37,1.18c0.16-1.21,0.22-2.45,0.49-3.63c0.85-3.73,3.78-5.09,7.64-3.39
		C76.46,374.41,76.21,376.38,75.96,378.36z"/>
	<path class="st2" d="M94.79,500.48c-1.4-0.04-2.8-0.07-4.2-0.11c0.13-1.97,0.27-3.94,0.39-5.91c0.03-0.55-0.1-1.15,0.07-1.65
		c0.15-0.44,0.58-1.01,0.96-1.07c0.42-0.07,1.08,0.26,1.36,0.63c0.3,0.4,0.32,1.04,0.41,1.58C94.13,496.12,94.46,498.3,94.79,500.48
		z"/>
	<path class="st6" d="M347.84,419.99c0.03-0.32-0.05-0.72,0.12-0.93c2.89-3.75,6.04-7.03,11.39-6.69c3.9,0.25,7.85-0.04,11.7,0.5
		c4.81,0.68,9.22,2.51,12.19,6.76c0.29,0.42,0.88,0.63,1.47,1.02c-1.25,1.03-2.31,0.78-3.28,0.79c-3.67,0.04-7.36-0.2-11.01,0.08
		c-3,0.23-6.04,0.75-8.89,1.69c-3.37,1.11-5.63,3.49-5.96,7.33c-0.41,4.64-0.23,9.24,0.98,13.75c1.3,4.8,4.37,8.02,9.03,9.8
		c3.81,1.46,7.71,2.01,11.74,1.33c3.46-0.58,6.91-1.19,10.35-1.89c1.38-0.28,2.7-0.87,4.11-1.33c1.45,1.18,0.6,2.8,0.8,4.21
		c-0.18,0.34-0.49,0.67-0.51,1.02c-0.22,4.01-1.38,7.8-2.53,11.61c-1.33,4.4-4.36,6.69-8.69,7.5c-1.64,0.3-3.29,0.57-4.95,0.66
		c-2.04,0.11-4.12,0.2-6.15-0.03c-3.46-0.4-6.9-1.04-10.35-1.6c-1.28-0.21-2.55-0.54-3.33-1.66c-1.53-2.22-3.34-4.33-4.38-6.77
		c-2.49-5.88-3.94-12.07-4.28-18.49c-0.1-1.9-0.38-3.79-0.58-5.68c-0.28-2.68-0.7-5.36-0.78-8.04c-0.12-3.67,0.62-7.26,1.54-10.81
		C347.92,422.75,348.3,421.39,347.84,419.99z"/>
	<path class="st7" d="M347.84,419.99c0.46,1.4,0.08,2.75-0.26,4.1c-0.92,3.55-1.66,7.14-1.54,10.81c0.09,2.69,0.51,5.36,0.78,8.04
		c0.2,1.89,0.47,3.78,0.58,5.68c0.35,6.42,1.79,12.61,4.28,18.49c1.03,2.44,2.85,4.55,4.38,6.77c0.78,1.13,2.05,1.46,3.33,1.66
		c3.45,0.56,6.88,1.2,10.35,1.6c2.02,0.23,4.1,0.14,6.15,0.03c1.66-0.09,3.32-0.35,4.95-0.66c4.34-0.81,7.37-3.1,8.69-7.5
		c1.15-3.81,2.31-7.6,2.53-11.61c0.02-0.35,0.33-0.68,0.51-1.02c0.15,1.09,0.38,2.18,0.43,3.27c0.42,8.73-0.16,17.37-2.31,25.89
		c-1.03,4.1-1.85,8.24-1.29,12.54c0.22,1.72-0.62,2.83-2.38,2.99c-2.69,0.25-5.41,0.21-8.11,0.18c-0.92-0.01-1.56-0.62-1.97-1.52
		c-1.77-3.95-0.45-8.32,3.24-10.68c1.4-0.89,2.75-1.84,4.13-2.77c-0.04-0.17-0.07-0.35-0.11-0.52c-0.55-0.07-1.13-0.25-1.66-0.18
		c-5.77,0.78-11.47-0.08-17.18-0.72c-2.51-0.29-3.61,0.27-4.35,2.65c-0.4,1.28-0.64,2.64-0.69,3.98c-0.1,2.47-0.08,4.95,0.01,7.42
		c0.08,2.15-0.8,3.58-2.63,4.71c-3.54,2.18-7.14,2.52-10.96,0.85c-1.37-0.6-2.13-1.49-2.24-3.06c-0.63-9.15-1.62-18.29-1.92-27.45
		c-0.34-10.36-0.39-20.75,0-31.11C342.88,435,343.97,427.13,347.84,419.99z"/>
	<path class="st7" d="M336.51,447.76c0.07,0.63,0.19,1.25,0.2,1.88c0.07,8.29,0.1,16.59,0.2,24.88c0.02,1.83,0.29,3.66,0.38,5.49
		c0.04,0.79,0.03,1.61-0.14,2.38c-0.36,1.63-1.56,2.35-3.22,2.05c-3.31-0.59-5.71-2.88-5.95-6.27c-0.42-6.03-1.34-12.04-0.43-18.14
		c0.47-3.14,0.34-6.36,0.54-9.54c0.06-0.93,0.32-1.85,0.48-2.78c0.5,0.17,1.02,0.49,1.51,0.47
		C332.23,448.1,334.37,447.91,336.51,447.76z"/>
	<path class="st4" d="M396.72,437.74c0.97,0.86,0.56,1.9,0.29,2.86c-0.67,2.46-2.3,4.2-4.56,5.23c-5.4,2.47-10.94,4.32-17.03,3.91
		c-4.64-0.32-8.55-1.98-11.95-5.23c-4.21-4.03-3.35-11.32-0.44-15.13c0.12-0.16,0.42-0.19,0.63-0.28c0.49,1.33,1.02,2.66,1.45,4.01
		c1.75,5.49,4.94,7.97,10.74,7.94c3.81-0.02,7.63-0.25,11.43-0.59C390.57,440.16,393.96,439.99,396.72,437.74z"/>
	<path class="st5" d="M396.72,437.74c-2.76,2.25-6.15,2.42-9.45,2.71c-3.8,0.34-7.62,0.57-11.43,0.59
		c-5.8,0.03-8.99-2.45-10.74-7.94c-0.43-1.35-0.96-2.67-1.45-4.01c0.1-0.12,0.18-0.31,0.3-0.35c7.2-1.93,14.44-3.7,21.89-1.49
		c2.34,0.69,4.6,1.79,6.74,2.98c2.14,1.2,3.59,3.14,4.27,5.56c0.04,0.18,0.09,0.37,0.13,0.55
		C396.9,436.81,396.81,437.28,396.72,437.74z M386.44,435.42c1.45-0.13,2.59-0.1,3.66-0.35c1.95-0.45,2.52-2.16,1.15-3.54
		c-0.81-0.81-1.86-1.56-2.94-1.88c-2.2-0.65-4.48-1.18-6.75-1.39c-1.86-0.16-3.82,0.03-5.65,0.43c-1.61,0.36-2.3,1.78-2.11,3.29
		c0.19,1.44,1.3,2.3,3.05,2.43c1.9,0.14,3.79,0.31,5.69,0.51C383.94,435.07,385.35,435.28,386.44,435.42z"/>
	<path class="st6" d="M336.51,447.76c-2.14,0.15-4.28,0.33-6.42,0.42c-0.5,0.02-1.01-0.31-1.51-0.47c0.18-1.24,0.19-2.54,0.57-3.72
		c0.9-2.84,3.69-4.36,6.54-3.77c1.07,0.22,1.72,0.71,1.55,1.93C336.98,444.02,336.75,445.89,336.51,447.76z"/>
	<path class="st2" d="M370.93,500.5c-1.34,0.01-2.68,0.01-4.02,0.02c0.08-2.31,0.18-4.62,0.24-6.93c0.02-0.92,0.01-1.89,1.24-1.91
		c1.09-0.02,1.42,0.77,1.55,1.75C370.23,495.79,370.59,498.15,370.93,500.5z"/>
	<path class="st4" d="M396.99,436.35c-0.04-0.18-0.09-0.37-0.13-0.55C396.91,435.98,396.95,436.17,396.99,436.35z"/>
	<path class="st8" d="M531.32,456.91c0.02,0.31,0.03,0.62,0.05,0.93c-0.29,0.41-0.73,0.78-0.85,1.23c-0.83,3.14-1.51,6.33-2.42,9.45
		c-1.14,3.93-3.89,6.38-7.8,7.3c-4.74,1.11-9.54,1.46-14.38,0.47c-3.03-0.62-6.11-1.05-9.13-1.68c-0.79-0.17-1.72-0.6-2.18-1.21
		c-2.55-3.38-4.82-6.91-5.83-11.12c-2.28-9.47-3.62-19.02-3.41-28.79c0.08-3.75,0.24-7.46,1.26-11.1c0.24-0.84,0.54-1.71-0.35-2.4
		c1.74-4.81,6.56-8.2,11.56-8.06c3.91,0.11,7.83,0.09,11.71,0.45c5.8,0.54,10.17,3.72,14.2,8.5c-2.19,0-3.9,0.09-5.59-0.02
		c-5.78-0.36-11.47,0.17-17.08,1.57c-4.33,1.08-6.43,3.36-6.89,7.76c-0.39,3.73-0.48,7.47,0.31,11.19
		c1.8,8.51,7.08,13.04,15.8,13.63c5,0.34,9.85-0.44,14.65-1.73c1.91-0.52,3.84-0.96,5.75-1.43c1.02,1.58,0.44,3.13,0.59,4.59
		l-0.14,0.14C531.18,456.69,531.26,456.8,531.32,456.91z"/>
	<path class="st9" d="M486.25,419.98c0.89,0.69,0.58,1.56,0.35,2.4c-1.02,3.63-1.18,7.34-1.26,11.1
		c-0.21,9.77,1.13,19.32,3.41,28.79c1.01,4.22,3.29,7.75,5.83,11.12c0.46,0.61,1.39,1.05,2.18,1.21c3.03,0.63,6.1,1.06,9.13,1.68
		c4.84,0.99,9.65,0.64,14.38-0.47c3.91-0.92,6.67-3.36,7.8-7.3c0.9-3.12,1.58-6.31,2.42-9.45c0.12-0.45,0.56-0.82,0.85-1.23
		c0.12,3.73,0.43,7.46,0.33,11.19c-0.15,5.59-1.06,11.1-2.5,16.52c-0.94,3.55-1.38,7.19-1.12,10.9c0.23,3.24-0.62,4.2-3.83,4.45
		c-1.91,0.15-3.83,0.16-5.74,0.05c-2.17-0.12-3.11-1.11-3.43-3.27c-0.33-2.16-0.07-4.94,0.72-7.62c2.53-1.05,5-2.29,7.25-4.85
		c-1.06,0-1.72-0.06-2.37,0.01c-5.28,0.54-10.52,0.16-15.73-0.75c-0.55-0.1-1.11-0.17-1.66-0.17c-2.57-0.02-3.72,0.91-3.95,3.46
		c-0.24,2.7-0.32,5.41-0.45,8.11c-0.04,0.96,0.05,1.92-0.05,2.87c-0.31,2.9-1.81,4.87-4.65,5.75c-2.11,0.66-4.25,0.69-6.39,0.25
		c-2.95-0.61-4.28-1.97-4.69-4.97c-0.43-3.16-0.77-6.34-1.04-9.51c-1.28-14.97-1.05-29.97-0.94-44.97c0.05-6.96,1.32-13.81,3-20.55
		C484.55,423.08,485.53,421.56,486.25,419.98z"/>
	<path class="st9" d="M475.21,447.31c0.04,0.87,0.11,1.74,0.12,2.61c0.02,6.85-0.02,13.7,0.07,20.55c0.04,3.1,0.36,6.2,0.49,9.3
		c0.17,4.14-1.5,5.22-5.26,3.48c-2.27-1.05-3.71-2.72-3.98-5.25c-0.25-2.37-0.53-4.75-0.65-7.13c-0.4-7.57,0.16-15.1,0.93-22.63
		C469.63,447.38,472.4,447.17,475.21,447.31z"/>
	<path class="st4" d="M535.44,437.04c0.79,3.14-0.41,6.18-3.51,7.82c-6.64,3.49-13.62,5.38-21.21,3.92
		c-6.71-1.29-12.17-7.21-11.39-14.58c0.16-1.47,0.76-2.9,1.29-4.31c0.28-0.73,0.79-1.42,1.79-1.27c0.41,1.2,0.85,2.4,1.23,3.61
		c1.82,5.9,5.06,8.46,11.22,8.32c4.93-0.12,9.85-0.62,14.77-1.02C531.81,439.34,533.79,438.54,535.44,437.04z"/>
	<path class="st5" d="M535.44,437.04c-1.65,1.5-3.63,2.31-5.82,2.49c-4.92,0.4-9.84,0.9-14.77,1.02c-6.16,0.15-9.4-2.42-11.22-8.32
		c-0.38-1.21-0.82-2.41-1.23-3.61c0.23-0.19,0.44-0.5,0.7-0.56c4.87-1.12,9.72-2.44,14.79-2.29c4.52,0.14,8.81,1.16,12.72,3.51
		c2.62,1.57,4.53,3.69,4.98,6.84C535.63,436.41,535.5,436.73,535.44,437.04z M525.71,435l0.02-0.19c0.8,0,1.59-0.01,2.39,0
		c0.95,0.02,1.74-0.27,2.16-1.18c0.44-0.97,0.33-1.98-0.39-2.67c-0.78-0.74-1.72-1.5-2.73-1.79c-2.21-0.64-4.48-1.17-6.76-1.38
		c-1.87-0.17-3.83-0.04-5.66,0.37c-1.68,0.38-2.58,2.03-2.37,3.4c0.22,1.44,1.43,2.24,3.41,2.37c1.66,0.11,3.32,0.3,4.97,0.48
		C522.41,434.6,524.06,434.8,525.71,435z"/>
	<path class="st8" d="M475.21,447.31c-2.81-0.14-5.59,0.06-8.28,0.93c0.21-1.25,0.37-2.5,0.64-3.74c0.96-4.47,3.71-5.91,8.39-4.13
		C475.71,442.63,475.46,444.97,475.21,447.31z"/>
	<path class="st2" d="M509.7,499.96c-1.38,0.02-2.77,0.04-4.15,0.06c0.1-2.3,0.21-4.61,0.31-6.91c0.04-0.88-0.08-1.92,1.18-1.94
		c1.28-0.02,1.4,0.99,1.54,1.99C508.9,495.43,509.32,497.69,509.7,499.96z"/>
	<path class="st9" d="M531.32,456.91c-0.06-0.11-0.13-0.22-0.17-0.34l0.14-0.14C531.3,456.59,531.31,456.75,531.32,456.91z"/>
	<path class="st10" d="M487.16,291.44c1.01-3.91,5.86-7.87,10.09-7.89c4.38-0.02,8.79,0.02,13.14,0.5c5.46,0.6,9.78,3.49,13.45,8
		c-0.86,0.23-1.43,0.49-2,0.5c-1.75,0.04-3.51,0.05-5.26-0.05c-5.15-0.28-10.18,0.39-15.15,1.68c-4.21,1.09-5.97,3.11-6.55,7.46
		c-0.71,5.29-0.51,10.48,1.53,15.51c1.74,4.27,4.75,7.07,9.15,8.45c4.28,1.34,8.64,1.56,13.01,0.78c3.45-0.61,6.84-1.54,10.26-2.3
		c0.83-0.19,1.69-0.28,2.88-0.48c0.04,1.32,0.07,2.39,0.1,3.45c-0.13,0.37-0.34,0.72-0.38,1.1c-0.43,4.22-1.42,8.3-2.81,12.3
		c-1.12,3.22-3.21,5.37-6.51,6.45c-4.9,1.6-9.86,1.65-14.87,0.94c-2.99-0.42-5.94-1.17-8.93-1.51c-1.41-0.16-2.41-0.66-3.24-1.7
		c-2.69-3.41-4.84-7.11-5.82-11.39c-1.38-6.05-2.4-12.15-2.98-18.34c-0.63-6.85-0.71-13.65,0.8-20.41
		C487.28,293.51,487.13,292.46,487.16,291.44z"/>
	<path class="st11" d="M487.16,291.44c-0.02,1.02,0.12,2.08-0.1,3.05c-1.51,6.76-1.43,13.56-0.8,20.41
		c0.57,6.19,1.6,12.29,2.98,18.34c0.98,4.28,3.12,7.98,5.82,11.39c0.83,1.05,1.83,1.54,3.24,1.7c3,0.34,5.94,1.09,8.93,1.51
		c5.01,0.71,9.98,0.66,14.87-0.94c3.31-1.08,5.4-3.23,6.51-6.45c1.39-4,2.38-8.08,2.81-12.3c0.04-0.37,0.25-0.73,0.38-1.1
		c0.96,5.31,0.58,10.64,0.35,15.97c-0.28,6.42-2.25,12.53-3.26,18.82c-0.34,2.11-0.29,4.28-0.3,6.43c0,3.13-0.91,4.17-4.04,4.33
		c-1.35,0.07-2.71,0.11-4.07,0.06c-3.24-0.1-4.96-1.88-4.92-5.16c0.01-1.18,0.21-2.38,0.46-3.54c0.4-1.85,1.58-3.05,3.36-3.75
		c2.16-0.85,2.86-1.41,4.34-3.23c-0.84-0.06-1.52-0.23-2.16-0.14c-5.36,0.75-10.66,0.1-15.93-0.77c-3.37-0.55-4.87,0.16-5.49,3.56
		c-0.52,2.88-0.45,5.86-0.73,8.79c-0.14,1.49-0.22,3.04-0.74,4.41c-0.83,2.19-2.71,3.43-4.99,3.57c-2.12,0.12-4.27-0.18-6.41-0.38
		c-1.86-0.17-2.83-1.37-3.12-3.12c-0.42-2.51-0.84-5.03-1.12-7.56c-1.74-16.05-1.57-32.17-1.32-48.27
		c0.11-7.18,1.33-14.28,3.28-21.21C485.42,294.31,486.42,292.91,487.16,291.44z"/>
	<path class="st11" d="M475.81,318.44c0.03,1.83,0.08,3.66,0.1,5.49c0.12,8.21,0.22,16.41,0.36,24.61c0.02,1.35,0.23,2.69,0.37,4.04
		c0.22,2.16-0.29,2.76-2.42,2.8c-3.6,0.07-5.69-1.44-6.56-4.98c-0.47-1.92-0.74-3.91-0.93-5.88c-0.77-7.81,0.2-15.58,0.55-23.36
		c0.03-0.61,0.33-1.2,0.51-1.8C470.46,319.05,473.14,318.74,475.81,318.44z"/>
	<path class="st4" d="M536.16,308.42c1.11,1.98,0.2,3.77-0.85,5.3c-0.82,1.2-2.04,2.32-3.34,2.99c-5.16,2.68-10.61,4.33-16.51,4.16
		c-5.2-0.15-9.54-2.01-13.18-5.81c-3.75-3.92-2.79-11.34,0.05-14.58c0.14-0.16,0.43-0.18,0.64-0.26c0.45,1.27,0.93,2.53,1.33,3.82
		c1.84,5.78,5.08,8.24,11.13,8.08c4.46-0.11,8.9-0.54,13.36-0.77C531.59,311.2,534.1,310.38,536.16,308.42z"/>
	<path class="st5" d="M536.16,308.42c-2.06,1.96-4.56,2.78-7.36,2.93c-4.45,0.24-8.9,0.66-13.36,0.77
		c-6.05,0.15-9.29-2.31-11.13-8.08c-0.41-1.29-0.89-2.55-1.33-3.82c0.38-0.26,0.73-0.69,1.14-0.76c4.73-0.73,9.44-1.65,14.2-2.02
		c5.86-0.46,10.94,1.8,15.37,5.55C535.32,304.38,536.34,306.14,536.16,308.42z M524.62,306.14l0.01-0.06c1.43,0,2.86-0.02,4.29,0.01
		c1.05,0.02,2.09-0.27,2.26-1.31c0.12-0.72-0.25-1.86-0.8-2.29c-1.15-0.91-2.51-1.64-3.9-2.13c-1.4-0.5-2.93-0.81-4.42-0.86
		c-2.2-0.08-4.44-0.08-6.6,0.29c-1.74,0.3-2.51,1.79-2.29,3.38c0.17,1.26,1.21,2.17,2.91,2.33
		C518.93,305.76,521.78,305.93,524.62,306.14z"/>
	<path class="st10" d="M475.81,318.44c-2.67,0.3-5.34,0.61-8.01,0.91c0.18-1.34,0.23-2.71,0.56-4.01c0.83-3.24,3.3-4.63,6.58-3.89
		c0.99,0.22,1.61,0.67,1.48,1.78C476.21,314.97,476.01,316.7,475.81,318.44z"/>
	<path class="st2" d="M510.25,371.61c-1.38,0-2.76,0-4.14,0c0.12-2.37,0.26-4.73,0.35-7.1c0.03-0.83,0.03-1.69,1.08-1.78
		c1.1-0.09,1.5,0.7,1.64,1.64C509.54,366.79,509.9,369.2,510.25,371.61z"/>
	<path class="st11" d="M71.39,291.61c1.19-3.61,5.98-7.55,9.94-7.56c4.85-0.01,9.71,0.27,14.54,0.77c4.22,0.43,7.54,2.88,10.46,5.82
		c0.46,0.46,0.63,1.19,0.94,1.79c-0.63,0.23-1.25,0.63-1.89,0.65c-2.31,0.07-4.63,0.06-6.94-0.02c-4.27-0.15-8.42,0.65-12.54,1.58
		c-4.59,1.04-6.56,3.74-6.92,8.49c-0.28,3.68-0.29,7.3,0.49,10.93c1.64,7.6,6.12,11.57,14.06,13.01c5.49,1,10.76-0.48,16.05-1.63
		c1.17-0.25,2.29-0.7,3.45-0.97c0.82-0.19,1.68-0.24,2.85-0.39c0.04,1.34,0.07,2.41,0.1,3.49c-0.16,0.43-0.44,0.85-0.48,1.3
		c-0.38,4.39-1.37,8.64-2.92,12.76c-0.35,0.94-0.93,1.86-1.59,2.62c-2.06,2.37-4.62,3.72-7.84,4.08c-4.44,0.48-8.82,0.96-13.24-0.16
		c-1.84-0.47-3.76-0.66-5.65-0.87c-2.59-0.28-4.84-1.19-6.19-3.49c-1.45-2.46-3.02-4.91-3.99-7.56c-3.06-8.31-3.59-17.08-4.08-25.81
		c-0.32-5.64-0.33-11.31,1.55-16.79C71.73,293.03,71.45,292.28,71.39,291.61z"/>
	<path class="st12" d="M71.39,291.61c0.06,0.67,0.33,1.43,0.13,2.01c-1.88,5.48-1.86,11.15-1.55,16.79
		c0.49,8.73,1.02,17.51,4.08,25.81c0.98,2.65,2.55,5.11,3.99,7.56c1.36,2.31,3.61,3.21,6.19,3.49c1.89,0.21,3.81,0.4,5.65,0.87
		c4.42,1.12,8.8,0.65,13.24,0.16c3.22-0.35,5.78-1.7,7.84-4.08c0.66-0.76,1.24-1.68,1.59-2.62c1.54-4.11,2.54-8.37,2.92-12.76
		c0.04-0.44,0.31-0.87,0.48-1.3l0.14,0.19c0.21,3.63,1.11,7.22,0.54,10.89c-0.07,0.47-0.19,0.95-0.18,1.42
		c0.09,6.99-1.44,13.74-3.15,20.45c-0.58,2.27-0.87,4.47-0.45,6.83c0.22,1.26-0.15,2.69-0.53,3.96c-0.16,0.54-0.99,1.21-1.56,1.26
		c-2.76,0.24-5.55,0.5-8.3,0.34c-1.84-0.11-2.64-1.9-2.71-3.5c-0.08-1.95,0.23-3.96,0.64-5.89c0.36-1.66,1.94-2.25,3.36-2.78
		c1.69-0.63,3.05-1.62,4.35-3.39c-1.83,0-3.42-0.25-4.9,0.05c-3.54,0.73-6.97-0.2-10.44-0.42c-2.04-0.13-3.98-1-6.13-0.36
		c-1.47,0.43-2.24,1.18-2.35,2.59c-0.22,2.61-0.33,5.23-0.51,7.85c-0.12,1.66-0.14,3.35-0.45,4.97c-0.53,2.75-2.53,4.35-5.09,4.75
		c-2.64,0.41-5.38,0.5-7.98-0.75c-1.44-0.7-2.19-1.58-2.31-3.25c-0.41-5.86-1.01-11.71-1.42-17.58c-0.27-3.81-0.36-7.63-0.49-11.45
		c-0.16-4.45-0.41-8.91-0.38-13.36c0.03-5.97-0.01-11.97,0.52-17.9c0.64-7.04,1.7-14.07,4.87-20.55
		C71.13,291.82,71.28,291.72,71.39,291.61z"/>
	<path class="st12" d="M75.78,261.69c0.05,1.3,0.13,2.59,0.14,3.89c0.02,6.79-0.01,13.58,0.04,20.38c0.01,1.58,0.29,3.15,0.33,4.73
		c0.03,1.07-0.01,2.17-0.26,3.2c-0.37,1.47-1.33,1.93-2.78,1.59c-3.21-0.76-5.35-3.19-5.52-6.65c-0.24-5.04-0.43-10.09-0.4-15.13
		c0.02-3.23,0.49-6.45,0.78-9.67c0.03-0.33,0.26-0.65,0.4-0.97c0.49-0.04,1.07,0.07,1.47-0.15
		C71.81,261.95,73.8,261.88,75.78,261.69z"/>
	<path class="st4" d="M120.16,309.36c0.93,0.75,0.59,1.74,0.37,2.62c-0.59,2.37-2.03,4.16-4.2,5.23
		c-5.34,2.62-10.87,4.41-16.95,4.17c-5.39-0.22-9.89-2.18-13.38-6.3c-0.55-0.65-1.04-1.45-1.26-2.26
		c-0.98-3.56-0.84-7.09,0.79-10.45c0.32-0.65,1.05-1.1,1.59-1.64c0.48,1.33,1.01,2.65,1.44,4c1.76,5.46,4.96,7.95,10.74,7.93
		c3.73-0.01,7.46-0.25,11.17-0.61C113.84,311.72,117.34,311.68,120.16,309.36z"/>
	<path class="st5" d="M120.16,309.36c-2.83,2.32-6.32,2.36-9.68,2.69c-3.71,0.36-7.45,0.6-11.17,0.61
		c-5.79,0.02-8.99-2.47-10.74-7.93c-0.43-1.35-0.96-2.67-1.44-4c0.24-0.19,0.45-0.48,0.72-0.55c5.09-1.2,10.17-2.58,15.48-2.29
		c4.42,0.24,8.62,1.26,12.4,3.69c2.21,1.42,3.89,3.25,4.6,5.84c0.04,0.19,0.08,0.37,0.12,0.56
		C120.35,308.44,120.26,308.9,120.16,309.36z M103.73,299.51c-1.76,0.31-3.2,0.41-4.54,0.84c-1.38,0.44-1.69,1.47-1.54,3.36
		c0.1,1.28,0.76,1.78,1.98,1.91c1.89,0.21,3.76,0.6,5.65,0.8c2.21,0.23,4.43,0.38,6.64,0.49c1.42,0.07,2.75-0.25,3.37-1.71
		c0.4-0.93-0.72-2.61-2.14-3.42c-0.21-0.12-0.42-0.25-0.65-0.3C109.5,300.79,106.49,300.12,103.73,299.51z"/>
	<path class="st11" d="M75.78,261.69c-1.98,0.19-3.97,0.25-5.8,1.22c-0.4,0.21-0.98,0.11-1.47,0.15c0.18-1.57,0.15-3.2,0.6-4.69
		c0.69-2.31,3.24-3.51,5.59-2.91c1.3,0.33,1.68,0.77,1.58,2.15C76.18,258.98,75.95,260.33,75.78,261.69z"/>
	<path class="st2" d="M94.47,371.63c-1.26,0.99-2.74,0.17-4.08,0.52c0.08-2.21,0.16-4.42,0.22-6.64c0.03-0.94-0.18-2.02,1.12-2.27
		c0.98-0.19,1.48,0.71,1.69,2.36C93.69,367.62,94.12,369.62,94.47,371.63z"/>
	<path class="st4" d="M120.44,307.98c-0.04-0.19-0.08-0.37-0.12-0.56C120.36,307.61,120.4,307.79,120.44,307.98z"/>
	<path class="st13" d="M388.93,326.99c-0.05,0.7-0.11,1.4-0.16,2.09c-0.17,0.34-0.42,0.65-0.51,1.01c-0.79,3.4-1.47,6.84-2.35,10.22
		c-1.02,3.91-3.78,6.26-7.52,7.34c-4.8,1.38-9.7,1.6-14.64,0.69c-3.05-0.57-6.12-1-9.17-1.6c-0.72-0.14-1.51-0.58-2-1.12
		c-2.88-3.26-5.16-6.91-6.22-11.17c-2.56-10.25-3.72-20.67-3.33-31.24c0.06-1.5,0.24-3.01,0.42-4.5c0.26-2.19,0.58-4.38,0.88-6.57
		c0.16-3.1,2.36-4.75,4.63-6.25c2.11-1.38,4.49-2.03,7.04-1.92c3.74,0.16,7.49,0.22,11.23,0.49c4.05,0.29,7.47,2.13,10.5,4.73
		c1.13,0.98,2.13,2.11,3.47,3.46c-0.9,0.18-1.39,0.36-1.88,0.37c-2.95,0.02-5.9,0-8.85-0.02c-4.01-0.03-7.94,0.54-11.81,1.57
		c-4.36,1.16-6.92,4.32-6.9,8.87c0.01,3.41,0,6.88,0.57,10.23c0.76,4.51,2.76,8.5,6.98,10.91c2.75,1.57,5.82,2.2,8.92,2.46
		c3.42,0.29,6.85,0.04,10.21-0.79c2.71-0.67,5.42-1.3,8.14-1.92c1.57-0.35,1.68-0.25,2.37,1.41
		C388.94,326.17,388.94,326.58,388.93,326.99z"/>
	<path class="st1" d="M344.33,292.13c-0.3,2.19-0.61,4.38-0.88,6.57c-0.18,1.5-0.36,3-0.42,4.5c-0.39,10.57,0.77,20.99,3.33,31.24
		c1.06,4.25,3.34,7.91,6.22,11.17c0.48,0.55,1.28,0.98,2,1.12c3.04,0.6,6.12,1.03,9.17,1.6c4.94,0.92,9.85,0.69,14.64-0.69
		c3.74-1.07,6.5-3.43,7.52-7.34c0.88-3.38,1.56-6.81,2.35-10.22c0.08-0.36,0.33-0.67,0.51-1.01c0.26,0.74,0.76,1.49,0.75,2.23
		c-0.02,3.5-0.16,7-0.27,10.5c-0.03,0.96-0.04,1.91-0.14,2.86c-0.24,2.21-0.42,4.43-0.83,6.61c-0.74,3.98-1.73,7.92-2.41,11.92
		c-0.3,1.79-0.09,3.66-0.12,5.5c-0.05,2.75-0.62,3.56-3.32,3.97c-1.88,0.29-3.81,0.45-5.7,0.35c-2.72-0.13-3.84-1.45-3.91-4.14
		c-0.03-0.96,0.03-1.92-0.01-2.87c-0.09-2.23,0.36-3.9,2.85-4.84c1.69-0.63,3.4-1.74,4.57-3.69c-0.65-0.08-1.15-0.18-1.66-0.19
		c-2.72-0.02-5.44,0.09-8.15-0.04c-2.45-0.12-4.89-0.49-7.34-0.74c-0.71-0.07-1.43-0.2-2.14-0.18c-2.37,0.06-3.74,1.24-3.93,3.62
		c-0.25,3.09-0.28,6.19-0.53,9.28c-0.1,1.24-0.36,2.53-0.87,3.65c-1.52,3.3-4.54,4.75-8.21,4.13c-1.02-0.17-2.06-0.27-3.04-0.57
		c-2.48-0.78-3.55-2.13-3.65-4.72c-0.21-5.88-1.01-11.7-1.86-17.51c-0.1-0.71-0.08-1.43-0.08-2.15c0-10.46-0.23-20.92,0.08-31.37
		c0.22-7.44,0.37-14.96,2.42-22.22C341.93,296.2,342.59,293.89,344.33,292.13z"/>
	<path class="st1" d="M332.97,319.33c0.02,6.29-0.01,12.58,0.09,18.87c0.07,4.92,0.34,9.84,0.45,14.76c0.06,2.71-0.19,2.9-2.79,2.87
		c-2.95-0.03-5.04-1.45-5.85-4.3c-0.49-1.74-0.79-3.56-0.9-5.36c-0.26-4.36-0.48-8.72-0.46-13.08c0.02-2.76,0.53-5.51,0.77-8.27
		c0.11-1.26,0.05-2.54,0.15-3.81c0.06-0.85,0.26-1.69,0.4-2.53c0.08,0.99,0.41,1.6,1.61,1.45
		C328.61,319.66,330.8,319.52,332.97,319.33z"/>
	<path class="st4" d="M393.37,308.38c0.42,5.12-1.18,7.58-5.91,9.65c-4.96,2.17-10.06,3.58-15.52,3.3
		c-4.72-0.24-8.94-1.65-12.04-5.45c-3.07-3.76-3.8-8-2.24-12.57c0.45-1.31,1.03-2.72,2.71-3.04c0.68,2.34,1.06,4.83,2.12,6.99
		c1.7,3.46,4.82,5.48,8.65,5.38c5.78-0.15,11.56-0.76,17.33-1.25C390.55,311.2,392.24,310.2,393.37,308.38z"/>
	<path class="st5" d="M393.37,308.38c-1.13,1.82-2.82,2.82-4.9,3c-5.77,0.49-11.55,1.1-17.33,1.25c-3.84,0.1-6.96-1.91-8.65-5.38
		c-1.06-2.16-1.44-4.65-2.12-6.99c6.5-1.61,12.99-3.26,19.78-1.92c3.08,0.61,5.99,1.62,8.62,3.36
		C391.2,303.31,392.92,305.41,393.37,308.38z M375.29,299.75c-0.58,0.06-1.55,0.07-2.47,0.28c-1.9,0.45-2.44,1.19-2.41,3
		c0.03,1.72,0.43,2.29,2.44,2.6c2.59,0.4,5.21,0.61,7.82,0.87c1.66,0.17,3.33,0.33,4.99,0.4c1.17,0.05,1.94-0.55,2.23-1.75
		c0.28-1.18-0.06-2.2-1.1-2.89c-0.26-0.17-0.56-0.31-0.86-0.42C382.61,300.64,379.21,299.85,375.29,299.75z"/>
	<path class="st13" d="M332.97,319.33c-2.18,0.19-4.36,0.33-6.53,0.59c-1.2,0.15-1.53-0.46-1.61-1.45c0.14-0.86,0.2-1.74,0.43-2.57
		c0.9-3.23,2.96-4.56,6.23-4.1c1.64,0.23,2.09,0.65,2.01,2.32C333.42,315.87,333.16,317.6,332.97,319.33z"/>
	<path class="st2" d="M367.38,372.06c-1.26,0.08-2.52,0.16-3.78,0.24c-0.04-1.3-0.11-2.6-0.12-3.91c-0.01-1.26-0.05-2.54,0.11-3.78
		c0.06-0.49,0.56-1.19,0.99-1.32c0.74-0.22,1.35,0.28,1.53,1.09c0.08,0.38,0.05,0.79,0.12,1.17
		C366.61,367.73,367,369.89,367.38,372.06z"/>
	<path class="st1" d="M388.93,326.99c0-0.41,0.01-0.82,0.01-1.23C388.94,326.17,388.94,326.58,388.93,326.99z"/>
	<path class="st14" d="M211.84,288.84c1.49-1.19,2.92-2.46,4.48-3.56c1.47-1.03,3.18-1.48,4.99-1.4c4.07,0.18,8.15,0.23,12.2,0.59
		c5,0.45,9.05,2.93,12.39,6.59c0.28,0.31,0.53,0.91,0.41,1.24c-0.11,0.31-0.71,0.61-1.11,0.64c-1.03,0.08-2.07,0.03-3.11,0.01
		c-5.19-0.08-10.39-0.15-15.48,1.15c-1.31,0.34-2.66,0.64-3.87,1.21c-2.36,1.1-4.04,2.87-4.42,5.56c-0.65,4.69-0.78,9.39,0.41,14.02
		c1.96,7.63,7.43,11.5,15.31,12.22c6.06,0.55,11.88-1.05,17.69-2.53c0.91-0.23,1.86-0.29,2.79-0.43c0.16,0.15,0.33,0.29,0.49,0.44
		c0.02,0.8,0.05,1.6,0.08,2.4c-0.2,0.57-0.49,1.12-0.6,1.7c-0.59,3.27-0.99,6.59-1.77,9.82c-0.42,1.75-1.3,3.44-2.24,4.99
		c-1.05,1.72-2.61,3.05-4.54,3.72c-4.02,1.38-8.16,2.01-12.4,1.47c-3.62-0.47-7.21-1.2-10.83-1.58c-2.86-0.3-4.65-2.01-6.03-4.17
		c-1.36-2.13-2.54-4.43-3.48-6.78c-1.69-4.23-2.41-8.7-2.98-13.22c-0.72-5.68-1.49-11.34-1.28-17.09c0.06-1.58,0.38-3.16,0.42-4.74
		c0.1-3.85,0.62-7.6,2.27-11.14C211.79,289.65,211.77,289.23,211.84,288.84z"/>
	<path class="st15" d="M211.84,288.84c-0.07,0.39-0.06,0.82-0.22,1.16c-1.65,3.53-2.16,7.28-2.27,11.14
		c-0.04,1.58-0.36,3.16-0.42,4.74c-0.21,5.74,0.56,11.41,1.28,17.09c0.57,4.52,1.29,8.99,2.98,13.22c0.94,2.35,2.11,4.65,3.48,6.78
		c1.38,2.15,3.16,3.87,6.03,4.17c3.63,0.38,7.21,1.11,10.83,1.58c4.24,0.55,8.38-0.09,12.4-1.47c1.94-0.67,3.5-2,4.54-3.72
		c0.94-1.55,1.82-3.24,2.24-4.99c0.77-3.23,1.17-6.55,1.77-9.82c0.11-0.58,0.4-1.14,0.6-1.7c0.23,3.57,0.76,7.15,0.63,10.7
		c-0.16,4.61-0.73,9.21-1.33,13.79c-0.33,2.52-1.1,4.97-1.68,7.46c-0.79,3.43-1.4,6.87-0.87,10.42c0.23,1.53-0.46,2.73-1.89,3.22
		c-2.87,0.98-5.84,0.66-8.77,0.4c-0.5-0.04-1.22-0.68-1.36-1.18c-0.51-1.81-1.44-3.59-0.83-5.58c0.07-0.23,0.1-0.47,0.11-0.71
		c0.14-2.33,1.02-3.95,3.47-4.77c1.5-0.5,2.76-1.74,4.09-2.62c-0.55-1.21-1.35-0.89-2.01-0.89c-2.47,0.02-4.95,0.2-7.42,0.08
		c-2.78-0.14-5.56-0.43-8.31-0.85c-3.38-0.51-4.89,0.24-5.43,3.66c-0.49,3.13-0.54,6.34-0.63,9.52c-0.06,2.29-0.6,4.35-2.52,5.67
		c-1.14,0.78-2.56,1.42-3.92,1.57c-1.71,0.19-3.49-0.1-5.21-0.34c-2.58-0.36-3.91-2.03-4.18-4.53c-0.35-3.17-0.58-6.34-0.91-9.51
		c-0.26-2.53-0.61-5.05-0.9-7.58c-0.1-0.87-0.17-1.75-0.18-2.62c-0.02-11.33,0.03-22.67-0.05-34c-0.06-9.05,2.05-17.71,4.61-26.28
		C209.95,290.77,210.36,289.37,211.84,288.84z"/>
	<path class="st15" d="M199.23,318.46c0.04,8.84,0.04,17.69,0.13,26.53c0.03,2.62,0.35,5.24,0.43,7.86c0.09,2.63-0.69,3.3-3.25,3.06
		c-3.09-0.3-5.39-2.39-5.79-5.42c-0.77-5.84-1.39-11.7-0.95-17.61c0.3-4.05,0.58-8.09,0.89-12.14c0.02-0.29,0.23-0.57,0.35-0.86
		c2.19-0.17,4.38-0.3,6.56-0.56C198.17,319.25,198.69,318.76,199.23,318.46z"/>
	<path class="st4" d="M259.62,308.36c0.92,5.43-2.08,7.99-5.64,9.56c-5.15,2.27-10.45,3.82-16.17,3.42
		c-5.36-0.38-9.73-2.5-13.1-6.81c-2.4-3.07-1.7-10.78,0.71-13.29c0.21-0.22,0.53-0.33,0.79-0.49c0.61,1.7,1.16,3.43,1.83,5.11
		c1.56,3.94,4.35,6.54,8.67,6.77c6.12,0.33,12.21-0.26,18.26-1.29C256.94,311,258.55,310.11,259.62,308.36z"/>
	<path class="st5" d="M259.62,308.36c-1.07,1.75-2.68,2.64-4.65,2.98c-6.04,1.03-12.14,1.62-18.26,1.29
		c-4.32-0.23-7.11-2.83-8.67-6.77c-0.67-1.68-1.22-3.4-1.83-5.11c0.23-0.19,0.44-0.49,0.71-0.56c4.48-1.08,8.94-2.27,13.59-2.32
		c4.77-0.06,9.33,0.84,13.51,3.23c1.82,1.04,3.47,2.3,4.46,4.18C259,306.24,259.25,307.33,259.62,308.36z M242.33,299.53
		c-1.39,0.31-2.67,0.46-3.84,0.9c-1.36,0.51-1.93,1.68-1.79,3.04c0.14,1.33,0.64,1.85,2.41,2.1c2.59,0.37,5.2,0.63,7.81,0.91
		c1.42,0.16,2.84,0.32,4.27,0.41c1.44,0.08,2.43-0.48,2.74-1.44c0.42-1.3-0.05-2.47-1.32-3.25c-0.41-0.25-0.84-0.51-1.29-0.61
		C248.31,300.88,245.29,300.2,242.33,299.53z"/>
	<path class="st14" d="M199.23,318.46c-0.54,0.3-1.06,0.79-1.64,0.86c-2.18,0.26-4.37,0.38-6.56,0.56c0.32-1.63,0.46-3.32,1-4.87
		c0.89-2.55,3.32-3.71,5.94-3.16c1.16,0.25,1.88,0.84,1.75,2.12C199.58,315.47,199.4,316.97,199.23,318.46z"/>
	<path class="st2" d="M233.61,372.03c-1.31,0.09-2.62,0.18-3.93,0.27c0.02-2.53,0.03-5.06,0.06-7.59c0.01-0.8,0.31-1.46,1.2-1.46
		c0.8-0.01,1.36,0.47,1.44,1.3c0.1,1.03,0.05,2.08,0.22,3.08C232.87,369.11,233.27,370.57,233.61,372.03z"/>
	<path class="st15" d="M255,324.6c-0.16-0.15-0.33-0.29-0.49-0.44C254.68,324.31,254.84,324.45,255,324.6z"/>
	<path class="st16" d="M212.66,418.87c2.23-3.99,5.4-6.77,10.12-6.93c4.06-0.13,8.14,0.08,12.19,0.38
		c5.27,0.39,9.51,2.97,13.07,6.76c0.31,0.33,0.53,0.76,0.93,1.35c-0.68,0.2-1.16,0.44-1.66,0.46c-1.19,0.05-2.39,0.05-3.59-0.02
		c-5.62-0.32-11.15,0.17-16.61,1.56c-4.56,1.16-6.48,3.24-7.02,7.91c-0.4,3.49-0.43,6.99,0.2,10.49
		c1.57,8.71,6.71,13.39,15.55,14.19c4.27,0.39,8.43-0.15,12.56-1.17c2.09-0.52,4.17-1.06,6.27-1.55c0.67-0.16,1.36-0.18,2.37-0.3
		c0,1.25,0,2.24,0,3.23c-0.79,4.95-1.67,9.88-3.46,14.6c-0.69,1.82-1.78,3.27-3.36,4.22c-4.33,2.6-9.16,3.07-14.05,2.66
		c-3.79-0.32-7.54-1.1-11.33-1.56c-1.58-0.19-3.02-0.69-4.04-1.83c-1.37-1.53-2.72-3.15-3.71-4.93c-3.67-6.55-4.57-13.83-5.29-21.13
		c-0.28-2.77-0.2-5.58-0.63-8.32c-0.7-4.41,0.11-8.71,0.48-13.06C211.85,423.53,213.3,421.35,212.66,418.87z"/>
	<path class="st17" d="M212.66,418.87c0.64,2.48-0.81,4.66-1.01,7.02c-0.36,4.34-1.17,8.65-0.48,13.06
		c0.43,2.74,0.35,5.55,0.63,8.32c0.73,7.3,1.63,14.59,5.29,21.13c1,1.78,2.35,3.4,3.71,4.93c1.02,1.14,2.46,1.64,4.04,1.83
		c3.78,0.46,7.54,1.24,11.33,1.56c4.89,0.41,9.72-0.07,14.05-2.66c1.58-0.95,2.67-2.4,3.36-4.22c1.79-4.73,2.67-9.65,3.46-14.6
		c0.9,4.74,0.83,9.53,0.54,14.31c-0.33,5.5-1.11,10.94-2.59,16.28c-0.96,3.47-1.31,7.04-1.07,10.67c0.21,3.15-0.76,4.25-3.86,4.48
		c-1.75,0.13-3.52,0.13-5.26,0c-2.5-0.18-3.84-1.46-3.91-3.96c-0.05-1.97,0.23-3.97,0.56-5.93c0.09-0.56,0.78-1.13,1.33-1.49
		c1.4-0.91,2.89-1.69,4.32-2.56c0.59-0.36,1.12-0.84,1.62-1.72c-0.64-0.05-1.29-0.19-1.92-0.12c-5.36,0.54-10.68,0.17-15.98-0.74
		c-3.49-0.6-5.03,0.3-5.53,3.81c-0.42,2.9-0.49,5.87-0.47,8.81c0.04,4.53-0.94,6.14-5.35,7.43c-2.75,0.8-5.52,0.65-8.19-0.54
		c-1.28-0.57-2.04-1.42-2.18-2.86c-0.33-3.33-0.79-6.65-1.1-9.99c-1.02-11.06-1.23-22.14-1.11-33.24
		c0.06-5.66,0.08-11.33,0.07-16.99c0-2.26,0.34-4.42,1.07-6.57c0.46-1.34,0.54-2.8,0.79-4.21
		C209.52,426.15,210.49,422.3,212.66,418.87z"/>
	<path class="st17" d="M201.12,446.83c0.05,0.87,0.13,1.74,0.14,2.61c0.05,7.88,0.04,15.76,0.15,23.64c0.04,2.7,0.36,5.4,0.52,8.1
		c0.13,2.13-0.27,2.53-2.39,2.57c-3.58,0.07-5.79-1.45-6.58-4.96c-0.61-2.7-1.16-5.5-1.12-8.25c0.1-7.32,0.54-14.63,0.86-21.94
		c0.01-0.28,0.25-0.56,0.38-0.84c0.75,0,1.51,0.07,2.25-0.03C197.26,447.47,199.19,447.14,201.12,446.83z"/>
	<path class="st4" d="M261.35,437.04c0.77,3.15-0.42,6.19-3.51,7.8c-6.62,3.46-13.58,5.41-21.17,3.93
		c-4.42-0.86-7.73-3.37-10.26-6.88c-2.37-3.28-1.47-10.29,1.45-13.16c0.09-0.09,0.29-0.08,0.45-0.12c0.56,1.65,1.1,3.32,1.7,4.96
		c1.08,3,2.9,5.34,6.07,6.27c1.36,0.4,2.82,0.76,4.21,0.69c5.17-0.25,10.33-0.66,15.49-1.06
		C257.89,439.32,259.75,438.46,261.35,437.04z"/>
	<path class="st5" d="M261.35,437.04c-1.6,1.42-3.46,2.28-5.58,2.45c-5.16,0.4-10.32,0.81-15.49,1.06
		c-1.39,0.07-2.85-0.29-4.21-0.69c-3.17-0.94-4.99-3.28-6.07-6.27c-0.59-1.64-1.13-3.31-1.7-4.96c0.38-0.26,0.73-0.68,1.14-0.75
		c4.8-0.73,9.59-1.68,14.42-2.01c5.56-0.38,10.48,1.71,14.77,5.21C260.5,432.58,261.73,434.46,261.35,437.04z M256.43,432.1
		c-0.17-0.25-0.44-0.96-0.96-1.32c-0.97-0.67-2.03-1.27-3.14-1.68c-3.49-1.29-7.16-1.46-10.83-1.42c-1.64,0.02-3.57,2.36-3.27,3.98
		c0.1,0.55,0.58,1.14,1.04,1.49c0.49,0.36,1.16,0.6,1.78,0.65c4.28,0.37,8.56,0.73,12.84,0.97
		C255.51,434.87,256.4,433.94,256.43,432.1z"/>
	<path class="st16" d="M201.12,446.83c-1.93,0.31-3.86,0.65-5.8,0.91c-0.74,0.1-1.5,0.02-2.25,0.03c0.16-1.24,0.16-2.53,0.51-3.72
		c1.23-4.15,3.66-5.28,7.99-3.72C201.95,442.49,201.5,444.66,201.12,446.83z"/>
	<path class="st2" d="M235.6,499.96c-1.39,0.02-2.77,0.03-4.16,0.05c0.1-2.22,0.2-4.45,0.31-6.67c0.04-0.91-0.25-2.06,1.18-2.18
		c0.96-0.08,1.32,0.6,1.55,2.24C234.8,495.6,235.23,497.78,235.6,499.96z"/>
	<path class="st2" d="M147.86,190.38c-1.52-14.95-1.9-29.21-6-42.98c0.33-0.15,0.66-0.29,0.99-0.44c0.85,1.26,1.85,2.44,2.53,3.78
		c3.36,6.64,4.93,13.79,5.72,21.14c0.37,3.38,0.79,6.77,0.85,10.16C152.02,185.03,151.25,187.86,147.86,190.38z"/>
	<path class="st18" d="M110.17,435.48c-1.65-0.2-3.3-0.41-4.95-0.6c-1.5-0.17-2.99-0.34-4.49-0.45c-1.91-0.14-2.82-0.73-3.04-2.07
		c-0.29-1.79,0.4-3.3,2.19-3.7c1.83-0.41,3.78-0.5,5.66-0.4c1.89,0.1,3.8,0.47,5.61,1.01c1.32,0.4,2.56,1.19,3.73,1.96
		c0.84,0.55,1.26,1.42,0.85,2.5c-0.43,1.12-1.31,1.54-2.44,1.55c-1.04,0.01-2.07,0-3.11,0L110.17,435.48z"/>
	<path class="st18" d="M386.44,435.42c-1.09-0.14-2.5-0.35-3.92-0.5c-1.89-0.2-3.79-0.36-5.69-0.51c-1.75-0.13-2.86-0.99-3.05-2.43
		c-0.2-1.51,0.5-2.93,2.11-3.29c1.83-0.41,3.79-0.6,5.65-0.43c2.28,0.2,4.55,0.74,6.75,1.39c1.08,0.32,2.14,1.07,2.94,1.88
		c1.38,1.38,0.8,3.09-1.15,3.54C389.03,435.32,387.89,435.3,386.44,435.42z"/>
	<path class="st18" d="M525.71,435c-1.65-0.19-3.3-0.4-4.96-0.58c-1.65-0.18-3.31-0.37-4.97-0.48c-1.98-0.13-3.19-0.93-3.41-2.37
		c-0.21-1.37,0.69-3.02,2.37-3.4c1.83-0.41,3.79-0.55,5.66-0.37c2.28,0.21,4.55,0.75,6.76,1.38c1,0.29,1.95,1.04,2.73,1.79
		c0.73,0.69,0.83,1.7,0.39,2.67c-0.42,0.92-1.21,1.2-2.16,1.18c-0.8-0.01-1.59,0-2.39,0L525.71,435z"/>
	<path class="st18" d="M524.62,306.14c-2.85-0.21-5.7-0.38-8.54-0.65c-1.7-0.16-2.74-1.07-2.91-2.33c-0.22-1.59,0.55-3.09,2.29-3.38
		c2.16-0.37,4.4-0.37,6.6-0.29c1.49,0.06,3.02,0.36,4.42,0.86c1.39,0.49,2.75,1.22,3.9,2.13c0.55,0.44,0.92,1.57,0.8,2.29
		c-0.17,1.04-1.21,1.33-2.26,1.31c-1.43-0.03-2.86-0.01-4.29-0.01L524.62,306.14z"/>
	<path class="st0" d="M990.5,404.26c-4.19-3.93-9.42-7.24-15.13-9.57c-3.95-1.61-8.05-2.34-12.01-3.05
		c-1.46-0.26-2.85-0.52-4.21-0.8c2.61-7.2,5.53-14.34,6.9-21.77c3.95-21.34,6.8-42.88,10.14-64.33c4.34-27.85,7.66-55.68,0.85-83.68
		c-1.91-7.86-0.15-15.06,4.33-22.28c4.02-6.49,7.33-14.14,8.31-21.63c1.6-12.28,1.62-24.91-2.64-36.94
		c-1.43-4.05-3.21-8.14-5.67-11.62c-10.87-15.36-21.99-30.55-33.12-45.72c-17.04-23.23-40.56-35.2-68.8-37.01
		c-19.35-1.24-38.84-0.46-58.26-0.09c-5.36,0.1-11.24,0.9-15.93,3.27c-16.98,8.58-30.75,20.49-37.33,39.24
		c-5.18,14.75-10.72,29.32-12.45,45.06c-0.87,7.88-4.82,10.57-12.85,11.36c-5.15,0.5-10.29,1.44-15.34,2.59
		c-17.33,3.94-26.72,13.44-29.1,31.27c-1.49,11.14-1.31,22.51-1.61,33.79c-0.65,24.03-1.55,48.07-1.47,72.1
		c0.03,10.93,1.38,21.99,3.46,32.74c3.23,16.69,13.95,26.91,30.47,30.81c4.77,1.12,9.71,1.59,14.57,2.28
		c7.2,1.03,9.72,3.44,10.3,10.51c0.86,10.51,1.6,21.03,2.36,31.55l-8.77,2.78c-6.24,1.98-12.49,3.95-18.73,5.95
		c-6.05,1.93-9.44,6.46-9.55,12.74c-0.11,6.2,3.01,10.88,8.79,13.19c1.18,0.47,2.36,0.99,3.54,1.5c3.52,1.53,7.15,3.12,11.17,3.84
		c4.4,0.79,8.81,1.63,13.21,2.47c14.54,2.77,29.58,5.64,44.63,6.7c24.96,1.76,50.38,1.85,74.96,1.93l6.9,0.03c0.39,0,0.78,0,1.16,0
		c23.28,0,48.43-2.82,79.02-8.87c10.84-2.14,19.06-5.39,25.87-10.21c4.23-3,6.5-6.39,6.75-10.06
		C995.45,410.79,993.86,407.41,990.5,404.26z M723.43,182.18c3.03-11.77,11.99-16.81,23.89-14.12c3.58,0.81,5.84,2.41,5.37,6.45
		c-0.74,6.3-1.47,12.6-2.2,18.91c-9.7,1.11-19.4,2.21-29.1,3.32v0C722.04,191.87,722.22,186.89,723.43,182.18z M720.08,200.56
		c-0.05,0.15-0.09,0.29-0.13,0.44C719.99,200.85,720.04,200.7,720.08,200.56z M861.8,360.7c0.12-3.01,0.1-6.14,3.94-6.46
		c3.98-0.33,5.43,2.53,5.94,5.97c1.08,7.19,2.14,14.38,3.2,21.58l-14.1-0.01C861.15,374.75,861.53,367.73,861.8,360.7z
		 M960.62,137.3c5.97,5.06,9.69,11.46,9.01,19.71c-7.48,7.12-16.57,10.1-26.73,10.64c-16.17,0.86-32.32,2.39-48.5,2.81
		c-21.98,0.56-33.75-8.38-40.43-29.36c-1.48-4.67-3.23-9.25-4.85-13.87c1.38-0.95,2.66-2.52,4.14-2.74
		c17.16-2.64,34.28-5.98,51.55-7.33C926.09,115.5,944.56,123.69,960.62,137.3z M791.71,95.36c3.65-14.2,21.27-28.58,36.64-28.65
		c15.91-0.07,31.92,0.08,47.7,1.83c19.84,2.19,35.52,12.66,48.84,29.05c-3.13,0.82-5.19,1.77-7.27,1.82
		c-6.36,0.15-12.75,0.19-19.1-0.17c-18.7-1.03-36.98,1.43-55.02,6.11c-15.28,3.96-21.7,11.31-23.8,27.08
		c-2.56,19.21-1.86,38.05,5.57,56.33c6.3,15.52,17.24,25.68,33.21,30.67c15.53,4.85,31.37,5.66,47.23,2.84
		c12.52-2.22,24.83-5.59,37.26-8.36c3.03-0.68,6.12-1.02,10.44-1.73c0.14,4.79,0.26,8.67,0.37,12.54v0
		c-0.47,1.33-1.23,2.62-1.37,3.98c-1.56,15.31-5.16,30.14-10.19,44.65c-4.05,11.69-11.64,19.5-23.65,23.42
		c-17.78,5.8-35.82,5.99-54.01,3.41c-10.85-1.54-21.55-4.27-32.43-5.5c-5.13-0.58-8.75-2.38-11.75-6.18
		c-9.78-12.39-17.57-25.83-21.12-41.37c-5.02-21.96-8.73-44.11-10.82-66.59c-2.31-24.89-2.59-49.56,2.89-74.12
		C792.14,102.9,791.62,99.07,791.71,95.36c-1.34,2.67-2.92,5.28-4.36,7.92C788.79,100.64,790.37,98.04,791.71,95.36z M983,416.66
		c-5.69,4.03-12.76,6.78-22.25,8.66c-30.46,6.02-55.38,8.75-78.31,8.69l-6.91-0.03c-24.42-0.08-49.68-0.17-74.33-1.91
		c-14.5-1.02-29.26-3.84-43.53-6.56c-4.44-0.85-8.88-1.69-13.31-2.49c-2.92-0.53-5.91-1.83-9.07-3.2c-1.27-0.55-2.54-1.11-3.81-1.62
		c-2.13-0.85-2.9-2.01-2.86-4.26c0.04-2.23,0.8-3.22,3-3.92c6.23-1.99,12.47-3.96,18.71-5.94l4.51-1.43
		c0.43,0.59,0.79,1.13,0.98,1.6c3.01,7.57,8,13.08,14.81,16.38c27.99,13.54,53.6,12.47,76.13-3.21
		c7.79-5.41,12.19-11.88,13.46-19.78c0.11-0.68,0.19-1.4,0.27-2.13c0.31-2.79,0.58-3.79,1.2-4.3l11.88,0.01
		c0.26,0.26,0.51,0.51,0.76,0.76c1.35,1.33,2.62,2.59,3.36,3.85c6.7,11.48,16.5,17.01,29.18,16.45c8-0.36,15.74-0.36,23.01,0
		c9.8,0.48,17.86-2.67,24.67-9.64c0.66-0.67,1.85-1.3,3.12-1.97c0.22-0.12,0.45-0.24,0.68-0.36c1.13,0.22,2.25,0.42,3.35,0.62
		c3.64,0.65,7.08,1.26,10.1,2.5c4.59,1.87,8.94,4.61,12.25,7.72c1.43,1.34,1.77,2.21,1.75,2.52
		C985.77,414.05,985.15,415.14,983,416.66z"/>
	<path class="st0" d="M886.18,137.93c0.62,4.59,4.41,7.9,10.58,8.47c10.32,0.96,20.66,1.59,31,2.36l0.03-0.23
		c5.2,0,10.39-0.08,15.59,0.02c3.8,0.07,7.59-0.98,8.2-4.76c0.43-2.63-0.89-6.74-2.9-8.33c-4.19-3.29-9.13-5.95-14.17-7.74
		c-5.1-1.81-10.65-2.93-16.06-3.13c-7.98-0.3-16.13-0.28-23.96,1.05C888.19,126.72,885.4,132.15,886.18,137.93z"/>
	<path class="st18" d="M103.73,299.51c2.75,0.61,5.77,1.28,8.77,1.96c0.23,0.05,0.44,0.19,0.65,0.3c1.42,0.81,2.54,2.48,2.14,3.42
		c-0.62,1.46-1.96,1.79-3.37,1.71c-2.22-0.11-4.43-0.26-6.64-0.49c-1.89-0.2-3.76-0.59-5.65-0.8c-1.21-0.14-1.88-0.63-1.98-1.91
		c-0.15-1.88,0.16-2.92,1.54-3.36C100.53,299.92,101.97,299.82,103.73,299.51z"/>
	<path class="st18" d="M375.29,299.75c3.92,0.1,7.32,0.89,10.64,2.09c0.3,0.11,0.59,0.24,0.86,0.42c1.04,0.69,1.39,1.71,1.1,2.89
		c-0.29,1.2-1.06,1.79-2.23,1.75c-1.67-0.07-3.33-0.23-4.99-0.4c-2.61-0.26-5.23-0.47-7.82-0.87c-2-0.31-2.4-0.88-2.44-2.6
		c-0.04-1.8,0.51-2.55,2.41-3C373.74,299.82,374.71,299.81,375.29,299.75z"/>
	<path class="st18" d="M242.33,299.53c2.96,0.67,5.98,1.35,8.99,2.06c0.45,0.11,0.89,0.37,1.29,0.61c1.27,0.78,1.73,1.95,1.32,3.25
		c-0.31,0.96-1.3,1.53-2.74,1.44c-1.43-0.08-2.85-0.25-4.27-0.41c-2.6-0.29-5.21-0.55-7.81-0.91c-1.77-0.25-2.27-0.77-2.41-2.1
		c-0.14-1.36,0.43-2.53,1.79-3.04C239.66,299.99,240.94,299.84,242.33,299.53z"/>
	<path class="st18" d="M256.43,432.1c-0.02,1.83-0.91,2.76-2.53,2.67c-4.29-0.24-8.57-0.6-12.84-0.97
		c-0.61-0.05-1.29-0.29-1.78-0.65c-0.47-0.35-0.94-0.94-1.04-1.49c-0.31-1.62,1.63-3.97,3.27-3.98c3.67-0.04,7.34,0.13,10.83,1.42
		c1.11,0.41,2.17,1.01,3.14,1.68C255.98,431.14,256.25,431.85,256.43,432.1z"/>
	<path class="st0" d="M111.84,137.48c3.62,0.2,6.48,0.28,9.32,0.53c3.45,0.31,5.88,2.19,7,5.42c1.94,5.57,2.82,11.35,2.6,17.24
		c-0.12,3.3-1.83,5.62-4.94,6.84c-0.76,0.3-1.52,0.64-2.31,0.8c-6.75,1.37-13.53,1.5-20.25-0.05c-1.94-0.45-3.77-1.5-5.54-2.48
		c-3.15-1.75-4.52-4.62-4.56-8.13c-0.07-4.99,0.82-9.84,2.63-14.47c0.87-2.22,2.69-3.74,5.08-4.15
		C104.75,138.37,108.66,137.92,111.84,137.48z M109.94,163.68c3.92-0.41,7.85-0.69,11.74-1.29c2.99-0.46,3.82-1.73,3.55-4.81
		c-0.23-2.57-0.53-5.14-1-7.68c-0.75-4.03-2.68-6.38-6.68-6.54c-4.56-0.18-9.18,0.51-13.74,1.09c-1.02,0.13-2.34,1.15-2.75,2.1
		c-1.14,2.59-2.23,5.3-2.68,8.07c-0.73,4.48,1.4,7.16,5.9,8.13C106.13,163.14,108.02,163.36,109.94,163.68z"/>
	<path class="st0" d="M726,507.22c-0.74,4.69-1.48,9.38-2.21,14.07c-3.08,19.83-6.16,39.66-9.23,59.49
		c-0.49,3.15-0.91,6.31-1.32,9.48c-0.23,1.75-0.88,3.04-2.88,3.2c-2.49,0.2-3.84-0.92-3.55-3.43c0.57-4.88,1.27-9.75,2.04-14.6
		c3.61-22.84,7.28-45.67,10.9-68.51c0.89-5.64,1.67-11.31,2.55-16.95c0.18-1.17,0.37-2.45,0.97-3.42c0.47-0.77,1.56-1.56,2.4-1.58
		c0.85-0.02,2.19,0.7,2.5,1.43c1.28,3.03,2.59,6.11,3.25,9.31c1.37,6.62,2.24,13.34,3.47,19.99c3.37,18.28,6.82,36.55,10.32,55.29
		c0.57-3.85,1.07-7.38,1.61-10.9c3.54-23.39,7.08-46.78,10.65-70.16c0.2-1.3,0.47-2.65,1.02-3.83c1.08-2.34,3.41-2.89,5.18-1.02
		c1.1,1.16,2.02,2.89,2.22,4.46c2.84,22.15,5.57,44.31,8.26,66.48c1.29,10.69,2.43,21.39,3.63,32.09c0.07,0.66,0.12,1.32,0.19,1.98
		c0.17,1.55,0.14,3-1.82,3.38c-1.7,0.33-3.46-0.75-4-2.48c-0.23-0.76-0.33-1.56-0.42-2.35c-1.63-14.39-3.24-28.79-4.89-43.18
		c-1.58-13.73-3.2-27.46-4.82-41.19c-0.02-0.2-0.21-0.38-0.51-0.92c-0.36,1.09-0.77,1.91-0.89,2.76
		c-3.01,21.18-6.01,42.37-8.97,63.56c-0.9,6.45-1.65,12.92-2.54,19.38c-0.5,3.65-1.5,4.38-4.56,3.91c-1.77-0.28-2.46-1.34-2.75-2.92
		c-0.94-5.09-1.95-10.17-2.85-15.27c-3.84-21.85-7.65-43.71-11.48-65.56c-0.11-0.63-0.38-1.23-0.57-1.85
		C726.6,507.3,726.3,507.26,726,507.22z"/>
	<path class="st0" d="M697.48,560.86c0.6,8.93,1.21,17.95,1.83,26.95c0.03,0.4,0.18,0.78,0.22,1.18c0.28,2.9-0.29,3.55-3.21,3.54
		c-5.46-0.03-10.91-0.12-16.37-0.14c-1.32,0-2.65,0.08-3.96,0.27c-3.2,0.46-5.13-1-5.29-4.19c-0.26-5.04-0.43-10.09-0.69-15.13
		c-0.31-6.05-5.07-8.77-10.6-6.1c-1.79,0.86-2.26,2.31-2.29,4.24c-0.07,5.98-0.26,11.96-0.5,17.93c-0.13,3.08-0.46,3.35-3.57,3.4
		c-5.32,0.09-10.63,0.15-15.95,0.14c-2.63,0-4.43-1.97-4.48-5.03c-0.2-12.5-0.45-24.99-0.45-37.49c0-11.06,1.05-22.04,3.63-32.83
		c2.02-8.45,4.81-16.6,9.46-24c6.02-9.56,12.27-11.74,23.09-8.58c9.46,2.77,16.73,7.9,20.46,17.38c0.37,0.95,1.47,2.1,2.39,2.26
		c4.81,0.84,7.47,4.15,9.06,8.17c1.8,4.54,3.19,9.3,4.21,14.07c1.08,5.06,1.62,10.24,2.24,15.38c0.91,7.54-1.52,13.6-8.18,17.69
		C698.2,560.18,697.93,560.47,697.48,560.86z M692.71,586.28c0-3.48,0.08-6.49-0.01-9.49c-0.44-13.43-0.6-26.88-2.59-40.2
		c-1.37-9.19-3-18.35-4.8-27.47c-1.01-5.11-3.89-9.33-7.96-12.58c-5.04-4.01-10.99-5.9-17.3-6.55c-2.9-0.29-5.42,0.8-7.29,3.3
		c-3.51,4.7-6.53,9.68-8.45,15.22c-3.91,11.28-5.33,23.06-5.99,34.86c-0.72,13.01-0.55,26.06-0.76,39.1c-0.01,0.4-0.02,0.8,0,1.2
		c0.08,1.77,0.97,2.62,2.8,2.59c3.16-0.05,6.32-0.01,9.82-0.01c0.15-2.02,0.3-3.57,0.36-5.12c0.17-4.34,0.21-8.69,0.47-13.03
		c0.21-3.36,1.96-5.66,5.21-6.85c3.8-1.4,7.68-2.06,11.73-1.78c5.71,0.4,7.3,1.81,7.79,7.39c0.48,5.56,0.88,11.12,1.24,16.69
		c0.1,1.49,0.38,2.7,2.15,2.72C683.62,586.31,688.1,586.28,692.71,586.28z M697.22,553.52c3.31-2.46,4.06-5.22,4.01-8.14
		c-0.06-3.31-0.48-6.62-0.83-9.92c-0.78-7.17-2.31-14.15-5.59-20.64c-0.66-1.31-1.64-2.47-2.47-3.69c-0.32,0.14-0.65,0.28-0.97,0.43
		C695.36,524.99,695.74,538.92,697.22,553.52z"/>
	<path class="st0" d="M860.04,592.71c-1.26,0.21-2.17,0.33-3.06,0.51c-1.94,0.39-3.05-0.57-3.67-2.25
		c-0.41-1.12-0.72-2.28-1.01-3.44c-6.95-27.71-13.88-55.41-20.83-83.12c-0.28-1.1-0.67-2.18-1-3.26c-0.3,0.04-0.59,0.07-0.89,0.11
		c0.25,30.36,0.5,60.72,0.76,91.45c-1.22,0.18-2.5,0.61-3.74,0.52c-2.33-0.18-2.92-0.98-2.93-3.36c-0.07-32.72-0.14-65.44-0.2-98.16
		c0-1.19-0.01-2.44,0.32-3.55c1.13-3.78,5.72-4.79,8.2-1.72c1.04,1.29,1.62,3.02,2.14,4.64c6.86,21,11.54,42.56,16.57,64.03
		c1.18,5.04,2.28,10.11,3.45,15.15c0.13,0.56,0.45,1.09,1.36,1.55c0.13-1.1,0.37-2.19,0.37-3.29c0.07-15.03,0.23-30.06,0.11-45.09
		c-0.08-10.37-0.6-20.73-0.84-31.1c-0.04-1.84,0.13-3.74,0.53-5.53c0.36-1.61,1.32-2.97,3.36-2.69c1.75,0.24,2.9,1.64,2.83,3.73
		c-0.14,3.99-0.59,7.97-0.58,11.95c0.01,8.64,0.06,17.3,0.4,25.93c0.78,19.83,0.16,39.63-1.15,59.42
		C860.37,587.62,860.21,590.1,860.04,592.71z"/>
	<path class="st0" d="M817.48,532.61c0.28,15.95-2.19,31.54-6.05,46.92c-0.8,3.17-2.01,6.37-3.7,9.16
		c-3.07,5.05-7.58,5.86-12.64,2.77c-3.46-2.11-5.38-5.35-6.72-9.1c-2.74-7.71-3.9-15.71-4.63-23.79
		c-1.63-18.06-1.13-36.11,0.6-54.13c0.57-5.9,2.41-11.42,5.58-16.45c2.71-4.29,6.15-5.45,10.95-3.77c4.12,1.43,6.94,4.33,8.91,8.12
		c3.54,6.78,5.76,14.02,6.61,21.58C817.08,520.12,817.14,526.38,817.48,532.61z M810.86,531.87c-0.22-3.63-0.61-9.33-0.92-15.03
		c-0.46-8.4-3.13-16.1-7.24-23.37c-1.02-1.8-2.43-2.78-4.5-2.71c-2.04,0.08-3.56,1-4.31,2.97c-0.52,1.36-1.25,2.7-1.45,4.11
		c-0.72,4.99-1.34,9.99-1.84,15c-1.36,13.65-1.79,27.33-0.4,41c0.75,7.39,1.83,14.75,3.11,22.06c0.45,2.54,1.69,5.05,3.06,7.27
		c1.8,2.9,4.45,3.02,6.46,0.24c1.44-1.98,2.52-4.41,3.11-6.79C809.42,562.62,810.5,548.32,810.86,531.87z"/>
	<path class="st0" d="M1008.21,519.05c-0.22,8.24-0.34,16.49-0.67,24.73c-0.42,10.52-1.81,20.93-4.33,31.15
		c-0.82,3.33-2.17,6.55-3.51,9.73c-3.96,9.42-17.67,10.78-23.36,2.65c-3.91-5.58-6.25-11.74-7.32-18.35
		c-1.04-6.42-1.71-12.91-2.33-19.4c-1.06-10.98-2.19-21.97-2.84-32.98c-0.55-9.29-0.46-18.61-0.64-27.92
		c-0.01-0.66,0.02-1.34,0.18-1.98c0.43-1.79,1.95-3.07,3.36-2.76c1.67,0.37,2.36,1.56,2.41,3.21c0.09,2.52,0.29,5.05,0.31,7.57
		c0.13,18.24,1.67,36.4,3.67,54.51c0.87,7.9,2.27,15.77,3.91,23.56c0.7,3.3,2.31,6.53,4.05,9.47c2.71,4.58,7.84,5.03,11.3,0.94
		c1.74-2.06,3.07-4.7,3.87-7.29c2.69-8.67,4.09-17.64,4.61-26.66c0.82-14.2,1.07-28.43,1.61-42.65c0.2-5.31,0.52-10.62,0.86-15.93
		c0.08-1.31,0.25-2.71,0.79-3.88c0.36-0.79,1.45-1.76,2.17-1.73c0.81,0.03,1.92,0.96,2.27,1.76c0.45,1.03,0.38,2.34,0.36,3.52
		c-0.19,9.57-0.42,19.15-0.63,28.72L1008.21,519.05z"/>
	<path class="st0" d="M1019.47,561.05c0.77,4.97,1.09,10.05,2.39,14.88c3.24,12.03,14.78,12.23,21.66,6.67
		c10.27-8.29,11.4-23.81,2.31-33.19c-5.13-5.29-10.86-9.63-17.57-12.87c-9.18-4.44-13.08-12.48-13.28-22.39
		c-0.14-7.02,1.31-13.75,4.62-19.98c1.05-1.98,2.39-3.84,3.81-5.58c3.26-3.98,7.47-5.81,12.67-5.25c4.54,0.49,9.01,1.27,12.69,4.19
		c1.41,1.12,2.66,2.62,3.52,4.19c1.04,1.88,0.42,3.27-1.25,4.47c-1.64,1.17-2.85,0.51-4.25-0.59c-1.95-1.54-3.94-3.44-6.22-4.06
		c-8.13-2.21-11.87-0.26-15.49,6.01c-3.38,5.87-5.05,12.26-3.58,19.15c1.24,5.82,4.43,10.16,9.69,12.93
		c5.92,3.12,11.44,6.79,16.25,11.44c5.36,5.17,9.99,10.95,10.55,18.68c0.89,12.25-2.31,22.94-13.21,30.12
		c-4.82,3.17-10.16,3.84-15.7,2.8c-4.56-0.85-7.91-3.63-10.35-7.51c-2.24-3.56-3.29-7.48-3.73-11.65
		c-0.66-6.34-1.77-12.65-0.67-19.05c0.55-3.18,1.51-4.37,3.29-4.2c1.66,0.16,2.67,1.92,2.63,4.75c-0.03,1.99-0.18,3.98-0.27,5.98
		C1019.82,560.99,1019.65,561.02,1019.47,561.05z"/>
	<path class="st0" d="M903.9,552.53c-0.42,6.86-0.69,13.09-1.24,19.29c-0.25,2.89-0.76,5.83-1.69,8.57
		c-0.84,2.47-2.1,4.93-3.71,6.97c-7,8.88-19.3,7.49-23.88-2.89c-2.02-4.56-3.32-9.55-4.2-14.48c-2.35-13.17-1.72-26.51-1.22-39.78
		c0.27-7.29,0.95-14.59,1.99-21.81c0.95-6.61,3.26-12.86,7.08-18.46c3.8-5.58,12-7.86,18.11-5.08c1.89,0.86,2.96,2.23,2.89,4.33
		c-0.07,2.16-1.44,3.3-3.64,3.04c-1.05-0.13-2.08-0.44-3.11-0.66c-4.65-1.01-7.27,0.08-9.67,4.23c-3.99,6.91-6.11,14.43-6.8,22.32
		c-1.32,15.13-1.52,30.27-0.09,45.41c0.51,5.43,1.22,10.85,3.63,15.84c2.53,5.23,6.03,6.52,11.44,4.58
		c2.09-0.75,3.45-2.12,3.93-4.13c0.97-3.99,2.06-8,2.46-12.07c0.58-5.94,0.63-11.93,0.83-17.91c0.15-4.41,0.74-5.1,5.1-5.18
		c3.46-0.06,6.92-0.06,10.38-0.08c1.67-0.01,3.25,0.16,3.71,2.2c0.42,1.89-0.39,3.69-2.42,4.47c-1.71,0.65-3.56,0.99-5.39,1.24
		C906.97,552.69,905.49,552.53,903.9,552.53z"/>
	<path class="st2" d="M697.22,553.52c-1.48-14.6-1.85-28.53-5.85-41.96c0.32-0.14,0.64-0.28,0.97-0.43
		c0.83,1.23,1.81,2.38,2.47,3.69c3.28,6.49,4.81,13.47,5.59,20.64c0.36,3.3,0.77,6.61,0.83,9.92
		C701.28,548.3,700.53,551.06,697.22,553.52z"/>
	<path class="st0" d="M662.05,501.87c3.53,0.19,6.32,0.27,9.1,0.52c3.37,0.3,5.74,2.14,6.84,5.29c1.89,5.44,2.76,11.08,2.54,16.84
		c-0.12,3.22-1.79,5.49-4.83,6.68c-0.74,0.29-1.48,0.63-2.25,0.78c-6.59,1.34-13.21,1.46-19.77-0.05c-1.89-0.43-3.68-1.46-5.41-2.42
		c-3.07-1.7-4.41-4.51-4.46-7.94c-0.06-4.87,0.8-9.61,2.57-14.13c0.85-2.17,2.63-3.65,4.96-4.06
		C655.12,502.73,658.94,502.3,662.05,501.87z M660.19,527.44c3.82-0.4,7.67-0.67,11.46-1.25c2.92-0.45,3.73-1.69,3.47-4.7
		c-0.22-2.51-0.52-5.02-0.98-7.5c-0.73-3.94-2.62-6.23-6.52-6.39c-4.45-0.18-8.96,0.5-13.41,1.06c-0.99,0.12-2.28,1.13-2.69,2.05
		c-1.11,2.53-2.17,5.17-2.61,7.88c-0.71,4.37,1.37,6.99,5.76,7.93C656.47,526.92,658.32,527.14,660.19,527.44z"/>
</g>
</svg>
