<?xml version="1.0" encoding="utf-8"?>
<!-- Generator: Moho 12.4 build 22203 -->
<!DOCTYPE svg PUBLIC "-//W3C//DTD SVG 1.1//EN" "http://www.w3.org/Graphics/SVG/1.1/DTD/svg11.dtd">
<svg version="1.1" id="Frame_0" xmlns="http://www.w3.org/2000/svg" xmlns:xlink="http://www.w3.org/1999/xlink" width="1280px" height="720px">
<g id="Layer_4">
<g id="Bag">
<clipPath id="54f8b586-c81c-4081-89d5-abc338b0c16b">
<path fill="#ff0000" fill-rule="evenodd" stroke="none" d="M 529.118 446.122 C 529.118 446.122 529.118 446.122 529.118 446.122 C 523.926 446.185 517.000 446.525 511.811 446.333 C 508.700 446.218 504.477 446.286 501.468 445.488 C 498.565 444.719 494.940 442.856 492.392 441.267 C 488.347 438.745 482.926 435.012 480.150 431.136 C 477.466 427.388 475.634 421.289 474.662 416.783 C 473.833 412.938 473.965 407.628 473.818 403.697 C 473.315 390.232 473.678 372.257 473.653 358.782 C 473.633 347.734 473.658 333.002 473.653 321.953 C 473.644 297.923 473.596 265.881 473.589 241.851 C 473.588 241.147 473.553 240.207 473.589 239.504 C 473.707 237.160 473.817 233.986 474.469 231.731 C 475.578 227.894 478.176 223.114 480.482 219.852 C 482.691 216.727 486.201 212.886 489.281 210.613 C 491.703 208.825 495.398 207.098 498.227 206.067 C 500.352 205.293 503.319 204.624 505.559 204.307 C 511.986 203.398 520.701 203.925 527.190 203.762 C 527.190 203.762 527.190 203.762 527.190 203.762 C 527.768 276.470 529.118 446.098 529.118 446.122 C 529.118 446.122 529.118 446.122 529.118 446.122 Z"/>
</clipPath>
<path fill="#ff0000" fill-rule="evenodd" stroke="#050505" stroke-width="4" stroke-linecap="round" stroke-linejoin="round" d="M 529.118 446.122 C 529.118 446.122 529.118 446.122 529.118 446.122 C 523.926 446.185 517.000 446.525 511.811 446.333 C 508.700 446.218 504.477 446.286 501.468 445.488 C 498.565 444.719 494.940 442.856 492.392 441.267 C 488.347 438.745 482.926 435.012 480.150 431.136 C 477.466 427.388 475.634 421.289 474.662 416.783 C 473.833 412.938 473.965 407.628 473.818 403.697 C 473.315 390.232 473.678 372.257 473.653 358.782 C 473.633 347.734 473.658 333.002 473.653 321.953 C 473.644 297.923 473.596 265.881 473.589 241.851 C 473.588 241.147 473.553 240.207 473.589 239.504 C 473.707 237.160 473.817 233.986 474.469 231.731 C 475.578 227.894 478.176 223.114 480.482 219.852 C 482.691 216.727 486.201 212.886 489.281 210.613 C 491.703 208.825 495.398 207.098 498.227 206.067 C 500.352 205.293 503.319 204.624 505.559 204.307 C 511.986 203.398 520.701 203.925 527.190 203.762 C 527.190 203.762 527.190 203.762 527.190 203.762 C 527.768 276.470 529.118 446.098 529.118 446.122 C 529.118 446.122 529.118 446.122 529.118 446.122 Z"/>
<path fill="#be0027" fill-rule="evenodd" stroke="none" d="M 496.387 262.839 C 496.387 262.839 496.387 262.839 496.387 262.839 C 496.835 260.667 497.088 257.672 497.878 255.601 C 499.532 251.261 502.782 245.781 505.968 242.401 C 509.431 238.727 515.186 234.859 519.806 232.821 C 522.060 231.826 525.376 231.398 527.764 230.788 C 527.764 230.788 527.764 230.788 527.764 230.788 C 527.298 296.400 526.212 449.472 526.212 449.494 C 520.282 449.562 512.336 450.401 506.445 449.720 C 503.440 449.373 499.566 448.139 496.618 447.461 C 496.618 447.461 496.618 447.461 496.618 447.461 C 496.549 392.075 496.387 262.857 496.387 262.839 C 496.387 262.839 496.387 262.839 496.387 262.839 Z" clip-path="url(#54f8b586-c81c-4081-89d5-abc338b0c16b)"/>
<path fill="none" stroke="#be0027" stroke-width="4" stroke-linecap="round" stroke-linejoin="round" d="M 526.212 449.494 C 526.212 449.494 526.212 449.494 526.212 449.494 C 526.212 449.472 527.298 296.400 527.764 230.788 C 525.376 231.398 522.060 231.826 519.806 232.821 C 515.186 234.859 509.431 238.727 505.968 242.401 C 502.782 245.781 499.532 251.261 497.878 255.601 C 497.088 257.672 496.835 260.667 496.387 262.839 C 496.387 262.839 496.387 262.839 496.387 262.839 C 496.387 262.857 496.549 392.075 496.618 447.461 C 499.566 448.139 503.440 449.373 506.445 449.720 C 512.336 450.401 520.282 449.562 526.212 449.494 M 527.764 230.788 C 527.764 230.788 527.764 230.788 527.764 230.788 M 496.618 447.461 C 496.618 447.461 496.618 447.461 496.618 447.461 M 496.387 262.839 C 496.387 262.839 496.387 262.839 496.387 262.839 " clip-path="url(#54f8b586-c81c-4081-89d5-abc338b0c16b)"/>
<path fill="#ff0000" fill-rule="evenodd" fill-opacity="0.000000" stroke="#050505" stroke-width="4" stroke-linecap="round" stroke-linejoin="round" d="M 529.118 446.122 C 529.118 446.122 529.118 446.122 529.118 446.122 C 523.926 446.185 517.000 446.525 511.811 446.333 C 508.700 446.218 504.477 446.286 501.468 445.488 C 498.565 444.719 494.940 442.856 492.392 441.267 C 488.347 438.745 482.926 435.012 480.150 431.136 C 477.466 427.388 475.634 421.289 474.662 416.783 C 473.833 412.938 473.965 407.628 473.818 403.697 C 473.315 390.232 473.678 372.257 473.653 358.782 C 473.633 347.734 473.658 333.002 473.653 321.953 C 473.644 297.923 473.596 265.881 473.589 241.851 C 473.588 241.147 473.553 240.207 473.589 239.504 C 473.707 237.160 473.817 233.986 474.469 231.731 C 475.578 227.894 478.176 223.114 480.482 219.852 C 482.691 216.727 486.201 212.886 489.281 210.613 C 491.703 208.825 495.398 207.098 498.227 206.067 C 500.352 205.293 503.319 204.624 505.559 204.307 C 511.986 203.398 520.701 203.925 527.190 203.762 C 527.190 203.762 527.190 203.762 527.190 203.762 C 527.768 276.470 529.118 446.098 529.118 446.122 C 529.118 446.122 529.118 446.122 529.118 446.122 Z" clip-path="url(#54f8b586-c81c-4081-89d5-abc338b0c16b)"/>
</g>
<g id="Body">
<clipPath id="499317be-8516-48dd-9b11-cfb47038a6da">
<path fill="#ff0000" fill-rule="evenodd" stroke="none" d="M 684.674 474.872 C 684.487 463.597 684.805 448.561 684.861 437.284 C 684.860 437.285 678.292 440.559 675.256 441.287 C 667.231 443.210 656.027 442.421 647.775 442.487 C 642.600 442.529 635.617 443.023 630.532 442.065 C 627.247 441.445 623.166 439.503 620.009 438.406 C 620.009 438.410 620.210 471.134 620.240 485.161 C 620.244 487.195 620.464 489.920 620.240 491.942 C 619.954 494.515 619.346 497.983 618.299 500.350 C 616.386 504.677 612.533 509.936 609.011 513.094 C 605.262 516.456 599.147 519.644 594.431 521.410 C 593.526 521.749 592.256 522.030 591.299 522.166 C 579.239 523.891 562.743 524.272 550.691 522.490 C 548.547 522.173 545.676 521.533 543.716 520.609 C 539.525 518.634 534.464 514.777 531.378 511.321 C 529.018 508.677 526.651 504.470 525.279 501.202 C 524.213 498.663 523.248 495.065 522.922 492.330 C 522.794 491.257 522.922 489.807 522.922 488.726 C 522.922 478.828 522.916 465.632 522.922 455.734 C 522.938 430.003 523.065 395.694 523.040 369.962 C 523.004 333.670 522.816 285.281 522.619 248.990 C 522.546 235.664 522.399 217.897 522.305 204.571 C 522.468 200.093 522.359 194.098 522.847 189.643 C 523.459 184.063 524.872 176.681 526.296 171.250 C 527.658 166.054 529.929 159.231 532.044 154.293 C 534.307 149.011 537.957 142.240 540.953 137.337 C 543.922 132.479 548.256 126.213 551.874 121.818 C 555.454 117.468 560.696 112.046 564.865 108.257 C 568.878 104.609 574.533 100.053 579.044 97.042 C 583.526 94.050 589.878 90.632 594.738 88.303 C 599.087 86.218 605.059 83.784 609.625 82.232 C 615.750 80.150 624.063 77.683 630.440 76.595 C 636.826 75.504 645.499 75.138 651.976 75.005 C 657.571 74.889 665.076 74.832 670.622 75.583 C 678.299 76.622 688.383 79.229 695.673 81.850 C 703.161 84.542 712.822 89.125 719.605 93.284 C 726.202 97.329 734.412 103.703 740.079 108.972 C 745.707 114.205 752.635 121.861 757.097 128.118 C 761.930 134.892 767.722 144.529 770.658 152.315 C 777.106 169.407 780.165 193.973 781.924 212.156 C 783.873 232.299 782.200 259.375 782.258 279.612 C 782.356 314.213 782.330 360.349 782.313 394.950 C 782.303 414.705 782.513 441.046 782.221 460.799 C 782.125 467.314 783.359 476.220 781.663 482.511 C 780.689 486.124 778.124 490.554 775.947 493.597 C 773.893 496.467 770.676 500.035 767.805 502.086 C 765.263 503.901 761.379 505.643 758.377 506.510 C 757.388 506.796 756.009 506.932 754.984 507.032 C 742.627 508.236 725.847 509.887 713.606 507.815 C 710.602 507.307 706.680 506.029 703.947 504.683 C 700.565 503.017 696.255 500.214 693.635 497.503 C 691.454 495.246 689.349 491.538 687.892 488.758 C 686.791 486.658 685.379 483.768 684.890 481.449 C 684.482 479.517 684.706 476.846 684.674 474.872 M 522.305 204.571 C 522.305 204.571 522.305 204.571 522.305 204.571 Z"/>
</clipPath>
<path fill="#ff0000" fill-rule="evenodd" stroke="none" d="M 684.674 474.872 C 684.487 463.597 684.805 448.561 684.861 437.284 C 684.860 437.285 678.292 440.559 675.256 441.287 C 667.231 443.210 656.027 442.421 647.775 442.487 C 642.600 442.529 635.617 443.023 630.532 442.065 C 627.247 441.445 623.166 439.503 620.009 438.406 C 620.009 438.410 620.210 471.134 620.240 485.161 C 620.244 487.195 620.464 489.920 620.240 491.942 C 619.954 494.515 619.346 497.983 618.299 500.350 C 616.386 504.677 612.533 509.936 609.011 513.094 C 605.262 516.456 599.147 519.644 594.431 521.410 C 593.526 521.749 592.256 522.030 591.299 522.166 C 579.239 523.891 562.743 524.272 550.691 522.490 C 548.547 522.173 545.676 521.533 543.716 520.609 C 539.525 518.634 534.464 514.777 531.378 511.321 C 529.018 508.677 526.651 504.470 525.279 501.202 C 524.213 498.663 523.248 495.065 522.922 492.330 C 522.794 491.257 522.922 489.807 522.922 488.726 C 522.922 478.828 522.916 465.632 522.922 455.734 C 522.938 430.003 523.065 395.694 523.040 369.962 C 523.004 333.670 522.816 285.281 522.619 248.990 C 522.546 235.664 522.399 217.897 522.305 204.571 C 522.468 200.093 522.359 194.098 522.847 189.643 C 523.459 184.063 524.872 176.681 526.296 171.250 C 527.658 166.054 529.929 159.231 532.044 154.293 C 534.307 149.011 537.957 142.240 540.953 137.337 C 543.922 132.479 548.256 126.213 551.874 121.818 C 555.454 117.468 560.696 112.046 564.865 108.257 C 568.878 104.609 574.533 100.053 579.044 97.042 C 583.526 94.050 589.878 90.632 594.738 88.303 C 599.087 86.218 605.059 83.784 609.625 82.232 C 615.750 80.150 624.063 77.683 630.440 76.595 C 636.826 75.504 645.499 75.138 651.976 75.005 C 657.571 74.889 665.076 74.832 670.622 75.583 C 678.299 76.622 688.383 79.229 695.673 81.850 C 703.161 84.542 712.822 89.125 719.605 93.284 C 726.202 97.329 734.412 103.703 740.079 108.972 C 745.707 114.205 752.635 121.861 757.097 128.118 C 761.930 134.892 767.722 144.529 770.658 152.315 C 777.106 169.407 780.165 193.973 781.924 212.156 C 783.873 232.299 782.200 259.375 782.258 279.612 C 782.356 314.213 782.330 360.349 782.313 394.950 C 782.303 414.705 782.513 441.046 782.221 460.799 C 782.125 467.314 783.359 476.220 781.663 482.511 C 780.689 486.124 778.124 490.554 775.947 493.597 C 773.893 496.467 770.676 500.035 767.805 502.086 C 765.263 503.901 761.379 505.643 758.377 506.510 C 757.388 506.796 756.009 506.932 754.984 507.032 C 742.627 508.236 725.847 509.887 713.606 507.815 C 710.602 507.307 706.680 506.029 703.947 504.683 C 700.565 503.017 696.255 500.214 693.635 497.503 C 691.454 495.246 689.349 491.538 687.892 488.758 C 686.791 486.658 685.379 483.768 684.890 481.449 C 684.482 479.517 684.706 476.846 684.674 474.872 M 522.305 204.571 C 522.305 204.571 522.305 204.571 522.305 204.571 Z"/>
<path fill="none" stroke="#000000" stroke-width="4" stroke-linecap="round" stroke-linejoin="round" d="M 684.861 437.284 C 684.861 437.284 684.861 437.284 684.861 437.284 C 684.805 448.561 684.487 463.597 684.674 474.872 C 684.706 476.846 684.482 479.517 684.890 481.449 C 685.379 483.768 686.791 486.658 687.892 488.758 C 689.349 491.538 691.454 495.246 693.635 497.503 C 696.255 500.214 700.565 503.017 703.947 504.683 C 706.680 506.029 710.602 507.307 713.606 507.815 C 725.847 509.887 742.627 508.236 754.984 507.032 C 756.009 506.932 757.388 506.796 758.377 506.510 C 761.379 505.643 765.263 503.901 767.805 502.086 C 770.676 500.035 773.893 496.467 775.947 493.597 C 778.124 490.554 780.689 486.124 781.663 482.511 C 783.359 476.220 782.125 467.314 782.221 460.799 C 782.513 441.046 782.303 414.705 782.313 394.950 C 782.330 360.349 782.356 314.213 782.258 279.612 C 782.200 259.375 783.873 232.299 781.924 212.156 C 780.165 193.973 777.106 169.407 770.658 152.315 C 767.722 144.529 761.930 134.892 757.097 128.118 C 752.635 121.861 745.707 114.205 740.079 108.972 C 734.412 103.703 726.202 97.329 719.605 93.284 C 712.822 89.125 703.161 84.542 695.673 81.850 C 688.383 79.229 678.299 76.622 670.622 75.583 C 665.076 74.832 657.571 74.889 651.976 75.005 C 645.499 75.138 636.826 75.504 630.440 76.595 C 624.063 77.683 615.750 80.150 609.625 82.232 C 605.059 83.784 599.087 86.218 594.738 88.303 C 589.878 90.632 583.526 94.050 579.044 97.042 C 574.533 100.053 568.878 104.609 564.865 108.257 C 560.696 112.046 555.454 117.468 551.874 121.818 C 548.256 126.213 543.922 132.479 540.953 137.337 C 537.957 142.240 534.307 149.011 532.044 154.293 C 529.929 159.231 527.658 166.054 526.296 171.250 C 524.872 176.681 523.459 184.063 522.847 189.643 C 522.359 194.098 522.468 200.093 522.305 204.571 C 522.305 204.571 522.305 204.571 522.305 204.571 C 522.399 217.897 522.546 235.664 522.619 248.990 C 522.816 285.281 523.004 333.670 523.040 369.962 C 523.065 395.694 522.938 430.003 522.922 455.734 C 522.916 465.632 522.922 478.828 522.922 488.726 C 522.922 489.807 522.794 491.257 522.922 492.330 C 523.248 495.065 524.213 498.663 525.279 501.202 C 526.651 504.470 529.018 508.677 531.378 511.321 C 534.464 514.777 539.525 518.634 543.716 520.609 C 545.676 521.533 548.547 522.173 550.691 522.490 C 562.743 524.272 579.239 523.891 591.299 522.166 C 592.256 522.030 593.526 521.749 594.431 521.410 C 599.147 519.644 605.262 516.456 609.011 513.094 C 612.533 509.936 616.386 504.677 618.299 500.350 C 619.346 497.983 619.954 494.515 620.240 491.942 C 620.464 489.920 620.244 487.195 620.240 485.161 C 620.210 471.134 620.009 438.410 620.009 438.406 C 620.009 438.406 620.009 438.406 620.009 438.406 C 623.166 439.503 627.247 441.445 630.532 442.065 C 635.617 443.023 642.600 442.529 647.775 442.487 C 656.027 442.421 667.231 443.210 675.256 441.287 C 678.292 440.559 684.860 437.285 684.861 437.284 "/>
<path fill="#be0027" fill-rule="evenodd" stroke="none" d="M 784.968 359.655 C 785.018 400.592 785.086 455.174 785.136 496.110 C 785.135 496.112 782.285 508.904 778.783 513.052 C 774.298 518.363 765.222 522.401 758.548 524.345 C 745.396 528.177 726.402 527.841 712.901 525.522 C 707.598 524.611 700.464 522.582 695.960 519.640 C 691.988 517.045 687.446 512.254 685.136 508.110 C 683.667 505.476 682.821 501.435 682.312 498.463 C 679.501 482.041 681.654 459.592 681.371 442.934 C 681.370 442.934 674.210 445.441 671.018 445.992 C 661.346 447.664 648.092 447.779 638.312 446.934 C 634.092 446.569 628.595 445.122 624.430 444.345 C 624.430 444.351 627.430 481.028 623.724 496.110 C 623.173 498.352 621.740 501.127 620.665 503.169 C 618.358 507.553 615.279 513.602 611.724 517.051 C 608.231 520.442 602.447 523.889 597.831 525.436 C 583.802 530.138 562.889 531.831 548.581 528.063 C 541.752 526.265 532.993 521.452 528.224 516.243 C 524.238 511.888 521.145 504.234 519.688 498.513 C 517.522 490.013 518.876 478.061 518.703 469.292 C 517.075 387.084 516.416 277.408 518.552 195.211 C 518.600 193.378 518.619 190.926 518.821 189.103 C 519.772 180.491 521.870 169.049 524.440 160.774 C 527.395 151.260 532.651 138.924 537.659 130.312 C 540.501 125.425 545.448 119.667 548.786 115.105 C 548.676 143.875 548.359 182.234 548.420 211.004 C 548.458 229.279 548.402 253.650 548.878 271.918 C 549.092 280.146 548.724 291.203 550.030 299.330 C 550.939 304.991 553.441 312.268 555.097 317.757 C 556.226 321.497 557.583 326.552 559.143 330.133 C 562.200 337.149 567.491 345.957 571.799 352.282 C 575.167 357.226 580.036 363.608 584.229 367.876 C 589.579 373.321 597.678 379.599 603.926 383.984 C 608.421 387.139 614.648 391.064 619.596 393.445 C 626.650 396.839 636.536 400.437 644.135 402.315 C 650.918 403.991 660.225 405.095 667.196 405.567 C 676.577 406.202 689.184 406.240 698.536 405.271 C 705.907 404.508 715.677 402.655 722.780 400.541 C 730.215 398.328 739.906 394.479 746.728 390.784 C 753.135 387.315 761.054 381.573 766.712 376.983 C 772.576 372.226 779.491 364.854 784.968 359.655 C 784.968 359.655 784.968 359.655 784.968 359.655 M 548.786 115.105 C 548.786 115.105 548.786 115.105 548.786 115.105 Z" clip-path="url(#499317be-8516-48dd-9b11-cfb47038a6da)"/>
<path fill="none" stroke="#be0027" stroke-width="4" stroke-linecap="round" stroke-linejoin="round" d="M 785.136 496.110 C 785.136 496.110 785.136 496.110 785.136 496.110 C 785.086 455.174 785.018 400.592 784.968 359.655 C 784.968 359.655 784.968 359.655 784.968 359.655 C 779.491 364.854 772.576 372.226 766.712 376.983 C 761.054 381.573 753.135 387.315 746.728 390.784 C 739.906 394.479 730.215 398.328 722.780 400.541 C 715.677 402.655 705.907 404.508 698.536 405.271 C 689.184 406.240 676.577 406.202 667.196 405.567 C 660.225 405.095 650.918 403.991 644.135 402.315 C 636.536 400.437 626.650 396.839 619.596 393.445 C 614.648 391.064 608.421 387.139 603.926 383.984 C 597.678 379.599 589.579 373.321 584.229 367.876 C 580.036 363.608 575.167 357.226 571.799 352.282 C 567.491 345.957 562.200 337.149 559.143 330.133 C 557.583 326.552 556.226 321.497 555.097 317.757 C 553.441 312.268 550.939 304.991 550.030 299.330 C 548.724 291.203 549.092 280.146 548.878 271.918 C 548.402 253.650 548.458 229.279 548.420 211.004 C 548.359 182.234 548.676 143.875 548.786 115.105 C 548.786 115.105 548.786 115.105 548.786 115.105 C 545.448 119.667 540.501 125.425 537.659 130.312 C 532.651 138.924 527.395 151.260 524.440 160.774 C 521.870 169.049 519.772 180.491 518.821 189.103 C 518.619 190.926 518.600 193.378 518.552 195.211 C 516.416 277.408 517.075 387.084 518.703 469.292 C 518.876 478.061 517.522 490.013 519.688 498.513 C 521.145 504.234 524.238 511.888 528.224 516.243 C 532.993 521.452 541.752 526.265 548.581 528.063 C 562.889 531.831 583.802 530.138 597.831 525.436 C 602.447 523.889 608.231 520.442 611.724 517.051 C 615.279 513.602 618.358 507.553 620.665 503.169 C 621.740 501.127 623.173 498.352 623.724 496.110 C 627.430 481.028 624.430 444.351 624.430 444.345 C 624.430 444.345 624.430 444.345 624.430 444.345 C 628.595 445.122 634.092 446.569 638.312 446.934 C 648.092 447.779 661.346 447.664 671.018 445.992 C 674.210 445.441 681.370 442.934 681.371 442.934 C 681.371 442.934 681.371 442.934 681.371 442.934 C 681.654 459.592 679.501 482.041 682.312 498.463 C 682.821 501.435 683.667 505.476 685.136 508.110 C 687.446 512.254 691.988 517.045 695.960 519.640 C 700.464 522.582 707.598 524.611 712.901 525.522 C 726.402 527.841 745.396 528.177 758.548 524.345 C 765.222 522.401 774.298 518.363 778.783 513.052 C 782.285 508.904 785.135 496.112 785.136 496.110 " clip-path="url(#499317be-8516-48dd-9b11-cfb47038a6da)"/>
<path fill="#ff0000" fill-rule="evenodd" fill-opacity="0.000000" stroke="none" d="M 684.498 478.597 C 684.070 466.210 684.752 449.678 684.861 437.284 C 684.860 437.285 678.292 440.559 675.256 441.287 C 667.231 443.210 656.027 442.421 647.775 442.487 C 642.600 442.529 635.617 443.023 630.532 442.065 C 627.247 441.445 623.166 439.503 620.009 438.406 C 620.009 438.410 620.210 471.134 620.240 485.161 C 620.244 487.195 620.464 489.920 620.240 491.942 C 619.954 494.515 619.346 497.983 618.299 500.350 C 616.386 504.677 612.533 509.936 609.011 513.094 C 605.262 516.456 599.147 519.644 594.431 521.410 C 593.526 521.749 592.256 522.030 591.299 522.166 C 579.239 523.891 562.743 524.272 550.691 522.490 C 548.547 522.173 545.676 521.533 543.716 520.609 C 539.525 518.634 534.464 514.777 531.378 511.321 C 529.018 508.677 526.651 504.470 525.279 501.202 C 524.213 498.663 523.248 495.065 522.922 492.330 C 522.794 491.257 522.922 489.807 522.922 488.726 C 522.922 478.828 522.916 465.632 522.922 455.734 C 522.938 430.003 523.065 395.694 523.040 369.962 C 523.004 333.670 522.816 285.281 522.619 248.990 C 522.546 235.664 522.399 217.897 522.305 204.571 C 522.468 200.093 522.359 194.098 522.847 189.643 C 523.459 184.063 524.872 176.681 526.296 171.250 C 527.658 166.054 529.929 159.231 532.044 154.293 C 534.307 149.011 537.957 142.240 540.953 137.337 C 543.922 132.479 548.256 126.213 551.874 121.818 C 555.454 117.468 560.696 112.046 564.865 108.257 C 568.878 104.609 574.533 100.053 579.044 97.042 C 583.526 94.050 589.878 90.632 594.738 88.303 C 599.087 86.218 605.059 83.784 609.625 82.232 C 615.750 80.150 624.063 77.683 630.440 76.595 C 636.826 75.504 645.499 75.138 651.976 75.005 C 657.571 74.889 665.076 74.832 670.622 75.583 C 678.299 76.622 688.383 79.229 695.673 81.850 C 703.161 84.542 712.822 89.125 719.605 93.284 C 726.202 97.329 734.412 103.703 740.079 108.972 C 745.707 114.205 752.635 121.861 757.097 128.118 C 761.930 134.892 767.722 144.529 770.658 152.315 C 777.106 169.407 780.165 193.973 781.924 212.156 C 783.873 232.299 782.200 259.375 782.258 279.612 C 782.356 314.213 782.264 360.349 782.313 394.950 C 782.342 415.612 782.871 443.164 782.469 463.822 C 782.342 470.339 783.393 479.250 781.663 485.534 C 780.670 489.142 778.124 493.577 775.947 496.620 C 773.893 499.490 770.676 503.058 767.805 505.108 C 765.263 506.924 761.379 508.666 758.377 509.533 C 757.388 509.819 756.009 509.955 754.984 510.055 C 742.627 511.259 725.847 512.910 713.606 510.838 C 710.602 510.330 706.680 509.052 703.947 507.706 C 700.565 506.040 696.255 503.237 693.635 500.526 C 691.454 498.269 689.349 494.561 687.892 491.781 C 686.791 489.681 685.415 486.783 684.890 484.471 C 684.498 482.749 684.559 480.362 684.498 478.597 M 522.305 204.571 C 522.305 204.571 522.305 204.571 522.305 204.571 Z" clip-path="url(#499317be-8516-48dd-9b11-cfb47038a6da)"/>
<path fill="none" stroke="#000000" stroke-width="4" stroke-linecap="round" stroke-linejoin="round" d="M 684.861 437.284 C 684.861 437.284 684.861 437.284 684.861 437.284 C 684.752 449.678 684.070 466.210 684.498 478.597 C 684.559 480.362 684.498 482.749 684.890 484.471 C 685.415 486.783 686.791 489.681 687.892 491.781 C 689.349 494.561 691.454 498.269 693.635 500.526 C 696.255 503.237 700.565 506.040 703.947 507.706 C 706.680 509.052 710.602 510.330 713.606 510.838 C 725.847 512.910 742.627 511.259 754.984 510.055 C 756.009 509.955 757.388 509.819 758.377 509.533 C 761.379 508.666 765.263 506.924 767.805 505.108 C 770.676 503.058 773.893 499.490 775.947 496.620 C 778.124 493.577 780.670 489.142 781.663 485.534 C 783.393 479.250 782.342 470.339 782.469 463.822 C 782.871 443.164 782.342 415.612 782.313 394.950 C 782.264 360.349 782.356 314.213 782.258 279.612 C 782.200 259.375 783.873 232.299 781.924 212.156 C 780.165 193.973 777.106 169.407 770.658 152.315 C 767.722 144.529 761.930 134.892 757.097 128.118 C 752.635 121.861 745.707 114.205 740.079 108.972 C 734.412 103.703 726.202 97.329 719.605 93.284 C 712.822 89.125 703.161 84.542 695.673 81.850 C 688.383 79.229 678.299 76.622 670.622 75.583 C 665.076 74.832 657.571 74.889 651.976 75.005 C 645.499 75.138 636.826 75.504 630.440 76.595 C 624.063 77.683 615.750 80.150 609.625 82.232 C 605.059 83.784 599.087 86.218 594.738 88.303 C 589.878 90.632 583.526 94.050 579.044 97.042 C 574.533 100.053 568.878 104.609 564.865 108.257 C 560.696 112.046 555.454 117.468 551.874 121.818 C 548.256 126.213 543.922 132.479 540.953 137.337 C 537.957 142.240 534.307 149.011 532.044 154.293 C 529.929 159.231 527.658 166.054 526.296 171.250 C 524.872 176.681 523.459 184.063 522.847 189.643 C 522.359 194.098 522.468 200.093 522.305 204.571 C 522.305 204.571 522.305 204.571 522.305 204.571 C 522.399 217.897 522.546 235.664 522.619 248.990 C 522.816 285.281 523.004 333.670 523.040 369.962 C 523.065 395.694 522.938 430.003 522.922 455.734 C 522.916 465.632 522.922 478.828 522.922 488.726 C 522.922 489.807 522.794 491.257 522.922 492.330 C 523.248 495.065 524.213 498.663 525.279 501.202 C 526.651 504.470 529.018 508.677 531.378 511.321 C 534.464 514.777 539.525 518.634 543.716 520.609 C 545.676 521.533 548.547 522.173 550.691 522.490 C 562.743 524.272 579.239 523.891 591.299 522.166 C 592.256 522.030 593.526 521.749 594.431 521.410 C 599.147 519.644 605.262 516.456 609.011 513.094 C 612.533 509.936 616.386 504.677 618.299 500.350 C 619.346 497.983 619.954 494.515 620.240 491.942 C 620.464 489.920 620.244 487.195 620.240 485.161 C 620.210 471.134 620.009 438.410 620.009 438.406 C 620.009 438.406 620.009 438.406 620.009 438.406 C 623.166 439.503 627.247 441.445 630.532 442.065 C 635.617 443.023 642.600 442.529 647.775 442.487 C 656.027 442.421 667.231 443.210 675.256 441.287 C 678.292 440.559 684.860 437.285 684.861 437.284 " clip-path="url(#499317be-8516-48dd-9b11-cfb47038a6da)"/>
</g>
<g id="Helmet">
<clipPath id="e6390b0e-c699-4841-80f1-4b149d4263c4">
<path fill="#96c9dc" fill-rule="evenodd" stroke="none" d="M 743.551 139.037 C 731.839 137.974 716.127 138.054 704.368 137.939 C 691.789 137.816 674.977 137.296 662.438 138.305 C 658.845 138.594 654.044 139.124 650.536 139.953 C 645.786 141.075 639.578 143.195 635.156 145.263 C 631.563 146.942 626.972 149.652 623.803 152.037 C 619.329 155.405 613.822 160.564 610.277 164.898 C 607.532 168.255 604.413 173.193 602.516 177.093 C 600.208 181.842 597.777 188.544 596.751 193.724 C 595.496 200.062 595.180 208.788 595.643 215.232 C 596.021 220.502 597.278 227.522 598.969 232.528 C 600.415 236.812 603.231 242.215 605.621 246.054 C 607.857 249.645 611.319 254.150 614.215 257.233 C 616.952 260.145 620.985 263.686 624.240 266.005 C 627.833 268.564 633.008 271.444 637.022 273.273 C 640.723 274.958 645.843 276.862 649.804 277.784 C 652.756 278.471 656.808 278.795 659.829 279.037 C 668.526 279.733 680.177 279.672 688.901 279.789 C 702.284 279.969 720.141 280.359 733.513 279.789 C 737.430 279.622 742.685 279.475 746.545 278.787 C 750.856 278.018 756.510 276.392 760.580 274.776 C 764.831 273.089 770.283 270.257 774.114 267.759 C 778.323 265.014 783.655 260.848 787.146 257.233 C 790.353 253.912 794.015 248.893 796.419 244.952 C 798.894 240.897 801.812 235.198 803.284 230.681 C 805.004 225.401 806.178 218.001 806.547 212.460 C 806.917 206.920 806.818 199.414 805.731 193.968 C 804.832 189.464 802.525 183.709 800.564 179.555 C 798.659 175.519 795.604 170.362 792.950 166.774 C 790.066 162.873 785.711 158.017 782.072 154.808 C 779.220 152.292 775.060 149.317 771.738 147.465 C 769.591 146.268 766.512 145.096 764.219 144.211 C 762.253 143.451 759.585 142.557 757.571 141.934 C 755.513 141.298 752.726 140.595 750.649 140.021 C 750.649 140.021 750.649 140.021 750.649 140.021 C 750.662 139.974 745.692 139.231 743.551 139.037 Z"/>
</clipPath>
<path fill="#96c9dc" fill-rule="evenodd" stroke="#050505" stroke-width="4" stroke-linecap="round" stroke-linejoin="round" d="M 743.551 139.037 C 731.839 137.974 716.127 138.054 704.368 137.939 C 691.789 137.816 674.977 137.296 662.438 138.305 C 658.845 138.594 654.044 139.124 650.536 139.953 C 645.786 141.075 639.578 143.195 635.156 145.263 C 631.563 146.942 626.972 149.652 623.803 152.037 C 619.329 155.405 613.822 160.564 610.277 164.898 C 607.532 168.255 604.413 173.193 602.516 177.093 C 600.208 181.842 597.777 188.544 596.751 193.724 C 595.496 200.062 595.180 208.788 595.643 215.232 C 596.021 220.502 597.278 227.522 598.969 232.528 C 600.415 236.812 603.231 242.215 605.621 246.054 C 607.857 249.645 611.319 254.150 614.215 257.233 C 616.952 260.145 620.985 263.686 624.240 266.005 C 627.833 268.564 633.008 271.444 637.022 273.273 C 640.723 274.958 645.843 276.862 649.804 277.784 C 652.756 278.471 656.808 278.795 659.829 279.037 C 668.526 279.733 680.177 279.672 688.901 279.789 C 702.284 279.969 720.141 280.359 733.513 279.789 C 737.430 279.622 742.685 279.475 746.545 278.787 C 750.856 278.018 756.510 276.392 760.580 274.776 C 764.831 273.089 770.283 270.257 774.114 267.759 C 778.323 265.014 783.655 260.848 787.146 257.233 C 790.353 253.912 794.015 248.893 796.419 244.952 C 798.894 240.897 801.812 235.198 803.284 230.681 C 805.004 225.401 806.178 218.001 806.547 212.460 C 806.917 206.920 806.818 199.414 805.731 193.968 C 804.832 189.464 802.525 183.709 800.564 179.555 C 798.659 175.519 795.604 170.362 792.950 166.774 C 790.066 162.873 785.711 158.017 782.072 154.808 C 779.220 152.292 775.060 149.317 771.738 147.465 C 769.591 146.268 766.512 145.096 764.219 144.211 C 762.253 143.451 759.585 142.557 757.571 141.934 C 755.513 141.298 752.726 140.595 750.649 140.021 C 750.649 140.021 750.649 140.021 750.649 140.021 C 750.662 139.974 745.692 139.231 743.551 139.037 Z"/>
<path fill="#4c646e" fill-rule="evenodd" stroke="none" d="M 805.829 231.352 C 805.829 231.352 805.829 231.352 805.829 231.352 C 802.067 233.108 797.172 235.738 793.288 237.205 C 787.916 239.233 780.563 241.587 774.893 242.500 C 765.397 244.029 752.461 243.274 742.843 243.336 C 730.886 243.414 714.942 243.104 702.989 242.779 C 696.548 242.603 687.868 243.092 681.529 241.943 C 675.727 240.891 668.100 238.506 662.856 235.811 C 656.371 232.479 648.271 226.695 643.347 221.319 C 637.923 215.397 632.433 205.905 629.411 198.465 C 627.244 193.129 625.583 185.517 624.952 179.792 C 624.330 174.140 624.485 166.478 625.231 160.840 C 625.739 157.001 627.377 152.061 628.296 148.299 C 628.296 148.299 628.296 148.299 628.296 148.299 C 629.300 146.459 631.641 142.168 631.641 142.167 C 624.618 148.020 614.021 154.602 608.230 161.676 C 603.039 168.017 597.664 177.852 595.131 185.645 C 593.512 190.627 592.831 197.690 592.623 202.924 C 592.274 211.722 592.353 223.746 594.852 232.188 C 597.285 240.403 602.903 250.792 608.509 257.271 C 613.782 263.367 622.824 269.706 629.969 273.436 C 637.376 277.302 648.208 280.679 656.446 282.076 C 665.020 283.529 676.734 282.656 685.431 282.633 C 703.497 282.586 727.799 283.874 745.630 280.961 C 752.918 279.770 762.690 277.525 769.320 274.272 C 777.201 270.405 787.065 263.420 792.730 256.714 C 798.257 250.172 805.828 231.354 805.829 231.352 C 805.829 231.352 805.829 231.352 805.829 231.352 Z" clip-path="url(#e6390b0e-c699-4841-80f1-4b149d4263c4)"/>
<path fill="none" stroke="#4c646e" stroke-width="4" stroke-linecap="round" stroke-linejoin="round" d="M 631.641 142.167 C 631.641 142.167 631.641 142.167 631.641 142.167 C 631.641 142.168 629.300 146.459 628.296 148.299 C 627.377 152.061 625.739 157.001 625.231 160.840 C 624.485 166.478 624.330 174.140 624.952 179.792 C 625.583 185.517 627.244 193.129 629.411 198.465 C 632.433 205.905 637.923 215.397 643.347 221.319 C 648.271 226.695 656.371 232.479 662.856 235.811 C 668.100 238.506 675.727 240.891 681.529 241.943 C 687.868 243.092 696.548 242.603 702.989 242.779 C 714.942 243.104 730.886 243.414 742.843 243.336 C 752.461 243.274 765.397 244.029 774.893 242.500 C 780.563 241.587 787.916 239.233 793.288 237.205 C 797.172 235.738 802.067 233.108 805.829 231.352 C 805.829 231.352 805.829 231.352 805.829 231.352 C 805.828 231.354 798.257 250.172 792.730 256.714 C 787.065 263.420 777.201 270.405 769.320 274.272 C 762.690 277.525 752.918 279.770 745.630 280.961 C 727.799 283.874 703.497 282.586 685.431 282.633 C 676.734 282.656 665.020 283.529 656.446 282.076 C 648.208 280.679 637.376 277.302 629.969 273.436 C 622.824 269.706 613.782 263.367 608.509 257.271 C 602.903 250.792 597.285 240.403 594.852 232.188 C 592.353 223.746 592.274 211.722 592.623 202.924 C 592.831 197.690 593.512 190.627 595.131 185.645 C 597.664 177.852 603.039 168.017 608.230 161.676 C 614.021 154.602 624.618 148.020 631.641 142.167 M 628.296 148.299 C 628.296 148.299 628.296 148.299 628.296 148.299 M 805.829 231.352 C 805.829 231.352 805.829 231.352 805.829 231.352 " clip-path="url(#e6390b0e-c699-4841-80f1-4b149d4263c4)"/>
<path fill="#ffffff" fill-rule="evenodd" stroke="none" d="M 746.357 153.070 C 746.357 153.070 746.357 153.070 746.357 153.070 C 731.028 153.120 710.590 153.186 695.261 153.236 C 695.261 153.236 695.261 153.236 695.261 153.236 C 693.370 153.584 690.812 153.888 688.957 154.397 C 686.755 155.001 683.892 156.085 681.824 157.051 C 679.643 158.071 676.800 159.612 674.856 161.033 C 672.724 162.592 670.009 164.921 668.386 167.005 C 666.786 169.061 665.118 172.183 664.239 174.636 C 663.555 176.547 663.074 179.248 662.912 181.272 C 662.721 183.655 662.690 186.909 663.244 189.235 C 663.878 191.899 665.589 195.219 667.059 197.529 C 668.387 199.615 670.552 202.156 672.368 203.833 C 674.387 205.698 677.429 207.811 679.833 209.142 C 682.097 210.396 685.310 211.740 687.796 212.460 C 690.366 213.204 696.588 213.953 696.588 213.953 C 710.573 213.953 743.200 213.953 743.205 213.953 C 744.797 213.654 746.939 213.343 748.513 212.958 C 750.333 212.512 752.745 211.827 754.485 211.133 C 757.339 209.995 761.074 208.221 763.610 206.488 C 766.142 204.758 769.319 202.076 771.241 199.686 C 772.749 197.810 774.269 194.929 775.222 192.718 C 776.026 190.854 776.962 188.264 777.213 186.249 C 777.459 184.271 777.203 181.580 776.881 179.613 C 776.555 177.623 775.876 174.986 775.056 173.143 C 773.827 170.381 771.624 166.911 769.582 164.682 C 767.786 162.722 764.874 160.608 762.614 159.208 C 759.718 157.414 755.561 155.474 752.329 154.397 C 750.587 153.817 746.357 153.070 746.357 153.070 C 746.357 153.070 746.357 153.070 746.357 153.070 Z" clip-path="url(#e6390b0e-c699-4841-80f1-4b149d4263c4)"/>
<path fill="none" stroke="#ffffff" stroke-width="0" stroke-linecap="round" stroke-linejoin="round" d="M 743.205 213.953 C 743.205 213.953 743.205 213.953 743.205 213.953 C 743.200 213.953 710.573 213.953 696.588 213.953 C 696.588 213.953 696.588 213.953 696.588 213.953 C 696.588 213.953 690.366 213.204 687.796 212.460 C 685.310 211.740 682.097 210.396 679.833 209.142 C 677.429 207.811 674.387 205.698 672.368 203.833 C 670.552 202.156 668.387 199.615 667.059 197.529 C 665.589 195.219 663.878 191.899 663.244 189.235 C 662.690 186.909 662.721 183.655 662.912 181.272 C 663.074 179.248 663.555 176.547 664.239 174.636 C 665.118 172.183 666.786 169.061 668.386 167.005 C 670.009 164.921 672.724 162.592 674.856 161.033 C 676.800 159.612 679.643 158.071 681.824 157.051 C 683.892 156.085 686.755 155.001 688.957 154.397 C 690.812 153.888 693.370 153.584 695.261 153.236 C 710.590 153.186 731.028 153.120 746.357 153.070 C 746.357 153.070 746.357 153.070 746.357 153.070 C 746.357 153.070 750.587 153.817 752.329 154.397 C 755.561 155.474 759.718 157.414 762.614 159.208 C 764.874 160.608 767.786 162.722 769.582 164.682 C 771.624 166.911 773.827 170.381 775.056 173.143 C 775.876 174.986 776.555 177.623 776.881 179.613 C 777.203 181.580 777.459 184.271 777.213 186.249 C 776.962 188.264 776.026 190.854 775.222 192.718 C 774.269 194.929 772.749 197.810 771.241 199.686 C 769.319 202.076 766.142 204.758 763.610 206.488 C 761.074 208.221 757.339 209.995 754.485 211.133 C 752.745 211.827 750.333 212.512 748.513 212.958 C 746.939 213.343 744.797 213.654 743.205 213.953 M 695.261 153.236 C 695.261 153.236 695.261 153.236 695.261 153.236 M 746.357 153.070 C 746.357 153.070 746.357 153.070 746.357 153.070 " clip-path="url(#e6390b0e-c699-4841-80f1-4b149d4263c4)"/>
<path fill="#96c9dc" fill-rule="evenodd" fill-opacity="0.000000" stroke="#050505" stroke-width="4" stroke-linecap="round" stroke-linejoin="round" d="M 743.551 139.037 C 731.839 137.974 716.127 138.054 704.368 137.939 C 691.789 137.816 674.977 137.296 662.438 138.305 C 658.845 138.594 654.044 139.124 650.536 139.953 C 645.786 141.075 639.578 143.195 635.156 145.263 C 631.563 146.942 626.972 149.652 623.803 152.037 C 619.329 155.405 613.822 160.564 610.277 164.898 C 607.532 168.255 604.413 173.193 602.516 177.093 C 600.208 181.842 597.777 188.544 596.751 193.724 C 595.496 200.062 595.180 208.788 595.643 215.232 C 596.021 220.502 597.278 227.522 598.969 232.528 C 600.415 236.812 603.231 242.215 605.621 246.054 C 607.857 249.645 611.319 254.150 614.215 257.233 C 616.952 260.145 620.985 263.686 624.240 266.005 C 627.833 268.564 633.008 271.444 637.022 273.273 C 640.723 274.958 645.843 276.862 649.804 277.784 C 652.756 278.471 656.808 278.795 659.829 279.037 C 668.526 279.733 680.177 279.672 688.901 279.789 C 702.284 279.969 720.141 280.359 733.513 279.789 C 737.430 279.622 742.685 279.475 746.545 278.787 C 750.856 278.018 756.510 276.392 760.580 274.776 C 764.831 273.089 770.283 270.257 774.114 267.759 C 778.323 265.014 783.655 260.848 787.146 257.233 C 790.353 253.912 794.015 248.893 796.419 244.952 C 798.894 240.897 801.812 235.198 803.284 230.681 C 805.004 225.401 806.178 218.001 806.547 212.460 C 806.917 206.920 806.818 199.414 805.731 193.968 C 804.832 189.464 802.525 183.709 800.564 179.555 C 798.659 175.519 795.604 170.362 792.950 166.774 C 790.066 162.873 785.711 158.017 782.072 154.808 C 779.220 152.292 775.060 149.317 771.738 147.465 C 769.591 146.268 766.512 145.096 764.219 144.211 C 762.253 143.451 759.585 142.557 757.571 141.934 C 755.513 141.298 752.726 140.595 750.649 140.021 C 750.649 140.021 750.649 140.021 750.649 140.021 C 750.662 139.974 745.692 139.231 743.551 139.037 Z" clip-path="url(#e6390b0e-c699-4841-80f1-4b149d4263c4)"/>
</g>
</g>
</svg>
